<svg width="102" height="90" viewBox="0 0 102 90" fill="none" xmlns="http://www.w3.org/2000/svg">
<path d="M34.4939 40.456C35.2282 38.2798 36.4989 36.2261 37.8441 34.055C39.7227 31.024 41.6655 27.8898 42.5541 23.8876C43.7285 18.6078 41.506 10.6433 38.9564 3.93684C38.5587 2.8911 39.3468 1.77592 40.4798 1.77592H43.336C45.4683 7.66944 47.5758 15.5503 46.0938 20.8311C45.1669 24.1327 43.1268 27.0585 41.1539 29.8873C37.9518 34.4788 34.6596 39.202 36.7081 45.1976C37.0622 46.2341 36.2845 47.3085 35.1754 47.3085H34.495V40.456H34.4939ZM34.4939 1.7749C35.513 1.7749 36.4264 2.39478 36.7961 3.33125C40.3047 12.2262 41.7246 19.3401 40.7977 23.5067C39.9733 27.2178 38.1103 30.2233 36.3094 33.1297C36.3031 33.1399 36.2969 33.1502 36.2907 33.1604C35.7802 33.9835 34.495 33.6271 34.495 32.662V1.7749H34.4939ZM45.2446 1.7749C47.1149 1.7749 48.688 3.13415 48.9655 4.95807C49.5134 8.5671 50.4941 11.1396 51.8953 12.6285C53.1763 13.9878 55.0063 14.8752 56.9429 15.8137C57.5611 16.113 58.1918 16.4193 58.8266 16.7492C64.1662 19.5259 67.5081 24.9905 67.5081 30.9433V47.3064C63.9208 47.3064 60.8098 44.8238 60.1004 41.3557C59.3631 37.7477 59.5236 34.2745 59.6551 31.4569C59.7317 29.8015 59.7991 28.3708 59.6644 27.2464C59.2895 24.0929 57.9691 22.032 56.134 21.7318C53.3627 21.2784 50.2683 24.6627 46.6737 32.0779C43.8662 37.8713 43.6632 42.4117 44.3281 45.6908C44.4979 46.5252 43.8579 47.3064 42.9942 47.3064C40.6289 47.3064 38.5556 45.6888 38.073 43.4053C37.1057 38.821 39.7165 35.0762 42.6349 30.8902C44.6916 27.9409 46.8187 24.8915 47.8264 21.3018C49.3808 15.7637 47.3852 7.84305 45.2425 1.77388H45.2446V1.7749ZM57.3126 1.7749C57.4379 6.67374 58.75 10.4778 61.222 13.0901C63.1192 15.0938 65.4255 16.4132 67.5081 17.4794V22.1178C64.771 17.6346 60.9382 15.7749 57.7361 14.2227C55.8751 13.3209 54.2679 12.5417 53.2136 11.4225C51.7472 9.86406 50.7851 6.53894 50.4175 1.77592H57.3126V1.7749ZM63.0737 1.7749H67.5081V15.4706C65.7963 14.5515 64.0047 13.4292 62.5372 11.8789C61.1298 10.392 60.1501 8.42821 59.6075 6.01198C59.1176 3.83676 60.8129 1.7749 63.0737 1.7749ZM59.9731 47.3075C58.5387 47.3075 57.2908 46.3199 56.9988 44.9351C56.6467 43.2613 56.7223 41.6356 56.7834 40.3212C56.8206 39.5196 56.8528 38.8272 56.7844 38.2583C56.5783 36.5263 55.8275 35.4295 54.7256 35.2498C53.1598 34.9935 51.5805 36.6264 49.7568 40.3907C48.3214 43.3512 48.2758 45.6633 48.6559 47.3075C47.3811 47.3075 46.2916 46.4088 46.0576 45.1741C45.3658 41.5365 46.1218 37.3331 48.2976 32.8438C52.7124 23.7354 55.1865 23.376 55.8399 23.4822C56.7948 23.6384 57.6139 25.2346 57.878 27.4547C57.995 28.4351 57.9319 29.7985 57.8583 31.3773C57.6553 35.7318 57.3861 41.5784 60.2423 47.3075H59.9731ZM53.719 47.3075H50.519C49.9773 45.5591 50.2684 43.4482 51.3796 41.1556C53.3814 37.0237 54.418 36.9981 54.4305 36.9992C54.5154 37.0135 54.8737 37.4148 54.998 38.4656C55.0487 38.8905 55.0197 39.5155 54.9866 40.2395C54.9224 41.6223 54.8375 43.4615 55.2621 45.4018C55.4764 46.3802 54.7339 47.3075 53.719 47.3075ZM24.1938 25.2101C21.003 25.2101 18.3146 27.6437 18.1375 30.786C18.0194 32.8897 18.7972 34.8852 20.2968 36.3578C21.6886 37.7242 23.5361 38.4769 25.5007 38.4769H25.5162C27.8981 38.4769 30.1817 37.5404 31.8614 35.8758L31.8863 35.8513C32.1845 35.5562 32.6951 35.7645 32.6951 36.1801V41.8806C32.6951 44.9178 30.1982 47.38 27.1183 47.38H14.7221C14.2519 47.38 13.8325 47.719 13.7879 48.1806C13.7372 48.7096 14.1577 49.1538 14.6827 49.1538H87.278C87.7481 49.1538 88.1675 48.8158 88.2121 48.3542C88.2628 47.8252 87.8424 47.38 87.3163 47.38H74.8827C71.8028 47.38 69.306 44.9178 69.306 41.8806V21.2753C69.306 20.8596 69.8165 20.6513 70.1137 20.9464L70.1396 20.972C71.8194 22.6366 74.1019 23.572 76.4838 23.572H76.4993C78.4628 23.572 80.3114 22.8194 81.7032 21.452C83.0848 20.0958 83.8542 18.2943 83.8739 16.3754C83.8863 15.1847 83.558 14.0041 82.8859 13.0146C81.7126 11.2877 79.8371 10.3093 77.8063 10.3052H77.7959C76.8732 10.3052 75.9598 10.5381 75.1779 11.0201C73.6338 11.9719 72.7556 13.5538 72.7514 15.2694C72.7483 17.0147 73.8627 18.5884 75.5248 19.1848C76.026 19.3646 76.5832 19.0776 76.7095 18.5496C76.8131 18.1115 76.5449 17.6683 76.1172 17.51C75.1768 17.1618 74.5482 16.2662 74.5503 15.2735C74.5534 14.0419 75.2566 12.9186 76.4724 12.3436C76.8556 12.1628 77.2802 12.0791 77.7048 12.0791C78.816 12.0791 79.9034 12.4662 80.7153 13.2137C81.5935 14.0235 82.0781 15.1305 82.0761 16.3101C82.0719 18.2034 81.1047 19.9487 79.4042 21.0016C78.5374 21.5388 77.5225 21.7982 76.4993 21.7982H76.4869C74.5648 21.7941 72.7597 21.0527 71.4031 19.7097C70.0464 18.3668 69.3018 16.5827 69.306 14.6873V0.888472C69.306 0.398281 68.9031 0.00102205 68.406 0.00102205H58.2104L58.2032 0H58.2001L58.1928 0.00102205H33.594C33.0969 0.00102205 32.6951 0.398281 32.6951 0.888472V29.585L32.694 29.5922C32.6982 31.4876 31.9536 33.2717 30.5969 34.6146C29.2403 35.9575 27.4352 36.6999 25.5131 36.703H25.5017C24.4568 36.703 23.4243 36.4303 22.5451 35.8738C20.7845 34.7596 19.8266 32.8959 19.9333 30.9034C20.0513 28.6935 21.9537 26.984 24.1979 26.984H24.2041C26.2888 26.984 27.923 28.9335 27.3244 31.0832C27.1401 31.7449 26.5777 32.2096 25.9118 32.4057C25.4106 32.5538 25.1465 33.0827 25.3226 33.5597C25.4924 34.0202 26.0081 34.2572 26.4752 34.0897C28.1374 33.4933 29.2517 31.9196 29.2486 30.1743C29.2424 27.4353 26.9806 25.2101 24.2041 25.2101H24.1938Z" fill="#653C3C"/>
<path d="M86.1487 52.6158C86.1487 52.9984 86.5522 53.3077 87.0514 53.3077H101.096C101.595 53.3077 102 52.9984 102 52.6158C102 52.2332 101.595 51.9231 101.096 51.9231H87.0514C86.5522 51.9231 86.1487 52.2332 86.1487 52.6158Z" fill="#653C3C"/>
<path d="M79.9459 52.6158C79.9459 52.2332 79.5442 51.9231 79.0496 51.9231H22.9504C22.4547 51.9231 22.0541 52.2332 22.0541 52.6158C22.0541 52.9984 22.4558 53.3077 22.9504 53.3077H79.0496C79.5442 53.3077 79.9459 52.9984 79.9459 52.6158Z" fill="#653C3C"/>
<path d="M15.8514 52.6158C15.8514 52.2332 15.4467 51.9231 14.9485 51.9231H0.902825C0.40357 51.9231 0 52.2332 0 52.6158C0 52.9984 0.40461 53.3077 0.902825 53.3077H14.9485C15.4478 53.3077 15.8514 52.9984 15.8514 52.6158Z" fill="#653C3C"/>
<path d="M3.79054 46.3846C2.8384 46.3846 2.06757 47.3147 2.06757 48.4621C2.06757 49.6095 2.83937 50.5385 3.79054 50.5385C4.74269 50.5385 5.51351 49.6095 5.51351 48.4621C5.51351 47.3147 4.74172 46.3846 3.79054 46.3846Z" fill="#653C3C"/>
<path d="M7.58108 48.4621C7.58108 49.6095 8.35266 50.5385 9.30454 50.5385C10.2564 50.5385 11.027 49.6095 11.027 48.4621C11.027 47.3147 10.2554 46.3846 9.30454 46.3846C8.35266 46.3846 7.58108 47.3147 7.58108 48.4621Z" fill="#653C3C"/>
<path d="M94.4189 48.4621C94.4189 47.3147 93.6473 46.3846 92.6964 46.3846C91.7446 46.3846 90.973 47.3147 90.973 48.4621C90.973 49.6095 91.7446 50.5385 92.6964 50.5385C93.6473 50.5385 94.4189 49.6095 94.4189 48.4621Z" fill="#653C3C"/>
<path d="M99.9324 48.4621C99.9324 47.3147 99.1609 46.3846 98.209 46.3846C97.2581 46.3846 96.4865 47.3147 96.4865 48.4621C96.4865 49.6095 97.2581 50.5385 98.209 50.5385C99.1609 50.5385 99.9324 49.6095 99.9324 48.4621Z" fill="#653C3C"/>
<path d="M0.689189 65.7692H2.70878V73.8836H3.72332C4.00461 73.8836 4.24323 73.7837 4.43918 73.5839C4.6383 73.3842 4.73785 73.1479 4.73785 72.8752V65.7692H6.75745V73.8836H7.77198C8.04695 73.8836 8.28241 73.7837 8.47837 73.5839C8.67748 73.3842 8.77704 73.1479 8.77704 72.8752V65.7692H10.8061V71.434C10.8061 72.379 10.4664 73.1939 9.78683 73.8788C9.11048 74.5606 8.29821 74.9014 7.35005 74.9014H4.73785V74.578C4.34911 74.7936 3.87028 74.9014 3.30138 74.9014H0.689189V65.7692Z" fill="#653C3C"/>
<path d="M18.4862 67.7954H20.5153C21.0684 67.7954 21.5425 67.9968 21.9376 68.3995C22.3358 68.799 22.5349 69.2763 22.5349 69.8312V72.8752C22.5349 73.4238 22.3358 73.8994 21.9376 74.3021C21.5425 74.7017 21.0684 74.9014 20.5153 74.9014H18.4862C17.9332 74.9014 17.4575 74.7032 17.0593 74.3069C16.6642 73.9074 16.4667 73.4301 16.4667 72.8752V69.8312C16.4667 69.2699 16.6658 68.7911 17.064 68.3947C17.4622 67.9952 17.9363 67.7954 18.4862 67.7954ZM18.4862 69.8312V72.8752C18.4862 73.1479 18.5842 73.3842 18.7802 73.5839C18.9793 73.7837 19.2195 73.8836 19.5008 73.8836C19.7821 73.8836 20.0207 73.7837 20.2167 73.5839C20.4158 73.3842 20.5153 73.1479 20.5153 72.8752V69.8312C20.5153 69.5521 20.4142 69.3127 20.2119 69.113C20.0128 68.9132 19.7758 68.8133 19.5008 68.8133C19.2227 68.8133 18.984 68.9132 18.7849 69.113C18.5858 69.3127 18.4862 69.5521 18.4862 69.8312Z" fill="#653C3C"/>
<path d="M30.2103 67.7954H32.2394C32.7925 67.7954 33.2666 67.9968 33.6616 68.3995C34.0599 68.799 34.259 69.2763 34.259 69.8312V72.8752C34.259 73.4238 34.0599 73.8994 33.6616 74.3021C33.2666 74.7017 32.7925 74.9014 32.2394 74.9014H30.2103C29.6572 74.9014 29.1816 74.7032 28.7833 74.3069C28.3883 73.9074 28.1907 73.4301 28.1907 72.8752V69.8312C28.1907 69.2699 28.3898 68.7911 28.7881 68.3947C29.1863 67.9952 29.6604 67.7954 30.2103 67.7954ZM30.2103 69.8312V72.8752C30.2103 73.1479 30.3083 73.3842 30.5042 73.5839C30.7034 73.7837 30.9436 73.8836 31.2248 73.8836C31.5061 73.8836 31.7448 73.7837 31.9407 73.5839C32.1398 73.3842 32.2394 73.1479 32.2394 72.8752V69.8312C32.2394 69.5521 32.1382 69.3127 31.936 69.113C31.7369 68.9132 31.4998 68.8133 31.2248 68.8133C30.9467 68.8133 30.7081 68.9132 30.509 69.113C30.3099 69.3127 30.2103 69.5521 30.2103 69.8312Z" fill="#653C3C"/>
<path d="M45.983 74.9014H43.9634V73.8836C43.8844 74.5621 43.5463 74.9014 42.9489 74.9014H41.9344C41.3813 74.9014 40.9056 74.7032 40.5074 74.3069C40.1123 73.9074 39.9148 73.4301 39.9148 72.8752V69.8312C39.9148 69.2699 40.1139 68.7911 40.5121 68.3947C40.9104 67.9952 41.3844 67.7954 41.9344 67.7954H43.9634V65.7692H45.983V74.9014ZM43.9634 68.8133H42.9489C42.6708 68.8133 42.4322 68.9132 42.233 69.113C42.0339 69.3127 41.9344 69.5521 41.9344 69.8312V72.8752C41.9344 73.1479 42.0324 73.3842 42.2283 73.5839C42.4274 73.7837 42.6676 73.8836 42.9489 73.8836C43.2302 73.8836 43.4688 73.7837 43.6648 73.5839C43.8639 73.3842 43.9634 73.1479 43.9634 72.8752V68.8133Z" fill="#653C3C"/>
<path d="M57.7071 72.8752C57.6186 74.226 56.9454 74.9014 55.6875 74.9014H53.6584C53.1053 74.9014 52.6297 74.7032 52.2314 74.3069C51.8364 73.9074 51.6388 73.4301 51.6388 72.8752V67.7954C51.6388 67.25 51.8332 66.776 52.222 66.3733C52.6139 65.9706 53.0927 65.7692 53.6584 65.7692H55.6875C56.958 65.7692 57.6312 66.4446 57.7071 67.7954H56.6926C56.6135 67.1232 56.2785 66.7871 55.6875 66.7871H54.673C54.3948 66.7871 54.1562 66.887 53.9571 67.0867C53.758 67.2833 53.6584 67.5196 53.6584 67.7954V72.8752C53.6584 73.1479 53.7564 73.3842 53.9524 73.5839C54.1515 73.7837 54.3917 73.8836 54.673 73.8836H55.6875C56.2817 73.8836 56.6167 73.5475 56.6926 72.8752H57.7071Z" fill="#653C3C"/>
<path d="M65.3825 74.9014H63.3629V67.7954H65.3825V69.8312C65.4615 69.1526 65.6701 68.6437 66.0083 68.3044C66.3465 67.9651 66.8142 67.7954 67.4116 67.7954H68.4166V69.8312H66.397C66.1189 69.8312 65.8803 69.931 65.6812 70.1308C65.4821 70.3274 65.3825 70.5636 65.3825 70.8395V74.9014Z" fill="#653C3C"/>
<path d="M77.1208 70.8395V69.8312C77.1208 69.5521 77.0196 69.3127 76.8174 69.113C76.6183 68.9132 76.3812 68.8133 76.1062 68.8133H75.0917C74.4944 68.8133 74.1593 69.1526 74.0867 69.8312H73.0721C73.227 68.474 73.9002 67.7954 75.0917 67.7954H77.1208C77.6739 67.7954 78.148 67.9968 78.543 68.3995C78.9413 68.799 79.1404 69.2763 79.1404 69.8312V74.9014H77.1208V73.8836C77.0418 74.5621 76.7036 74.9014 76.1062 74.9014H75.0917C74.5386 74.9014 74.063 74.7032 73.6647 74.3069C73.2697 73.9074 73.0721 73.4301 73.0721 72.8752V72.8657C73.0721 72.3108 73.2712 71.8352 73.6695 71.4388C74.0677 71.0393 74.5418 70.8395 75.0917 70.8395H77.1208ZM77.1208 71.8574H76.1062C75.8281 71.8574 75.5895 71.9572 75.3904 72.157C75.1913 72.3536 75.0917 72.5898 75.0917 72.8657V72.8752C75.0917 73.1479 75.1897 73.3842 75.3856 73.5839C75.5848 73.7837 75.825 73.8836 76.1062 73.8836C76.3875 73.8836 76.6262 73.7837 76.8221 73.5839C77.0212 73.3842 77.1208 73.1479 77.1208 72.8752V71.8574Z" fill="#653C3C"/>
<path d="M85.8107 74.9014V68.8133H84.7962V67.7954H85.8107V67.7051C85.8107 67.1755 86.0004 66.7205 86.3796 66.34C86.7589 65.9595 87.2124 65.7692 87.7402 65.7692H89.8499V66.7871H88.75C88.4972 66.7871 88.2807 66.879 88.1005 67.063C87.9204 67.2437 87.8303 67.4577 87.8303 67.7051V67.7954H88.8448V68.8133H87.8303V74.9014H85.8107Z" fill="#653C3C"/>
<path d="M95.5199 65.7692H97.5395V67.7954H98.5541V68.8133H97.5395V72.8752C97.5395 73.2018 97.647 73.4523 97.8619 73.6267C98.0768 73.798 98.2759 73.8836 98.4592 73.8836H98.5541V74.9014H97.5395C96.9833 74.9014 96.5076 74.7032 96.1125 74.3069C95.7175 73.9074 95.5199 73.4301 95.5199 72.8752V68.8133H94.5054V67.7954H95.5199V65.7692Z" fill="#653C3C"/>
<path d="M8.75855 88.7824V85.1295H10.78V85.5366H9.56639V86.7543H10.378V87.1576H9.56639V88.7824H8.75855Z" fill="#653C3C"/>
<path d="M19.2638 85.94V88.7824H18.456V88.3752C18.4244 88.6467 18.2891 88.7824 18.0502 88.7824H17.6444C17.4231 88.7824 17.2329 88.7031 17.0736 88.5446C16.9156 88.3847 16.8365 88.1939 16.8365 87.9719V85.94H17.6444V87.9719C17.6444 88.081 17.6836 88.1755 17.7619 88.2554C17.8416 88.3353 17.9377 88.3752 18.0502 88.3752C18.1627 88.3752 18.2582 88.3353 18.3365 88.2554C18.4162 88.1755 18.456 88.081 18.456 87.9719V85.94H19.2638Z" fill="#653C3C"/>
<path d="M26.1206 88.7824H25.3128V85.94H26.1206V86.7543C26.1522 86.4828 26.2356 86.2793 26.3709 86.1435C26.5062 86.0078 26.6933 85.94 26.9322 85.94H27.3342V86.7543H26.5264C26.4152 86.7543 26.3197 86.7942 26.2401 86.8741C26.1604 86.9528 26.1206 87.0473 26.1206 87.1576V88.7824Z" fill="#653C3C"/>
<path d="M32.983 88.7824V85.94H33.7909V86.3471C33.8073 86.2101 33.849 86.108 33.916 86.0408C33.9843 85.9736 34.0778 85.94 34.1967 85.94H34.6025C34.8237 85.94 35.0134 86.0205 35.1714 86.1816C35.3307 86.3414 35.4103 86.5323 35.4103 86.7543V88.7824H34.6025V86.7543C34.6025 86.6427 34.562 86.5469 34.4811 86.467C34.4015 86.3871 34.3067 86.3471 34.1967 86.3471C34.0854 86.3471 33.99 86.3871 33.9103 86.467C33.8307 86.5469 33.7909 86.6427 33.7909 86.7543V88.7824H32.983Z" fill="#653C3C"/>
<path d="M41.4592 85.5366V85.1295H42.2671V85.5366H41.4592ZM41.4592 88.7824V85.94H42.2671V88.7824H41.4592Z" fill="#653C3C"/>
<path d="M50.3451 86.7543H49.9431C49.9076 86.4828 49.78 86.3471 49.56 86.3471C49.4171 86.3471 49.3097 86.3757 49.2376 86.4327C49.1656 86.4885 49.1295 86.5723 49.1295 86.6839C49.1295 86.8006 49.3261 86.9642 49.7193 87.1747C50.0391 87.3472 50.2231 87.4906 50.2711 87.6047C50.3204 87.7176 50.3451 87.8381 50.3451 87.9662C50.3451 88.192 50.2654 88.3847 50.1061 88.5446C49.9481 88.7031 49.7585 88.7824 49.5372 88.7824H49.1314C48.5929 88.7824 48.3236 88.5122 48.3236 87.9719H48.7294C48.761 88.2421 48.8874 88.3771 49.1087 88.3771C49.2515 88.3771 49.359 88.3486 49.431 88.2915C49.5031 88.2344 49.5391 88.1501 49.5391 88.0385C49.5391 87.9243 49.3432 87.7607 48.9513 87.5476C48.6302 87.3764 48.445 87.2337 48.3956 87.1196C48.3476 87.0054 48.3236 86.8849 48.3236 86.7581C48.3236 86.531 48.4032 86.3382 48.5625 86.1797C48.7218 86.0199 48.9114 85.94 49.1314 85.94H49.5372C50.0429 85.94 50.3122 86.2114 50.3451 86.7543Z" fill="#653C3C"/>
<path d="M56.4016 88.7824V85.1295H57.2094V86.3471C57.2258 86.2101 57.2676 86.108 57.3346 86.0408C57.4028 85.9736 57.4964 85.94 57.6152 85.94H58.021C58.2423 85.94 58.4319 86.0205 58.5899 86.1816C58.7492 86.3414 58.8289 86.5323 58.8289 86.7543V88.7824H58.021V86.7543C58.021 86.6427 57.9806 86.5469 57.8997 86.467C57.82 86.3871 57.7252 86.3471 57.6152 86.3471C57.504 86.3471 57.4085 86.3871 57.3289 86.467C57.2492 86.5469 57.2094 86.6427 57.2094 86.7543V88.7824H56.4016Z" fill="#653C3C"/>
<path d="M64.8778 85.5366V85.1295H65.6856V85.5366H64.8778ZM64.8778 88.7824V85.94H65.6856V88.7824H64.8778Z" fill="#653C3C"/>
<path d="M71.7421 88.7824V85.94H72.55V86.3471C72.5664 86.2101 72.6081 86.108 72.6751 86.0408C72.7434 85.9736 72.8369 85.94 72.9558 85.94H73.3616C73.5828 85.94 73.7725 86.0205 73.9305 86.1816C74.0898 86.3414 74.1694 86.5323 74.1694 86.7543V88.7824H73.3616V86.7543C73.3616 86.6427 73.3211 86.5469 73.2402 86.467C73.1606 86.3871 73.0658 86.3471 72.9558 86.3471C72.8445 86.3471 72.7491 86.3871 72.6694 86.467C72.5898 86.5469 72.55 86.6427 72.55 86.7543V88.7824H71.7421Z" fill="#653C3C"/>
<path d="M82.6456 85.94V89.1895C82.6456 89.4102 82.5654 89.6005 82.4048 89.7603C82.2455 89.9201 82.0565 90 81.8378 90H81.0262C80.5496 90 80.2803 89.7298 80.2183 89.1895H80.6242C80.6431 89.4584 80.7771 89.5929 81.0262 89.5929H81.432C81.542 89.5929 81.6368 89.5529 81.7164 89.473C81.7974 89.3944 81.8378 89.2999 81.8378 89.1895V88.3752C81.8062 88.6467 81.6709 88.7824 81.432 88.7824H81.0262C80.8049 88.7824 80.6147 88.7031 80.4554 88.5446C80.2974 88.3847 80.2183 88.1939 80.2183 87.9719V86.7543C80.2183 86.5298 80.298 86.3382 80.4573 86.1797C80.6166 86.0199 80.8062 85.94 81.0262 85.94H82.6456ZM81.8378 86.3471H81.432C81.3207 86.3471 81.2253 86.3871 81.1456 86.467C81.066 86.5469 81.0262 86.6427 81.0262 86.7543V87.9719C81.0262 88.081 81.0654 88.1755 81.1438 88.2554C81.2234 88.3353 81.3195 88.3752 81.432 88.3752C81.5445 88.3752 81.64 88.3353 81.7183 88.2554C81.798 88.1755 81.8378 88.081 81.8378 87.9719V86.3471Z" fill="#653C3C"/>
<path d="M90.716 86.7543H90.314C90.2786 86.4828 90.1509 86.3471 89.931 86.3471C89.7881 86.3471 89.6807 86.3757 89.6086 86.4327C89.5365 86.4885 89.5005 86.5723 89.5005 86.6839C89.5005 86.8006 89.6971 86.9642 90.0903 87.1747C90.4101 87.3472 90.5941 87.4906 90.6421 87.6047C90.6914 87.7176 90.716 87.8381 90.716 87.9662C90.716 88.192 90.6364 88.3847 90.4771 88.5446C90.3191 88.7031 90.1294 88.7824 89.9082 88.7824H89.5024C88.9638 88.7824 88.6946 88.5122 88.6946 87.9719H89.1004C89.132 88.2421 89.2584 88.3771 89.4796 88.3771C89.6225 88.3771 89.73 88.3486 89.802 88.2915C89.8741 88.2344 89.9101 88.1501 89.9101 88.0385C89.9101 87.9243 89.7142 87.7607 89.3223 87.5476C89.0011 87.3764 88.8159 87.2337 88.7666 87.1196C88.7186 87.0054 88.6946 86.8849 88.6946 86.7581C88.6946 86.531 88.7742 86.3382 88.9335 86.1797C89.0928 86.0199 89.2824 85.94 89.5024 85.94H89.9082C90.4139 85.94 90.6832 86.2114 90.716 86.7543Z" fill="#653C3C"/>
</svg>
