<svg width="78" height="61" viewBox="0 0 78 61" fill="none" xmlns="http://www.w3.org/2000/svg">
<path d="M61.2264 47.1091C60.8978 47.1054 60.0688 47.0944 59.4097 47.7956C58.7451 48.5022 58.7195 49.4407 58.7177 49.647V53.0595C56.89 52.583 54.4013 52.1265 51.4343 52.1265C48.4746 52.1283 45.9932 52.583 44.1674 53.0595V49.647C44.1692 49.479 44.1619 48.5259 43.4754 47.7956C42.829 47.1091 42.0384 47.1054 41.8029 47.1091C40.627 47.1237 39.904 48.0731 39.7962 48.2192C39.8492 48.0731 40.2253 47.0926 41.2496 46.7347C42.4237 46.3239 43.4334 47.0871 43.5794 47.2003C44.4869 47.9106 44.622 49.0335 44.7407 50.0359C44.8721 51.1387 44.7133 52.0444 44.5764 52.5939C46.1247 52.0736 48.4417 51.4875 51.301 51.4619C54.2534 51.4345 56.6471 52.0151 58.2247 52.5264C58.0129 51.4546 58.0695 50.5837 58.1443 50.0359C58.2795 49.0426 58.4054 48.1334 59.1559 47.4669C59.8844 46.8224 60.759 46.8023 60.8868 46.8005C62.1448 46.7914 62.9665 47.7098 62.9464 47.7426C62.9281 47.7737 62.2452 47.1218 61.2264 47.1091ZM44.6786 54.7247C46.6889 54.4855 48.9584 54.3249 51.4453 54.3249C53.9248 54.3249 56.1888 54.4855 58.1936 54.7247H44.6786ZM63.3864 48.7998C63.3134 47.3957 63.0504 46.8023 62.7875 46.4024C61.8344 44.96 60.3938 45.2339 59.9246 44.1639C59.2362 42.5973 61.8362 40.8792 61.1223 39.4094C60.6677 38.4691 59.1504 38.2353 58.3781 38.2372C56.9502 38.2427 56.7238 39.0625 55.5808 39.0643C53.6016 39.0679 53.1725 36.6176 51.4379 36.6176C49.7034 36.6176 49.2743 39.0679 47.2951 39.0643C46.1521 39.0625 45.9257 38.2427 44.4978 38.2372C43.7237 38.2353 42.2082 38.4691 41.7517 39.4094C41.0396 40.8792 43.6379 42.5955 42.9495 44.1639C42.4803 45.2339 41.0397 44.96 40.0866 46.4024C39.5424 47.2259 39.4658 48.1443 39.4877 48.7998C39.411 50.2477 39.4512 53.3754 41.2478 56.6565C41.9708 57.9766 42.8107 59.0119 43.5776 59.7988V60.8505H44.7096C44.7096 60.4744 44.7096 60.0964 44.7096 59.7185C45.2629 59.2182 47.7278 57.102 51.5 57.1221C55.1828 57.1422 57.5875 59.1853 58.1571 59.6966C58.1571 60.0818 58.1571 60.4652 58.1571 60.8505C58.5351 60.8505 58.9112 60.8505 59.2892 60.8505V59.7495C60.4376 58.5189 61.1698 57.3503 61.619 56.5232C61.8801 56.0412 63.5945 52.7893 63.3864 48.7998Z" fill="#653C3C"/>
<path d="M35.2085 59.9559H31.5769V40.1781C31.7923 40.1708 32.0041 40.1562 32.2086 40.1361V46.806C32.0827 46.8389 31.9877 46.9521 31.9877 47.0872C31.9877 47.1949 32.0461 47.288 32.1338 47.3373L32.1137 47.3738L31.9475 47.6678C31.9804 47.6952 32.1082 47.7974 32.2945 47.792C32.4643 47.7865 32.5775 47.697 32.6122 47.6678L32.446 47.3738L32.4241 47.3373C32.5117 47.2862 32.5702 47.1931 32.5702 47.0872C32.5702 46.9502 32.477 46.837 32.3511 46.806V40.1233C34.1367 39.9298 35.4623 39.3291 36.1324 38.9785L32.9792 31.9599H29.4333L26.2801 38.9785C27.0634 39.3875 28.6719 40.1033 30.8338 40.1781V59.9559H27.2021C26.9666 59.9559 26.7767 60.1403 26.7767 60.3667C26.7767 60.5931 26.9666 60.7775 27.2021 60.7775H35.2067C35.4422 60.7775 35.6321 60.5931 35.6321 60.3667C35.634 60.1403 35.4441 59.9559 35.2085 59.9559Z" fill="#653C3C"/>
<path d="M6.86707 60.8487H7.67593C3.24821 54.6207 0.642702 47.0123 0.642702 38.8068C0.642702 17.782 17.7474 0.679158 38.7704 0.679158C59.7934 0.679158 76.8981 17.7838 76.8981 38.8068C76.8981 47.0123 74.2926 54.6207 69.8649 60.8487H70.6737C72.1782 58.6759 73.4545 56.3534 74.4934 53.8976C76.5147 49.1175 77.5408 44.0398 77.5408 38.8068C77.5408 33.5739 76.5147 28.4962 74.4934 23.7161C72.5397 19.1003 69.7462 14.9538 66.1839 11.3933C62.6235 7.83289 58.4769 5.03749 53.8612 3.08565C49.081 1.06441 44.0033 0.0382778 38.7704 0.0382778C33.5356 0.0382778 28.4597 1.06441 23.6796 3.08565C19.062 5.03932 14.9173 7.83289 11.3569 11.3933C7.79644 14.9538 5.00104 19.1003 3.04737 23.7161C1.02614 28.4962 0 33.5739 0 38.8068C0 44.0398 1.02431 49.1175 3.04737 53.8976C4.08628 56.3534 5.36256 58.6759 6.86707 60.8487Z" fill="#653C3C"/>
<path d="M8.66746 60.8487H8.09596V0H8.66746V60.8487Z" fill="#653C3C"/>
<path d="M11.235 60.8487H10.6653V0H11.235V60.8487Z" fill="#653C3C"/>
<path d="M13.8036 60.8487H13.2321V0H13.8036V60.8487Z" fill="#653C3C"/>
<path d="M16.3711 60.8487H15.8014V0H16.3711V60.8487Z" fill="#653C3C"/>
<path d="M18.9397 60.8487H18.3682V0H18.9397V60.8487Z" fill="#653C3C"/>
<path d="M21.5072 60.8487H20.9375V0H21.5072V60.8487Z" fill="#653C3C"/>
</svg>
