<svg width="77" height="77" viewBox="0 0 77 77" fill="none" xmlns="http://www.w3.org/2000/svg">
<mask id="mask0_1_14689" style="mask-type:luminance" maskUnits="userSpaceOnUse" x="1" y="1" width="76" height="75">
<path d="M76.0035 38.4041C76.0035 17.7462 59.2572 1 38.5994 1C17.9416 1 1.19531 17.7462 1.19531 38.4041C1.19531 59.0619 17.9416 75.8082 38.5994 75.8082C59.2572 75.8082 76.0035 59.0619 76.0035 38.4041Z" fill="white"/>
</mask>
<g mask="url(#mask0_1_14689)">
<path d="M19.6165 34.105V74.0409M96.4846 58.6874H96.5139L96.5106 56.3867C96.5073 52.9437 99.2962 50.1516 102.736 50.1483L102.726 42.8296C102.72 38.9408 99.5663 35.7907 95.6775 35.8004L45.5527 35.859C41.6671 35.8623 38.5203 39.0221 38.5235 42.9077L38.5333 50.2264C41.973 50.2232 44.7651 53.0088 44.7684 56.4485M96.4846 58.6874C96.2893 57.3109 95.1113 56.2533 93.6794 56.2533M96.4846 58.6874C96.2893 57.3109 95.1113 56.25 93.6794 56.2533M96.4846 58.6874C96.5041 58.8176 96.5139 58.9478 96.5139 59.0812L96.5171 60.6009C96.5171 60.9849 96.4423 61.3494 96.3023 61.6846C95.8825 62.7129 94.8705 63.4353 93.6924 63.4353L44.7782 63.4907M93.6794 56.2533L47.5996 56.3086M47.5996 56.3086C46.1677 56.3118 44.9897 57.3727 44.8009 58.7493M47.5996 56.3086C46.171 56.3118 44.9897 57.3727 44.8009 58.7493M44.8009 58.7493H44.7717L44.7684 56.4485M44.8009 58.7493C44.7814 58.8794 44.7717 59.0096 44.7717 59.143L44.7782 63.4907M44.7684 56.4485L44.7912 76.7679M44.7684 56.4485C44.7651 53.0088 41.973 50.2199 38.5301 50.2264C35.0871 50.2329 32.3015 53.0251 32.3047 56.4648L32.3307 76.7842L44.7912 76.7679M44.7912 76.7679L96.5334 76.7061L96.5171 62.8886C96.5171 62.4623 96.4423 62.0556 96.2991 61.6813C95.8793 62.7097 94.8672 63.4288 93.6892 63.4321L44.7782 63.4907M44.7912 76.7679L44.7782 63.4907M54.7686 44.896L57.1442 47.2716M54.7686 47.2749L57.1442 44.8993M38.9694 31.1306H70.6297M38.9694 31.1306V2.96856M38.9694 31.1306L43.1478 26.9522M70.6297 31.1306V2.96856M70.6297 31.1306L66.0576 26.9522M70.6297 2.96856H38.9694M70.6297 2.96856L66.0576 7.15349M38.9694 2.96856L43.1478 7.15349M43.1478 26.9522H66.0576M43.1478 26.9522V7.15349M66.0576 26.9522V7.15349M66.0576 7.15349H43.1478M87.7697 76.7354H-21.5527M9.8831 34.105L14.2503 16.6331H24.9827L29.3499 34.105H9.8831ZM9.8831 76.5336H29.3531C29.3531 75.1538 28.2369 74.0376 26.8571 74.0376H12.3791C10.9993 74.0376 9.8831 75.1571 9.8831 76.5336ZM57.8309 -1.98438L53.7305 2.97181H61.9312L57.8309 -1.98438Z" stroke="#653C3C" stroke-width="2" stroke-miterlimit="10" stroke-linecap="round" stroke-linejoin="round"/>
</g>
<path d="M75.9953 38.4976C75.9953 17.7881 59.2072 1 38.4976 1C17.7881 1 1 17.7881 1 38.4976C1 59.2072 17.7881 75.9953 38.4976 75.9953C59.2072 75.9953 75.9953 59.2072 75.9953 38.4976Z" stroke="#653C3C" stroke-width="2" stroke-miterlimit="10" stroke-linecap="round" stroke-linejoin="round"/>
</svg>
