<svg width="60" height="60" viewBox="0 0 60 60" fill="none" xmlns="http://www.w3.org/2000/svg">
<path fill-rule="evenodd" clip-rule="evenodd" d="M4.53215 4.53153C5.73798 3.32502 6.58113 1.75517 6.88226 0H0V6.88235C1.75581 6.58122 3.32631 5.73738 4.53215 4.53153ZM58.3799 8.82614L60 8.75599V0H58.1456C58.0741 3.02786 57.7756 6.00013 57.268 8.90026L58.3799 8.82614ZM57.3084 15.8223C58.2157 15.7416 59.1138 15.686 60 15.6562V11.6277L58.5367 11.6885C57.9232 11.7236 57.3037 11.7713 56.679 11.8308C56.3573 13.2438 55.9861 14.6383 55.5658 16.0116C56.1429 15.9375 56.7233 15.8746 57.3084 15.8223ZM55.4142 22.9998C56.9298 22.7642 58.4599 22.6153 60 22.5577V18.5285C59.1615 18.5543 58.3461 18.6033 57.5552 18.6735C56.544 18.7641 55.54 18.8906 54.5459 19.0507C53.99 20.5709 53.3732 22.062 52.6995 23.5214C53.5916 23.3162 54.4976 23.1421 55.4142 22.9998ZM47.4737 32.6268C51.2885 30.7757 55.5241 29.6585 60 29.4606V25.4321C58.5817 25.4863 57.1979 25.62 55.8524 25.8292C54.1939 26.0866 52.5678 26.4592 50.9853 26.9384C49.9198 28.904 48.7464 30.8028 47.4737 32.6268ZM8.75588 60L8.82603 58.3798L8.90081 57.268C6.00071 57.7756 3.02849 58.0734 0 58.1456V60H8.75588ZM15.6567 60C15.6865 59.1145 15.7414 58.2164 15.8221 57.3097C15.8744 56.7246 15.938 56.1435 16.0121 55.5658C14.6388 55.9854 13.245 56.3573 11.8307 56.679C11.7711 57.3037 11.7235 57.9232 11.6891 58.536L11.6282 60H15.6567ZM22.5575 60C22.6157 58.4599 22.7646 56.9298 23.0002 55.4142C23.1425 54.4976 23.3173 53.5915 23.5211 52.6994C22.0618 53.3725 20.5714 53.9893 19.0518 54.5459C18.891 55.5406 18.7646 56.5446 18.6746 57.5572C18.6038 58.3474 18.5548 59.1621 18.529 60H22.5575ZM55.4678 55.4685C54.2614 56.6743 53.4188 58.2448 53.1177 60H60V53.1176C58.2449 53.4188 56.6744 54.262 55.4678 55.4685ZM43.2804 60C43.6285 55.5446 45.5803 51.5372 48.5584 48.559C51.5373 45.5801 55.5446 43.6277 60 43.2802V39.2464C54.4321 39.6011 49.4208 42.0056 45.7133 45.7131C42.0057 49.4207 39.6014 54.432 39.2466 60H43.2804ZM50.5909 50.5908C48.1322 53.0488 46.5048 56.3374 46.1646 60H50.2123C50.536 57.45 51.708 55.1647 53.4361 53.4367C55.1641 51.708 57.45 50.5359 60 50.2129V46.1645C56.3375 46.5047 53.0489 48.1328 50.5909 50.5908ZM40.8357 40.8354C35.8793 45.7919 32.7005 52.5266 32.3379 60H36.3671C36.7264 53.6385 39.4531 47.9091 43.6808 43.6813C47.9092 39.4536 53.6386 36.7262 60 36.3674V32.3376C52.5261 32.7009 45.792 35.8797 40.8357 40.8354ZM32.6271 47.4743C30.8031 48.7469 28.9037 49.9197 26.9388 50.9859C26.4596 52.5677 26.087 54.1938 25.8289 55.8523C25.6197 57.1978 25.4867 58.5817 25.4324 60H29.4609C29.6588 55.5247 30.7753 51.2877 32.6271 47.4743ZM35.829 35.8294C26.6072 45.0506 13.9823 50.8708 0 51.2453V55.2706C15.0935 54.896 28.7237 48.6245 38.6741 38.6739C48.624 28.7233 54.8954 15.0936 55.2706 0H51.2448C50.8715 13.9824 45.0508 26.6068 35.829 35.8294ZM30.9514 30.951C22.9778 38.9254 12.0769 43.9719 0 44.3438V48.3697C13.1888 47.9964 25.0956 42.498 33.7972 33.7969C42.4982 25.0952 47.9966 13.1889 48.3698 0H44.344C43.9714 12.0764 38.9256 22.9773 30.9514 30.951ZM26.0737 26.074C19.349 32.7989 10.1722 37.0736 0 37.4429V41.4688C11.284 41.0975 21.4655 36.3727 28.9196 28.9192C36.373 21.4657 41.0977 11.2835 41.469 0H37.4432C37.0739 10.1716 32.7992 19.3485 26.0737 26.074ZM21.1968 21.1957C15.7202 26.673 8.26746 30.1741 0 30.5394V34.5666C9.37932 34.1986 17.8367 30.2462 24.042 24.0416C30.2472 17.8369 34.1989 9.37877 34.5669 0H30.5397C30.1744 8.26689 26.6733 15.7197 21.1968 21.1957ZM16.3191 16.3187C12.0908 20.5465 6.36208 23.2738 0 23.6326V27.6624C7.47394 27.2991 14.208 24.1203 19.1643 19.1639C24.1207 14.2081 27.2994 7.47336 27.6621 0H23.6329C23.2736 6.36149 20.5469 12.0909 16.3191 16.3187ZM11.4415 11.4417C8.46336 14.4199 4.45604 16.3716 0 16.7198V20.7536C5.56856 20.3989 10.5799 17.9938 14.2874 14.2869C17.9942 10.5793 20.3986 5.56796 20.754 0H16.7202C16.3721 4.45543 14.4204 8.4628 11.4415 11.4417ZM9.78764 0C9.46468 2.55002 8.29259 4.83532 6.56392 6.56335C4.8359 8.29205 2.55 9.46348 0 9.78711V13.8355C3.66252 13.4953 6.95108 11.8672 9.40975 9.40921C11.8677 6.95118 13.4952 3.66189 13.8354 0H9.78764Z" fill="#653C3C"/>
</svg>
