<svg width="162" height="67" viewBox="0 0 162 67" fill="none" xmlns="http://www.w3.org/2000/svg">
<path d="M19.6928 64.8652C22.3667 62.4617 25.0129 58.6727 25.6953 55.8168C26.3359 53.1448 25.4724 49.7799 24.7065 46.8109C24.3444 45.3971 23.9962 44.054 23.9405 43.1633C23.7734 40.4912 12.3393 9.95316 9.41464 2.14898H15.5147C17.0327 5.96624 24.5951 25.0667 26.6145 31.9519L27.3108 34.3271C29.0099 40.1519 29.4556 41.7212 32.1435 45.7223C32.4081 46.1182 32.6866 46.5282 32.9652 46.9664C35.5695 50.9392 39.288 56.6368 44.1486 56.6368C45.026 56.6368 45.9451 56.453 46.8922 56.043C53.215 53.3003 55.499 50.9958 57.9641 44.8457C59.315 41.4809 61.1812 38.9643 62.8107 36.7588C63.1867 36.264 63.5349 35.7691 63.897 35.2743V64.8652H19.6928ZM2.1169 62.2214C2.78539 61.7407 3.35641 60.9914 3.98312 60.1572C4.72125 59.1817 5.54294 58.0789 6.57354 57.471C12.9242 53.5265 10.0971 47.843 9.16396 45.9768C9.03862 45.7364 8.94112 45.5385 8.91326 45.4678C8.74614 44.5064 3.76029 31.4146 2.13083 27.1026V16.9797C5.22262 25.4908 10.8073 40.9295 11.6987 43.644C11.8936 44.2095 12.1304 44.8599 12.395 45.5527C14.1916 50.3313 15.4172 54.4737 12.1165 56.7499C9.48427 58.5596 7.84089 60.242 6.39248 61.7407C5.1112 63.0555 4.09453 64.0876 2.75754 64.851H2.13083V62.2214H2.1169ZM2.1169 33.0688C4.33129 38.9219 6.67102 45.1992 6.82422 45.8495C6.87992 46.1606 7.03313 46.4575 7.26989 46.9523C8.774 49.9496 9.5957 53.0882 5.48724 55.633C4.12239 56.453 3.16142 57.7255 2.31187 58.8565L2.1169 59.111V33.0688ZM14.3448 44.7892C14.0941 44.1247 13.8573 43.5026 13.6763 42.9654C12.4646 39.3036 3.06393 13.417 2.10297 10.8014V2.14898H2.29794C4.24772 7.05486 16.5174 38.1585 17.158 44.3368C17.3112 45.8071 17.6873 47.1644 18.0633 48.5075C19.4699 53.5406 20.6816 57.881 7.92446 64.8793H6.23928C6.78244 64.3845 7.31167 63.8472 7.85482 63.2817C9.23359 61.8538 10.7934 60.242 13.2585 58.5596C18.2444 55.1099 15.8907 48.9034 14.3448 44.7892ZM15.9882 64.8652H12.1443C22.9378 58.0082 21.5033 52.8761 20.1106 47.9137C19.7485 46.613 19.4003 45.383 19.2749 44.1106C18.6343 37.8616 7.33953 9.0766 4.59591 2.14898H7.14453C12.8546 17.3049 21.6704 41.3254 21.8236 43.3047C21.8932 44.3933 22.2414 45.7647 22.6592 47.3623C23.3277 49.9496 24.1633 53.173 23.6341 55.322C22.8681 58.5172 18.7039 63.6776 15.9882 64.8652ZM39.9008 2.13484H52.839C52.4351 2.92656 52.1426 3.81726 51.8223 4.79278C51.3627 6.17831 50.8474 7.74763 49.8725 9.34522C48.9116 10.9287 47.7417 11.8476 46.5997 11.9183C45.3463 11.989 44.3435 11.0983 43.7168 10.3207C42.157 8.35556 40.6389 4.28381 39.9008 2.13484ZM42.0874 11.6639C43.3269 13.219 44.8727 14.0532 46.4465 14.0532L46.739 14.039C48.0481 13.9542 49.9561 13.2614 51.6691 10.448C52.7693 8.63832 53.3264 6.94176 53.8139 5.44313C54.3013 3.95864 54.7052 2.79932 55.4712 2.1207H58.0338C56.3625 5.34417 54.176 11.4659 54.0646 14.1239C53.9531 16.7394 52.2819 18.4218 50.2625 20.1891C49.4269 20.9242 48.8002 21.8998 48.2013 22.8611C47.2264 24.4022 46.2933 25.8584 44.5942 26.2119C42.8534 26.5794 41.2239 20.1467 40.6111 17.7291C40.3883 16.8384 40.1794 16.0608 40.0122 15.4953C39.2602 13.0918 36.0013 5.40072 34.6086 2.10656H37.6586C38.2992 4.07175 40.0958 9.1897 42.0874 11.6639ZM63.897 7.9597C63.3121 9.13315 60.7495 14.449 60.6242 18.8035C60.5267 22.338 58.5212 24.9253 56.4043 27.6539C56.0004 28.177 55.5965 28.7001 55.2066 29.2233C54.2317 30.5381 53.7582 32.0226 53.2568 33.5919C52.4072 36.2074 51.5438 38.9078 48.2152 41.2406C47.1428 41.9899 46.2655 42.2726 45.5273 42.103C44.0371 41.7637 42.7976 39.5157 41.4746 37.1547C40.6668 35.6985 39.8172 34.1998 38.7867 32.8426C36.238 29.4919 35.862 27.9508 35.1656 25.1515C34.8732 23.9922 34.5529 22.6774 34.0097 20.9667C32.4917 16.188 28.0211 6.00865 26.3081 2.13484H32.3245C33.383 4.62312 37.2268 13.6573 38.0207 16.1739C38.1878 16.7111 38.3828 17.4463 38.5917 18.2946C39.678 22.5925 41.1542 28.4032 44.4271 28.4032C44.6221 28.4032 44.8171 28.3891 45.026 28.3467C47.6025 27.8236 48.8698 25.816 49.984 24.0487C50.5271 23.1863 51.0424 22.3663 51.6552 21.8432C53.3961 20.3163 56.0144 18.0118 56.1675 14.2511C56.2929 11.5083 59.1758 4.08588 60.4571 2.14898H63.9109V7.9597H63.897ZM63.897 31.245C63.2424 32.6022 62.2676 33.9453 61.1256 35.4722C59.4125 37.7909 57.4767 40.4206 56.0144 44.0399C53.7443 49.6809 51.878 51.5472 46.0565 54.0779C41.8088 55.9299 38.2574 51.2078 34.72 45.793C34.4275 45.3406 34.149 44.9164 33.8844 44.5206C31.3775 40.7881 30.9875 39.4309 29.3302 33.7191L28.6339 31.344C26.6702 24.6708 19.846 7.33762 17.7848 2.14898H23.9962C25.2496 4.96244 30.4165 16.5839 32.0181 21.6311C32.5334 23.2712 32.8538 24.5577 33.1323 25.6887C33.8426 28.5588 34.3022 30.4533 37.1294 34.1716C38.0625 35.4157 38.8702 36.8436 39.6501 38.2292C41.21 41.0144 42.6723 43.644 45.0677 44.1954C45.3741 44.2661 45.6805 44.2944 45.9869 44.2944C47.0732 44.2944 48.2013 43.8702 49.4269 43.0078C53.3404 40.265 54.4128 36.9426 55.2762 34.2705C55.7497 32.8143 56.1536 31.5419 56.9196 30.5239C57.2956 30.015 57.6995 29.506 58.0895 28.9829C60.2203 26.2401 62.6436 23.1298 62.7689 18.8742C62.8246 17.1353 63.326 15.1701 63.9249 13.4452V31.245H63.897ZM0 0V67H66V0H0Z" fill="#653C3C"/>
<path d="M89.579 24.78H93.807L100.191 33.908H95.459L89.579 24.78ZM85.127 14.308H89.131V33.908H85.127V14.308ZM87.563 17.724V14.308H91.707C93.2563 14.308 94.5723 14.5693 95.655 15.092C96.7376 15.6147 97.5683 16.3427 98.147 17.276C98.7256 18.2093 99.015 19.3013 99.015 20.552C99.015 21.784 98.7256 22.876 98.147 23.828C97.5683 24.7613 96.7376 25.4893 95.655 26.012C94.5723 26.5347 93.2563 26.796 91.707 26.796H87.563V23.604H91.455C92.1643 23.604 92.771 23.492 93.275 23.268C93.7976 23.0253 94.199 22.6893 94.479 22.26C94.759 21.812 94.899 21.28 94.899 20.664C94.899 20.048 94.759 19.5253 94.479 19.096C94.199 18.648 93.7976 18.312 93.275 18.088C92.771 17.8453 92.1643 17.724 91.455 17.724H87.563Z" fill="#653C3C"/>
<path d="M105.906 28.868C105.906 29.708 106.074 30.3613 106.41 30.828C106.746 31.276 107.288 31.5 108.034 31.5C108.557 31.5 109.005 31.3973 109.378 31.192C109.77 30.968 110.069 30.66 110.274 30.268C110.498 29.876 110.61 29.4093 110.61 28.868V21.028H114.222V33.908H110.61V31.948C110.2 32.676 109.677 33.236 109.042 33.628C108.408 34.0013 107.633 34.188 106.718 34.188C105.188 34.188 104.04 33.7493 103.274 32.872C102.528 31.9947 102.154 30.7907 102.154 29.26V21.028H105.906V28.868Z" fill="#653C3C"/>
<path d="M118.439 29.456C118.98 29.96 119.484 30.3707 119.951 30.688C120.418 30.9867 120.856 31.2107 121.267 31.36C121.696 31.5093 122.098 31.584 122.471 31.584C122.956 31.584 123.33 31.4813 123.591 31.276C123.852 31.052 123.983 30.7533 123.983 30.38C123.983 30.044 123.871 29.764 123.647 29.54C123.442 29.2973 123.134 29.0827 122.723 28.896C122.312 28.7093 121.79 28.5133 121.155 28.308C120.558 28.084 119.979 27.8227 119.419 27.524C118.859 27.2067 118.392 26.796 118.019 26.292C117.664 25.7693 117.487 25.1067 117.487 24.304C117.487 23.5387 117.692 22.8947 118.103 22.372C118.514 21.8307 119.064 21.4293 119.755 21.168C120.464 20.888 121.248 20.748 122.107 20.748C122.835 20.748 123.516 20.8413 124.151 21.028C124.786 21.2147 125.374 21.4667 125.915 21.784C126.456 22.0827 126.932 22.4373 127.343 22.848L125.747 25.088C125.28 24.584 124.72 24.1733 124.067 23.856C123.432 23.5387 122.807 23.38 122.191 23.38C121.78 23.38 121.454 23.464 121.211 23.632C120.987 23.7813 120.875 24.0147 120.875 24.332C120.875 24.612 120.987 24.864 121.211 25.088C121.454 25.2933 121.79 25.48 122.219 25.648C122.667 25.816 123.171 26.0213 123.731 26.264C124.422 26.5253 125.056 26.824 125.635 27.16C126.232 27.4773 126.708 27.8787 127.063 28.364C127.418 28.8493 127.595 29.484 127.595 30.268C127.595 31.556 127.175 32.564 126.335 33.292C125.495 34.0013 124.338 34.356 122.863 34.356C121.948 34.356 121.108 34.2347 120.343 33.992C119.596 33.7493 118.915 33.432 118.299 33.04C117.702 32.6293 117.16 32.1907 116.675 31.724L118.439 29.456Z" fill="#653C3C"/>
<path d="M128.448 21.028H136.4V24.08H128.448V21.028ZM130.66 16.548H134.16V33.908H130.66V16.548Z" fill="#653C3C"/>
<path d="M138.162 16.044C138.162 15.4467 138.377 14.9613 138.806 14.588C139.235 14.196 139.749 14 140.346 14C140.943 14 141.447 14.196 141.858 14.588C142.287 14.9613 142.502 15.4467 142.502 16.044C142.502 16.6227 142.287 17.108 141.858 17.5C141.447 17.892 140.943 18.088 140.346 18.088C139.749 18.088 139.235 17.892 138.806 17.5C138.377 17.108 138.162 16.6227 138.162 16.044ZM138.554 21.028H142.082V33.908H138.554V21.028Z" fill="#653C3C"/>
<path d="M148.676 27.468C148.676 28.2147 148.844 28.868 149.18 29.428C149.516 29.988 149.964 30.4267 150.524 30.744C151.102 31.0613 151.737 31.22 152.428 31.22C152.988 31.22 153.529 31.136 154.052 30.968C154.574 30.7813 155.041 30.5387 155.452 30.24C155.881 29.9227 156.208 29.5587 156.432 29.148V32.872C155.984 33.2827 155.396 33.6093 154.668 33.852C153.958 34.076 153.128 34.188 152.176 34.188C150.813 34.188 149.581 33.908 148.48 33.348C147.397 32.788 146.538 32.004 145.904 30.996C145.288 29.9693 144.98 28.7933 144.98 27.468C144.98 26.124 145.288 24.948 145.904 23.94C146.538 22.932 147.397 22.148 148.48 21.588C149.581 21.028 150.813 20.748 152.176 20.748C153.128 20.748 153.958 20.8693 154.668 21.112C155.396 21.336 155.984 21.644 156.432 22.036V25.76C156.208 25.3493 155.872 24.9947 155.424 24.696C154.994 24.3787 154.518 24.136 153.996 23.968C153.473 23.8 152.95 23.716 152.428 23.716C151.737 23.716 151.102 23.884 150.524 24.22C149.964 24.5373 149.516 24.976 149.18 25.536C148.844 26.096 148.676 26.74 148.676 27.468Z" fill="#653C3C"/>
<path d="M82.1055 49.0779H83.4355L86.9355 53.9079H85.4655L82.1055 49.0779ZM80.3555 44.1079H81.5455V53.9079H80.3555V44.1079ZM81.0135 45.1579V44.1079H83.0155C83.6501 44.1079 84.2148 44.2292 84.7095 44.4719C85.2135 44.7052 85.6101 45.0412 85.8995 45.4799C86.1981 45.9186 86.3475 46.4412 86.3475 47.0479C86.3475 47.6452 86.1981 48.1679 85.8995 48.6159C85.6101 49.0546 85.2135 49.3952 84.7095 49.6379C84.2148 49.8712 83.6501 49.9879 83.0155 49.9879H81.0135V48.9379H83.0155C83.4355 48.9379 83.8041 48.8632 84.1215 48.7139C84.4481 48.5646 84.7001 48.3499 84.8775 48.0699C85.0641 47.7899 85.1575 47.4492 85.1575 47.0479C85.1575 46.6466 85.0641 46.3059 84.8775 46.0259C84.7001 45.7459 84.4481 45.5312 84.1215 45.3819C83.8041 45.2326 83.4355 45.1579 83.0155 45.1579H81.0135Z" fill="#653C3C"/>
<path d="M100.159 50.6879C100.159 50.0346 100.304 49.4559 100.593 48.9519C100.892 48.4479 101.293 48.0512 101.797 47.7619C102.301 47.4726 102.866 47.3279 103.491 47.3279C104.126 47.3279 104.691 47.4726 105.185 47.7619C105.689 48.0512 106.086 48.4479 106.375 48.9519C106.674 49.4559 106.823 50.0346 106.823 50.6879C106.823 51.3319 106.674 51.9106 106.375 52.4239C106.086 52.9279 105.689 53.3246 105.185 53.6139C104.691 53.9032 104.126 54.0479 103.491 54.0479C102.866 54.0479 102.301 53.9032 101.797 53.6139C101.293 53.3246 100.892 52.9279 100.593 52.4239C100.304 51.9106 100.159 51.3319 100.159 50.6879ZM101.293 50.6879C101.293 51.1359 101.387 51.5326 101.573 51.8779C101.769 52.2232 102.031 52.4986 102.357 52.7039C102.693 52.8999 103.071 52.9979 103.491 52.9979C103.911 52.9979 104.285 52.8999 104.611 52.7039C104.947 52.4986 105.209 52.2232 105.395 51.8779C105.591 51.5326 105.689 51.1359 105.689 50.6879C105.689 50.2399 105.591 49.8432 105.395 49.4979C105.209 49.1432 104.947 48.8679 104.611 48.6719C104.285 48.4759 103.911 48.3779 103.491 48.3779C103.071 48.3779 102.693 48.4759 102.357 48.6719C102.031 48.8679 101.769 49.1432 101.573 49.4979C101.387 49.8432 101.293 50.2399 101.293 50.6879Z" fill="#653C3C"/>
<path d="M120.402 50.6879C120.402 50.0346 120.547 49.4559 120.836 48.9519C121.135 48.4479 121.536 48.0512 122.04 47.7619C122.544 47.4726 123.109 47.3279 123.734 47.3279C124.369 47.3279 124.933 47.4726 125.428 47.7619C125.932 48.0512 126.329 48.4479 126.618 48.9519C126.917 49.4559 127.066 50.0346 127.066 50.6879C127.066 51.3319 126.917 51.9106 126.618 52.4239C126.329 52.9279 125.932 53.3246 125.428 53.6139C124.933 53.9032 124.369 54.0479 123.734 54.0479C123.109 54.0479 122.544 53.9032 122.04 53.6139C121.536 53.3246 121.135 52.9279 120.836 52.4239C120.547 51.9106 120.402 51.3319 120.402 50.6879ZM121.536 50.6879C121.536 51.1359 121.629 51.5326 121.816 51.8779C122.012 52.2232 122.273 52.4986 122.6 52.7039C122.936 52.8999 123.314 52.9979 123.734 52.9979C124.154 52.9979 124.527 52.8999 124.854 52.7039C125.19 52.4986 125.451 52.2232 125.638 51.8779C125.834 51.5326 125.932 51.1359 125.932 50.6879C125.932 50.2399 125.834 49.8432 125.638 49.4979C125.451 49.1432 125.19 48.8679 124.854 48.6719C124.527 48.4759 124.154 48.3779 123.734 48.3779C123.314 48.3779 122.936 48.4759 122.6 48.6719C122.273 48.8679 122.012 49.1432 121.816 49.4979C121.629 49.8432 121.536 50.2399 121.536 50.6879Z" fill="#653C3C"/>
<path d="M140.225 47.4679H143.445V48.5179H140.225V47.4679ZM141.275 45.2279H142.395V53.9079H141.275V45.2279Z" fill="#653C3C"/>
<path d="M157.434 51.9339C157.565 52.1299 157.714 52.3119 157.882 52.4799C158.05 52.6479 158.241 52.7832 158.456 52.8859C158.68 52.9792 158.923 53.0259 159.184 53.0259C159.501 53.0259 159.749 52.9559 159.926 52.8159C160.113 52.6666 160.206 52.4659 160.206 52.2139C160.206 51.9899 160.131 51.8032 159.982 51.6539C159.842 51.4952 159.66 51.3646 159.436 51.2619C159.212 51.1499 158.974 51.0472 158.722 50.9539C158.442 50.8419 158.157 50.7112 157.868 50.5619C157.588 50.4032 157.35 50.2026 157.154 49.9599C156.967 49.7079 156.874 49.3952 156.874 49.0219C156.874 48.6392 156.972 48.3219 157.168 48.0699C157.373 47.8179 157.635 47.6312 157.952 47.5099C158.279 47.3886 158.615 47.3279 158.96 47.3279C159.305 47.3279 159.627 47.3839 159.926 47.4959C160.234 47.6079 160.505 47.7572 160.738 47.9439C160.971 48.1306 161.153 48.3452 161.284 48.5879L160.388 49.1619C160.211 48.9192 159.987 48.7186 159.716 48.5599C159.455 48.4012 159.156 48.3219 158.82 48.3219C158.587 48.3219 158.386 48.3732 158.218 48.4759C158.05 48.5786 157.966 48.7372 157.966 48.9519C157.966 49.1199 158.031 49.2692 158.162 49.3999C158.293 49.5306 158.461 49.6472 158.666 49.7499C158.871 49.8526 159.086 49.9506 159.31 50.0439C159.683 50.1932 160.024 50.3566 160.332 50.5339C160.64 50.7019 160.883 50.9072 161.06 51.1499C161.247 51.3926 161.34 51.7052 161.34 52.0879C161.34 52.6479 161.135 53.1146 160.724 53.4879C160.323 53.8612 159.791 54.0479 159.128 54.0479C158.699 54.0479 158.311 53.9732 157.966 53.8239C157.621 53.6652 157.327 53.4646 157.084 53.2219C156.851 52.9792 156.673 52.7319 156.552 52.4799L157.434 51.9339Z" fill="#653C3C"/>
</svg>
