<svg width="108" height="41" viewBox="0 0 108 41" fill="none" xmlns="http://www.w3.org/2000/svg">
<rect x="0.25" y="0.25" width="107.5" height="40.5" fill="#0D0D0D" stroke="white" stroke-width="0.5"/>
<path d="M4.71094 3.10938H103.286V37.892H4.71094V3.10938Z" fill="#0D0D0D"/>
<path d="M28.4204 21.1167C27.9831 18.8237 30.0723 17.4789 30.0723 17.4789C30.0723 17.4789 29.2583 16.2521 27.8903 15.9365C26.523 15.6202 25.8387 16.0154 25.1557 16.3118C24.472 16.6089 24.1309 16.6089 24.1309 16.6089C23.1443 16.6089 22.4231 15.5207 20.5434 16.0161C19.2485 16.3566 17.8852 17.9139 17.6389 19.7726C17.3926 21.632 17.9241 24.0046 18.9489 25.8434C19.9737 27.6837 21.0176 28.3752 21.7586 28.3951C22.4995 28.4143 23.2391 27.8421 24.1309 27.7028C25.0233 27.5649 25.5726 28.0398 26.4479 28.2963C27.3199 28.5522 27.6256 28.3148 28.6299 27.4249C29.6369 26.535 30.5485 23.9826 30.5485 23.9826C30.5485 23.9826 28.8578 23.4111 28.4204 21.1167Z" fill="white"/>
<path d="M26.4841 14.4531C27.4529 13.4246 27.1248 11.8324 27.1248 11.8324C27.1248 11.8324 25.7643 12.0812 24.8527 13.0692C23.9419 14.0579 24.0927 15.6195 24.0927 15.6195C24.0927 15.6195 25.5152 15.4809 26.4841 14.4531Z" fill="white"/>
<path d="M42.8555 13.3977C42.8555 13.9304 42.7623 14.3758 42.576 14.7338C42.3897 15.0896 42.1195 15.3581 41.7655 15.5393C41.4136 15.7183 40.9861 15.8078 40.483 15.8078H39.2502V11.0782H40.6197C41.0813 11.0782 41.4788 11.1667 41.8121 11.3435C42.1454 11.5182 42.4021 11.7781 42.5822 12.1231C42.7644 12.466 42.8555 12.8909 42.8555 13.3977ZM42.2996 13.4171C42.2996 12.9923 42.2313 12.6418 42.0947 12.3658C41.9601 12.0897 41.7614 11.8848 41.4985 11.7511C41.2376 11.6152 40.9178 11.5473 40.5389 11.5473H39.7781V15.3355H40.4209C41.0461 15.3355 41.515 15.1748 41.8276 14.8535C42.1423 14.5321 42.2996 14.0533 42.2996 13.4171Z" fill="white"/>
<path d="M46.7216 14.0285C46.7216 14.3197 46.6853 14.5796 46.6129 14.8082C46.5404 15.0368 46.4359 15.2298 46.2993 15.3872C46.1626 15.5447 45.997 15.6654 45.8024 15.7496C45.6099 15.8315 45.3915 15.8725 45.1472 15.8725C44.9195 15.8725 44.7104 15.8315 44.5199 15.7496C44.3315 15.6654 44.168 15.5447 44.0293 15.3872C43.8926 15.2298 43.786 15.0368 43.7094 14.8082C43.6349 14.5796 43.5976 14.3197 43.5976 14.0285C43.5976 13.6403 43.6608 13.3104 43.7871 13.0386C43.9133 12.7647 44.0935 12.5566 44.3274 12.4143C44.5634 12.2698 44.8439 12.1975 45.1689 12.1975C45.4795 12.1975 45.7506 12.2698 45.9825 12.4143C46.2164 12.5588 46.3976 12.768 46.5259 13.0419C46.6564 13.3136 46.7216 13.6425 46.7216 14.0285ZM44.1318 14.0285C44.1318 14.3132 44.168 14.5602 44.2404 14.7694C44.3129 14.9786 44.4247 15.1403 44.5758 15.2546C44.7269 15.3689 44.9215 15.4261 45.1596 15.4261C45.3956 15.4261 45.5892 15.3689 45.7403 15.2546C45.8935 15.1403 46.0063 14.9786 46.0788 14.7694C46.1512 14.5602 46.1875 14.3132 46.1875 14.0285C46.1875 13.746 46.1512 13.5023 46.0788 13.2974C46.0063 13.0904 45.8945 12.9308 45.7434 12.8187C45.5923 12.7065 45.3966 12.6504 45.1565 12.6504C44.8025 12.6504 44.5427 12.7723 44.3771 13.016C44.2135 13.2597 44.1318 13.5972 44.1318 14.0285Z" fill="white"/>
<path d="M50.3827 15.8013L49.7772 13.7374C49.7503 13.649 49.7244 13.5627 49.6996 13.4786C49.6768 13.3923 49.6551 13.3104 49.6343 13.2327C49.6157 13.1529 49.5981 13.0796 49.5816 13.0128C49.5671 12.9437 49.5546 12.8844 49.5443 12.8348H49.5226C49.5143 12.8844 49.5029 12.9437 49.4884 13.0128C49.4739 13.0796 49.4563 13.1529 49.4356 13.2327C49.417 13.3125 49.3963 13.3966 49.3735 13.4851C49.3507 13.5713 49.3249 13.6587 49.2959 13.7471L48.6624 15.8013H48.0817L47.1439 12.2558H47.678L48.1686 14.2129C48.2018 14.3423 48.2328 14.4707 48.2618 14.5979C48.2929 14.723 48.3187 14.8416 48.3394 14.9537C48.3622 15.0637 48.3788 15.1597 48.3891 15.2417H48.414C48.4264 15.1877 48.4398 15.123 48.4543 15.0476C48.4709 14.9721 48.4885 14.8923 48.5071 14.8082C48.5278 14.7219 48.5496 14.6367 48.5723 14.5526C48.5951 14.4663 48.6179 14.3855 48.6407 14.31L49.2679 12.2558H49.8238L50.4293 14.3068C50.4604 14.4103 50.4904 14.5181 50.5194 14.6303C50.5504 14.7424 50.5784 14.8513 50.6032 14.957C50.628 15.0605 50.6456 15.1532 50.656 15.2352H50.6808C50.6891 15.1619 50.7046 15.0713 50.7274 14.9635C50.7502 14.8556 50.7761 14.737 50.805 14.6076C50.8361 14.4782 50.8682 14.3467 50.9013 14.2129L51.3982 12.2558H51.923L50.9821 15.8013H50.3827Z" fill="white"/>
<path d="M54.1557 12.1975C54.5594 12.1975 54.8647 12.3011 55.0717 12.5081C55.2788 12.713 55.3823 13.0429 55.3823 13.498V15.8078H54.873V13.5336C54.873 13.2381 54.8078 13.0171 54.6774 12.8704C54.549 12.7238 54.3513 12.6504 54.0843 12.6504C53.7075 12.6504 53.4425 12.7615 53.2893 12.9836C53.1361 13.2058 53.0595 13.5282 53.0595 13.9509V15.8078H52.544V12.2622H52.9601L53.0378 12.7734H53.0657C53.1382 12.6483 53.2303 12.5437 53.3421 12.4596C53.4539 12.3733 53.5791 12.3086 53.7178 12.2655C53.8565 12.2202 54.0025 12.1975 54.1557 12.1975Z" fill="white"/>
<path d="M56.9629 15.8078H56.4443V10.7741H56.9629V15.8078Z" fill="white"/>
<path d="M60.9873 14.0285C60.9873 14.3197 60.9511 14.5796 60.8787 14.8082C60.8062 15.0368 60.7017 15.2298 60.565 15.3872C60.4284 15.5447 60.2628 15.6654 60.0682 15.7496C59.8756 15.8315 59.6572 15.8725 59.413 15.8725C59.1852 15.8725 58.9761 15.8315 58.7857 15.7496C58.5973 15.6654 58.4338 15.5447 58.295 15.3872C58.1584 15.2298 58.0518 15.0368 57.9752 14.8082C57.9007 14.5796 57.8634 14.3197 57.8634 14.0285C57.8634 13.6403 57.9266 13.3104 58.0528 13.0386C58.1791 12.7647 58.3592 12.5566 58.5932 12.4143C58.8292 12.2698 59.1097 12.1975 59.4347 12.1975C59.7452 12.1975 60.0164 12.2698 60.2483 12.4143C60.4822 12.5588 60.6634 12.768 60.7917 13.0419C60.9221 13.3136 60.9873 13.6425 60.9873 14.0285ZM58.3975 14.0285C58.3975 14.3132 58.4338 14.5602 58.5062 14.7694C58.5787 14.9786 58.6905 15.1403 58.8416 15.2546C58.9927 15.3689 59.1873 15.4261 59.4254 15.4261C59.6614 15.4261 59.8549 15.3689 60.0061 15.2546C60.1593 15.1403 60.2721 14.9786 60.3446 14.7694C60.417 14.5602 60.4532 14.3132 60.4532 14.0285C60.4532 13.746 60.417 13.5023 60.3446 13.2974C60.2721 13.0904 60.1603 12.9308 60.0092 12.8187C59.858 12.7065 59.6624 12.6504 59.4223 12.6504C59.0683 12.6504 58.8085 12.7723 58.6428 13.016C58.4793 13.2597 58.3975 13.5972 58.3975 14.0285Z" fill="white"/>
<path d="M63.1517 12.204C63.5575 12.204 63.8587 12.2989 64.0554 12.4887C64.2521 12.6785 64.3504 12.9815 64.3504 13.3977V15.8078H63.9747L63.8753 15.2837H63.8504C63.7552 15.4131 63.6558 15.522 63.5523 15.6105C63.4488 15.6967 63.3287 15.7625 63.1921 15.8078C63.0575 15.8509 62.8919 15.8725 62.6953 15.8725C62.4882 15.8725 62.304 15.8347 62.1425 15.7593C61.9831 15.6838 61.8568 15.5695 61.7637 15.4164C61.6726 15.2632 61.627 15.0691 61.627 14.8341C61.627 14.4804 61.7616 14.2086 62.0307 14.0188C62.2999 13.8291 62.7098 13.7255 63.2604 13.7083L63.8473 13.6824V13.4657C63.8473 13.1594 63.7842 12.9448 63.6579 12.8219C63.5316 12.699 63.3536 12.6375 63.1238 12.6375C62.9458 12.6375 62.776 12.6645 62.6145 12.7184C62.453 12.7723 62.2999 12.8359 62.1549 12.9092L61.9966 12.5016C62.1498 12.4197 62.3257 12.3496 62.5245 12.2914C62.7232 12.2331 62.9323 12.204 63.1517 12.204ZM63.8411 14.0609L63.3225 14.0835C62.8981 14.1008 62.599 14.173 62.4251 14.3003C62.2512 14.4275 62.1643 14.6076 62.1643 14.8405C62.1643 15.0433 62.2233 15.1931 62.3413 15.2902C62.4593 15.3872 62.6156 15.4358 62.8102 15.4358C63.1124 15.4358 63.3598 15.3484 63.5523 15.1737C63.7449 14.999 63.8411 14.737 63.8411 14.3876V14.0609Z" fill="white"/>
<path d="M66.6235 15.8725C66.1929 15.8725 65.8513 15.7194 65.5987 15.4131C65.3482 15.1069 65.223 14.6518 65.223 14.048C65.223 13.4376 65.3513 12.9772 65.608 12.6666C65.8647 12.3539 66.2063 12.1975 66.6328 12.1975C66.8129 12.1975 66.9702 12.2223 67.1048 12.2719C67.2394 12.3215 67.3553 12.3884 67.4526 12.4725C67.5499 12.5545 67.6317 12.6483 67.6979 12.754H67.7352C67.7269 12.6871 67.7186 12.5954 67.7103 12.479C67.702 12.3625 67.6979 12.2676 67.6979 12.1943V10.7741H68.2134V15.8078H67.7973L67.7197 15.3031H67.6979C67.6337 15.4088 67.552 15.5048 67.4526 15.591C67.3553 15.6773 67.2383 15.7463 67.1017 15.7981C66.9671 15.8477 66.8077 15.8725 66.6235 15.8725ZM66.7042 15.4261C67.0686 15.4261 67.3263 15.3182 67.4774 15.1026C67.6286 14.8869 67.7041 14.5666 67.7041 14.1418V14.0447C67.7041 13.594 67.6317 13.2478 67.4867 13.0063C67.3439 12.7647 67.0831 12.644 66.7042 12.644C66.3875 12.644 66.1504 12.7712 65.9931 13.0257C65.8358 13.278 65.7571 13.6231 65.7571 14.0609C65.7571 14.4965 65.8347 14.833 65.99 15.0702C66.1473 15.3074 66.3854 15.4261 66.7042 15.4261Z" fill="white"/>
<path d="M73.893 14.0285C73.893 14.3197 73.8568 14.5796 73.7843 14.8082C73.7119 15.0368 73.6073 15.2298 73.4707 15.3872C73.334 15.5447 73.1684 15.6654 72.9738 15.7496C72.7813 15.8315 72.5629 15.8725 72.3186 15.8725C72.0909 15.8725 71.8818 15.8315 71.6913 15.7496C71.5029 15.6654 71.3394 15.5447 71.2007 15.3872C71.0641 15.2298 70.9574 15.0368 70.8808 14.8082C70.8063 14.5796 70.7691 14.3197 70.7691 14.0285C70.7691 13.6403 70.8322 13.3104 70.9585 13.0386C71.0848 12.7647 71.2649 12.5566 71.4988 12.4143C71.7348 12.2698 72.0153 12.1975 72.3403 12.1975C72.6509 12.1975 72.9221 12.2698 73.1539 12.4143C73.3879 12.5588 73.569 12.768 73.6974 13.0419C73.8278 13.3136 73.893 13.6425 73.893 14.0285ZM71.3032 14.0285C71.3032 14.3132 71.3394 14.5602 71.4119 14.7694C71.4843 14.9786 71.5961 15.1403 71.7472 15.2546C71.8984 15.3689 72.0929 15.4261 72.331 15.4261C72.567 15.4261 72.7606 15.3689 72.9117 15.2546C73.0649 15.1403 73.1777 14.9786 73.2502 14.7694C73.3227 14.5602 73.3589 14.3132 73.3589 14.0285C73.3589 13.746 73.3227 13.5023 73.2502 13.2974C73.1777 13.0904 73.0659 12.9308 72.9148 12.8187C72.7637 12.7065 72.5681 12.6504 72.3279 12.6504C71.9739 12.6504 71.7141 12.7723 71.5485 13.016C71.3849 13.2597 71.3032 13.5972 71.3032 14.0285Z" fill="white"/>
<path d="M76.3959 12.1975C76.7996 12.1975 77.1049 12.3011 77.3119 12.5081C77.519 12.713 77.6225 13.0429 77.6225 13.498V15.8078H77.1132V13.5336C77.1132 13.2381 77.048 13.0171 76.9176 12.8704C76.7892 12.7238 76.5915 12.6504 76.3244 12.6504C75.9477 12.6504 75.6827 12.7615 75.5295 12.9836C75.3763 13.2058 75.2997 13.5282 75.2997 13.9509V15.8078H74.7842V12.2622H75.2003L75.278 12.7734H75.3059C75.3784 12.6483 75.4705 12.5437 75.5823 12.4596C75.6941 12.3733 75.8193 12.3086 75.958 12.2655C76.0967 12.2202 76.2427 12.1975 76.3959 12.1975Z" fill="white"/>
<path d="M81.4358 15.4325C81.5207 15.4325 81.6076 15.425 81.6966 15.4099C81.7856 15.3948 81.8581 15.3765 81.914 15.3549V15.7722C81.854 15.8002 81.7701 15.824 81.6625 15.8434C81.5569 15.8628 81.4534 15.8725 81.3519 15.8725C81.1718 15.8725 81.0083 15.8401 80.8613 15.7754C80.7143 15.7086 80.5963 15.5964 80.5073 15.439C80.4203 15.2816 80.3769 15.0637 80.3769 14.7855V12.6828H79.8924V12.4208L80.38 12.2105L80.5849 11.4406H80.8955V12.2622H81.8923V12.6828H80.8955V14.7694C80.8955 14.9915 80.9441 15.1576 81.0414 15.2675C81.1408 15.3775 81.2722 15.4325 81.4358 15.4325Z" fill="white"/>
<path d="M83.1189 10.7741V12.2784C83.1189 12.3647 83.1168 12.452 83.1126 12.5404C83.1085 12.6267 83.1013 12.7065 83.0909 12.7798H83.1251C83.1955 12.6548 83.2845 12.5502 83.3921 12.466C83.5018 12.3798 83.6261 12.3151 83.7648 12.2719C83.9035 12.2267 84.0504 12.204 84.2057 12.204C84.479 12.204 84.7067 12.2493 84.8889 12.3399C85.0731 12.4305 85.2108 12.5706 85.3019 12.7604C85.395 12.9502 85.4416 13.1961 85.4416 13.498V15.8078H84.9324V13.5336C84.9324 13.2381 84.8671 13.0171 84.7367 12.8704C84.6084 12.7238 84.4107 12.6504 84.1436 12.6504C83.891 12.6504 83.6892 12.7011 83.5381 12.8025C83.389 12.9017 83.2814 13.0483 83.2151 13.2424C83.1509 13.4365 83.1189 13.6738 83.1189 13.9541V15.8078H82.6034V10.7741H83.1189Z" fill="white"/>
<path d="M87.8141 12.1975C88.1039 12.1975 88.3523 12.2644 88.5593 12.3981C88.7664 12.5318 88.9247 12.7195 89.0345 12.961C89.1442 13.2004 89.199 13.4808 89.199 13.8021V14.1353H86.8483C86.8545 14.5515 86.9539 14.8686 87.1464 15.0864C87.339 15.3042 87.6102 15.4131 87.96 15.4131C88.1753 15.4131 88.3658 15.3926 88.5314 15.3517C88.697 15.3107 88.8688 15.2503 89.0469 15.1705V15.6428C88.8751 15.7226 88.7043 15.7808 88.5345 15.8175C88.3668 15.8542 88.1681 15.8725 87.9383 15.8725C87.6112 15.8725 87.3255 15.8035 87.0812 15.6654C86.839 15.5253 86.6506 15.3204 86.5161 15.0508C86.3815 14.7812 86.3142 14.4512 86.3142 14.0609C86.3142 13.6792 86.3753 13.3492 86.4974 13.071C86.6216 12.7906 86.7955 12.575 87.0191 12.424C87.2448 12.273 87.5098 12.1975 87.8141 12.1975ZM87.8079 12.6375C87.5325 12.6375 87.3131 12.7313 87.1495 12.9189C86.986 13.1066 86.8887 13.3686 86.8576 13.705H88.6587C88.6566 13.4937 88.6246 13.3082 88.5625 13.1486C88.5024 12.9869 88.4103 12.8618 88.2861 12.7734C88.1619 12.6828 88.0025 12.6375 87.8079 12.6375Z" fill="white"/>
<path d="M44.2135 29.0583L43.6649 27.182H40.9064L40.3578 29.0583H38.6292L41.2997 21.1434H43.2612L45.9421 29.0583H44.2135ZM43.2819 25.7802L42.7333 23.947C42.6988 23.8248 42.6522 23.6685 42.5936 23.4779C42.5384 23.2838 42.4815 23.088 42.4228 22.8903C42.3676 22.689 42.3227 22.5146 42.2882 22.3673C42.2537 22.5146 42.2054 22.698 42.1433 22.9172C42.0847 23.1329 42.0277 23.3378 41.9725 23.5319C41.9173 23.726 41.8776 23.8643 41.8535 23.947L41.3101 25.7802H43.2819Z" fill="white"/>
<path d="M49.9946 22.9172C50.6467 22.9172 51.1729 23.1814 51.5731 23.7098C51.9768 24.2382 52.1786 25.0128 52.1786 26.0336C52.1786 26.7165 52.0837 27.2916 51.894 27.7589C51.7042 28.2226 51.442 28.5731 51.1073 28.8103C50.7726 29.0475 50.3879 29.1661 49.9532 29.1661C49.6737 29.1661 49.4339 29.1302 49.2338 29.0583C49.0336 28.9828 48.8629 28.8876 48.7214 28.7725C48.5799 28.6539 48.4574 28.5281 48.3539 28.3951H48.2711C48.2987 28.5389 48.3194 28.6863 48.3332 28.8372C48.347 28.9882 48.3539 29.1356 48.3539 29.2794V31.711H46.7754V23.0304H48.0589L48.2815 23.8122H48.3539C48.4574 23.6505 48.5834 23.5013 48.7317 23.3647C48.8801 23.2281 49.0578 23.1203 49.2648 23.0412C49.4753 22.9586 49.7185 22.9172 49.9946 22.9172ZM49.4874 24.2328C49.2113 24.2328 48.9922 24.2921 48.8301 24.4107C48.6679 24.5293 48.5489 24.7072 48.473 24.9445C48.4005 25.1817 48.3608 25.4818 48.3539 25.8449V26.0228C48.3539 26.411 48.3884 26.7399 48.4574 27.0095C48.5299 27.2791 48.6489 27.4839 48.8146 27.6241C48.9836 27.7643 49.2148 27.8344 49.5081 27.8344C49.7496 27.8344 49.948 27.7643 50.1033 27.6241C50.2585 27.4839 50.3741 27.2791 50.45 27.0095C50.5294 26.7363 50.569 26.4038 50.569 26.012C50.569 25.4225 50.4811 24.9786 50.3051 24.6803C50.1291 24.3819 49.8566 24.2328 49.4874 24.2328Z" fill="white"/>
<path d="M56.702 22.9172C57.3541 22.9172 57.8803 23.1814 58.2806 23.7098C58.6842 24.2382 58.8861 25.0128 58.8861 26.0336C58.8861 26.7165 58.7912 27.2916 58.6014 27.7589C58.4117 28.2226 58.1494 28.5731 57.8148 28.8103C57.4801 29.0475 57.0954 29.1661 56.6606 29.1661C56.3811 29.1661 56.1413 29.1302 55.9412 29.0583C55.7411 28.9828 55.5703 28.8876 55.4288 28.7725C55.2874 28.6539 55.1649 28.5281 55.0614 28.3951H54.9786C55.0062 28.5389 55.0269 28.6863 55.0407 28.8372C55.0545 28.9882 55.0614 29.1356 55.0614 29.2794V31.711H53.4829V23.0304H54.7664L54.9889 23.8122H55.0614C55.1649 23.6505 55.2908 23.5013 55.4392 23.3647C55.5876 23.2281 55.7653 23.1203 55.9723 23.0412C56.1828 22.9586 56.426 22.9172 56.702 22.9172ZM56.1948 24.2328C55.9188 24.2328 55.6997 24.2921 55.5375 24.4107C55.3754 24.5293 55.2563 24.7072 55.1804 24.9445C55.108 25.1817 55.0683 25.4818 55.0614 25.8449V26.0228C55.0614 26.411 55.0959 26.7399 55.1649 27.0095C55.2374 27.2791 55.3564 27.4839 55.522 27.6241C55.6911 27.7643 55.9222 27.8344 56.2155 27.8344C56.4571 27.8344 56.6554 27.7643 56.8107 27.6241C56.966 27.4839 57.0816 27.2791 57.1575 27.0095C57.2368 26.7363 57.2765 26.4038 57.2765 26.012C57.2765 25.4225 57.1885 24.9786 57.0126 24.6803C56.8366 24.3819 56.564 24.2328 56.1948 24.2328Z" fill="white"/>
<path d="M67.5344 26.8693C67.5344 27.3366 67.4257 27.7427 67.2083 28.0878C66.9909 28.4329 66.6735 28.6989 66.256 28.8858C65.842 29.0727 65.3382 29.1661 64.7448 29.1661C64.4825 29.1661 64.2255 29.1482 63.9736 29.1122C63.7252 29.0763 63.4854 29.0242 63.2542 28.9559C63.0265 28.884 62.8091 28.7959 62.6021 28.6917V27.1389C62.9609 27.3042 63.3336 27.4534 63.72 27.5864C64.1065 27.7194 64.4894 27.7859 64.869 27.7859C65.1312 27.7859 65.3417 27.7499 65.5004 27.678C65.6626 27.6062 65.7799 27.5073 65.8523 27.3815C65.9248 27.2557 65.961 27.1119 65.961 26.9502C65.961 26.7525 65.8972 26.5835 65.7695 26.4434C65.6419 26.3032 65.4659 26.172 65.2416 26.0498C65.0208 25.9276 64.7706 25.7964 64.4912 25.6562C64.3152 25.5699 64.1237 25.4657 63.9167 25.3435C63.7097 25.2177 63.513 25.0649 63.3267 24.8852C63.1404 24.7054 62.9868 24.488 62.8661 24.2328C62.7487 23.974 62.6901 23.6649 62.6901 23.3054C62.6901 22.8345 62.7936 22.432 63.0006 22.0977C63.2076 21.7634 63.5026 21.5082 63.8856 21.3321C64.2721 21.1524 64.7275 21.0625 65.252 21.0625C65.6453 21.0625 66.0197 21.111 66.3751 21.2081C66.7339 21.3015 67.1082 21.4381 67.4981 21.6178L66.9806 22.9172C66.6321 22.7698 66.3198 22.6566 66.0438 22.5775C65.7678 22.4949 65.4866 22.4535 65.2002 22.4535C65.0001 22.4535 64.8293 22.4877 64.6878 22.556C64.5464 22.6207 64.4394 22.7141 64.367 22.8363C64.2945 22.955 64.2583 23.0933 64.2583 23.2515C64.2583 23.4384 64.31 23.5966 64.4135 23.726C64.5205 23.8518 64.6792 23.974 64.8897 24.0926C65.1036 24.2112 65.3693 24.3496 65.6867 24.5078C66.0731 24.6983 66.4027 24.8977 66.6752 25.1062C66.9513 25.3111 67.1635 25.5537 67.3118 25.8341C67.4602 26.1109 67.5344 26.4559 67.5344 26.8693Z" fill="white"/>
<path d="M71.2193 27.856C71.3918 27.856 71.5592 27.838 71.7214 27.802C71.887 27.7661 72.0509 27.7212 72.213 27.6673V28.8912C72.044 28.9702 71.8335 29.0349 71.5816 29.0853C71.3332 29.1392 71.0606 29.1661 70.7639 29.1661C70.4188 29.1661 70.1083 29.1086 69.8323 28.9936C69.5597 28.875 69.3441 28.6719 69.1853 28.3843C69.0301 28.0932 68.9525 27.6888 68.9525 27.1712V24.2651H68.1968V23.5696L69.0663 23.0197L69.5218 21.7472H70.531V23.0304H72.1509V24.2651H70.531V27.1712C70.531 27.4013 70.5931 27.5738 70.7173 27.6888C70.845 27.8003 71.0123 27.856 71.2193 27.856Z" fill="white"/>
<path d="M78.6462 26.0336C78.6462 26.5368 78.5806 26.9825 78.4495 27.3707C78.3218 27.7589 78.1338 28.0878 77.8854 28.3574C77.6404 28.6234 77.3437 28.8247 76.9952 28.9613C76.6502 29.0978 76.2603 29.1661 75.8255 29.1661C75.4184 29.1661 75.044 29.0978 74.7024 28.9613C74.3643 28.8247 74.0693 28.6234 73.8174 28.3574C73.569 28.0878 73.3758 27.7589 73.2378 27.3707C73.1032 26.9825 73.0359 26.5368 73.0359 26.0336C73.0359 25.365 73.1498 24.7989 73.3775 24.3352C73.6052 23.8715 73.9296 23.5193 74.3505 23.2785C74.7714 23.0376 75.2735 22.9172 75.8566 22.9172C76.3983 22.9172 76.8779 23.0376 77.2954 23.2785C77.7163 23.5193 78.0458 23.8715 78.2839 24.3352C78.5254 24.7989 78.6462 25.365 78.6462 26.0336ZM74.6455 26.0336C74.6455 26.429 74.6869 26.7615 74.7697 27.031C74.8525 27.3006 74.9819 27.5037 75.1579 27.6403C75.3339 27.7769 75.5633 27.8452 75.8462 27.8452C76.1257 27.8452 76.3517 27.7769 76.5242 27.6403C76.7002 27.5037 76.8279 27.3006 76.9072 27.031C76.99 26.7615 77.0314 26.429 77.0314 26.0336C77.0314 25.6346 76.99 25.3039 76.9072 25.0415C76.8279 24.7755 76.7002 24.576 76.5242 24.4431C76.3483 24.3101 76.1188 24.2436 75.8359 24.2436C75.4184 24.2436 75.1148 24.3927 74.925 24.6911C74.7387 24.9894 74.6455 25.4369 74.6455 26.0336Z" fill="white"/>
<path d="M83.1799 22.9172C83.2593 22.9172 83.3507 22.9226 83.4542 22.9334C83.5612 22.9406 83.6474 22.9514 83.713 22.9657L83.594 24.5078C83.5422 24.4898 83.468 24.4772 83.3714 24.47C83.2783 24.4592 83.1972 24.4538 83.1282 24.4538C82.9246 24.4538 82.7262 24.4808 82.533 24.5347C82.3432 24.5886 82.1724 24.6767 82.0206 24.7989C81.8688 24.9175 81.748 25.0757 81.6583 25.2734C81.5721 25.4675 81.5289 25.7065 81.5289 25.9905V29.0583H79.9504V23.0304H81.146L81.3788 24.0441H81.4565C81.5703 23.8392 81.7118 23.6523 81.8809 23.4833C82.0534 23.3108 82.2483 23.1742 82.4657 23.0736C82.6865 22.9693 82.9246 22.9172 83.1799 22.9172Z" fill="white"/>
<path d="M87.1495 22.9172C87.6843 22.9172 88.145 23.025 88.5314 23.2407C88.9178 23.4528 89.2163 23.7619 89.4268 24.1681C89.6372 24.5742 89.7425 25.0703 89.7425 25.6562V26.4541H86.0109C86.0282 26.9178 86.161 27.2827 86.4094 27.5486C86.6613 27.811 87.0098 27.9422 87.4549 27.9422C87.8241 27.9422 88.1622 27.9027 88.4693 27.8236C88.7764 27.7445 89.0921 27.6259 89.4164 27.4678V28.7402C89.13 28.8876 88.8299 28.9954 88.5159 29.0637C88.2053 29.132 87.8275 29.1661 87.3824 29.1661C86.8028 29.1661 86.2887 29.0547 85.8401 28.8319C85.395 28.609 85.0448 28.2693 84.7895 27.8128C84.5376 27.3563 84.4117 26.7812 84.4117 26.0875C84.4117 25.383 84.5256 24.7971 84.7533 24.3298C84.9845 23.859 85.3053 23.5067 85.7159 23.2731C86.1265 23.0358 86.6044 22.9172 87.1495 22.9172ZM87.1599 24.0872C86.8528 24.0872 86.5975 24.1896 86.3939 24.3945C86.1938 24.5994 86.0782 24.9211 86.0472 25.3596H88.2623C88.2588 25.1152 88.2157 24.8977 88.1329 24.7072C88.0535 24.5167 87.9328 24.3658 87.7706 24.2543C87.6119 24.1429 87.4083 24.0872 87.1599 24.0872Z" fill="white"/>
</svg>
