<svg width="60" height="60" viewBox="0 0 60 60" fill="none" xmlns="http://www.w3.org/2000/svg">
<path d="M55.3862 28.125H47.7388C47.2642 28.1264 46.7981 28.2516 46.3866 28.4882C45.975 28.7247 45.6323 29.0644 45.3922 29.4739C42.7781 27.9964 35.8662 24.1781 33.0413 23.4656C31.0949 23.2883 29.1375 23.2653 27.1875 23.3967V16.7022C27.6468 16.54 28.0562 16.2612 28.3753 15.8931C28.6944 15.5251 28.9124 15.0804 29.0079 14.6027C34.915 10.7746 42.5282 15.7293 42.6059 15.7805C42.7471 15.8744 42.9111 15.9282 43.0805 15.9362C43.2499 15.9443 43.4183 15.9062 43.5678 15.8261C43.7172 15.7461 43.8422 15.6269 43.9293 15.4814C44.0164 15.336 44.0625 15.1696 44.0625 15C44.1067 13.498 43.8345 12.0035 43.2636 10.6135C42.6927 9.22355 41.8359 7.96918 40.7487 6.93188C38.0894 4.48416 34.0884 3.41522 28.8777 3.71128C28.6793 3.17375 28.3212 2.70976 27.8515 2.38154C27.3818 2.05332 26.823 1.87657 26.25 1.875H18.75C18.0615 1.87713 17.3978 2.13227 16.8852 2.59189C16.3726 3.05151 16.0468 3.68353 15.9698 4.36772C15.6366 4.7962 15.2023 5.13534 14.7058 5.35477C14.2093 5.57419 13.6662 5.66704 13.125 5.625C12.4762 5.68238 11.8231 5.58293 11.2207 5.33503C11.1505 4.64496 10.8273 4.00532 10.3133 3.53951C9.79938 3.0737 9.13113 2.81471 8.4375 2.8125H4.6875C3.94183 2.81332 3.22694 3.1099 2.69967 3.63717C2.1724 4.16444 1.87582 4.87933 1.875 5.625V13.125C1.87582 13.8707 2.1724 14.5856 2.69967 15.1128C3.22694 15.6401 3.94183 15.9367 4.6875 15.9375H8.4375C9.13113 15.9353 9.79938 15.6763 10.3133 15.2105C10.8273 14.7447 11.1505 14.105 11.2207 13.415C11.8231 13.1671 12.4762 13.0676 13.125 13.125C13.6659 13.083 14.2087 13.1756 14.7051 13.3945C15.2015 13.6134 15.6359 13.9519 15.9696 14.3797C16.0287 14.9004 16.2328 15.3942 16.5586 15.8047C16.8843 16.2153 17.3188 16.5263 17.8125 16.7022V27.1875H16.4062C15.5337 27.1872 14.6825 27.4576 13.97 27.9614C13.2575 28.4651 12.7189 29.1775 12.4283 30.0003C12.1376 30.823 12.1094 31.7157 12.3474 32.5552C12.5854 33.3947 13.078 34.1397 13.7572 34.6875C13.2671 35.0825 12.8717 35.5823 12.6001 36.1501C12.3285 36.7179 12.1875 37.3393 12.1875 37.9688C12.1875 38.5982 12.3285 39.2196 12.6001 39.7874C12.8717 40.3552 13.2671 40.855 13.7572 41.25C13.2671 41.645 12.8717 42.1448 12.6001 42.7126C12.3285 43.2804 12.1875 43.9018 12.1875 44.5312C12.1875 45.1607 12.3285 45.7821 12.6001 46.3499C12.8717 46.9177 13.2671 47.4175 13.7572 47.8125C13.267 48.2074 12.8716 48.7072 12.5999 49.275C12.3283 49.8428 12.1874 50.4643 12.1875 51.0938C12.1875 53.4778 13.8144 54.4949 15.5719 55.2383C18.2156 56.3572 29.1344 57.1875 31.875 57.1875C39.8182 57.1875 43.6538 56.3088 45.3307 55.7256C45.5614 56.1651 45.9074 56.5335 46.3317 56.791C46.756 57.0486 47.2425 57.1857 47.7388 57.1875H55.3862C56.1124 57.1867 56.8086 56.8978 57.3221 56.3842C57.8355 55.8707 58.1243 55.1744 58.125 54.4482V30.8638C58.1242 30.1377 57.8354 29.4415 57.3219 28.9281C56.8085 28.4146 56.1123 28.1258 55.3862 28.125ZM39.4789 8.31159C40.8909 9.63265 41.8031 11.401 42.0611 13.3173C39.4401 11.9874 34.0172 9.94341 29.0625 12.4219V5.57634C33.7071 5.32078 37.2188 6.23156 39.4789 8.31159ZM17.8125 4.6875C17.8128 4.43896 17.9117 4.20069 18.0874 4.02494C18.2632 3.8492 18.5015 3.75032 18.75 3.75H26.25C26.4985 3.75032 26.7368 3.8492 26.9126 4.02494C27.0883 4.20069 27.1872 4.43896 27.1875 4.6875V14.0625C27.1872 14.311 27.0883 14.5493 26.9126 14.7251C26.7368 14.9008 26.4985 14.9997 26.25 15H18.75C18.5015 14.9997 18.2632 14.9008 18.0874 14.7251C17.9117 14.5493 17.8128 14.311 17.8125 14.0625V4.6875ZM8.4375 14.0625H4.6875C4.43896 14.0622 4.20069 13.9633 4.02494 13.7876C3.8492 13.6118 3.75032 13.3735 3.75 13.125V5.625C3.75032 5.37646 3.8492 5.13819 4.02494 4.96244C4.20069 4.7867 4.43896 4.68782 4.6875 4.6875H8.4375C8.68604 4.68782 8.92431 4.7867 9.10006 4.96244C9.2758 5.13819 9.37468 5.37646 9.375 5.625V13.125C9.37468 13.3735 9.2758 13.6118 9.10006 13.7876C8.92431 13.9633 8.68604 14.0622 8.4375 14.0625ZM13.125 11.25C12.4948 11.2405 11.8655 11.3042 11.25 11.4399V7.31006C11.8655 7.44575 12.4948 7.50949 13.125 7.5C14.1052 7.51885 15.0738 7.2851 15.9375 6.82125V11.9288C15.0738 11.4649 14.1052 11.2311 13.125 11.25ZM19.6875 16.875H25.3125V27.1875H19.6875V16.875ZM16.3031 53.5117C14.5857 52.7857 14.0625 52.2207 14.0625 51.0938C14.0631 50.4723 14.3103 49.8766 14.7497 49.4372C15.1891 48.9978 15.7848 48.7506 16.4062 48.75H18.75C18.9986 48.75 19.2371 48.6512 19.4129 48.4754C19.5887 48.2996 19.6875 48.0611 19.6875 47.8125C19.6875 47.5639 19.5887 47.3254 19.4129 47.1496C19.2371 46.9738 18.9986 46.875 18.75 46.875H16.4062C15.7846 46.875 15.1885 46.6281 14.749 46.1885C14.3094 45.749 14.0625 45.1529 14.0625 44.5312C14.0625 43.9096 14.3094 43.3135 14.749 42.874C15.1885 42.4344 15.7846 42.1875 16.4062 42.1875H18.75C18.9986 42.1875 19.2371 42.0887 19.4129 41.9129C19.5887 41.7371 19.6875 41.4986 19.6875 41.25C19.6875 41.0014 19.5887 40.7629 19.4129 40.5871C19.2371 40.4113 18.9986 40.3125 18.75 40.3125H16.4062C15.7846 40.3125 15.1885 40.0656 14.749 39.626C14.3094 39.1865 14.0625 38.5904 14.0625 37.9688C14.0625 37.3471 14.3094 36.751 14.749 36.3115C15.1885 35.8719 15.7846 35.625 16.4062 35.625H18.75C18.9986 35.625 19.2371 35.5262 19.4129 35.3504C19.5887 35.1746 19.6875 34.9361 19.6875 34.6875C19.6875 34.4389 19.5887 34.2004 19.4129 34.0246C19.2371 33.8488 18.9986 33.75 18.75 33.75H16.4062C15.7846 33.75 15.1885 33.5031 14.749 33.0635C14.3094 32.624 14.0625 32.0279 14.0625 31.4062C14.0625 30.7846 14.3094 30.1885 14.749 29.749C15.1885 29.3094 15.7846 29.0625 16.4062 29.0625H26.25C26.4986 29.0625 26.7371 28.9637 26.9129 28.7879C27.0887 28.6121 27.1875 28.3736 27.1875 28.125V25.2736C28.9843 25.1571 30.7869 25.1606 32.5832 25.2841C35.3676 25.9859 43.0277 30.2853 45 31.4074V53.8451C43.8614 54.2831 40.2948 55.3125 31.875 55.3125C28.7933 55.3125 18.4891 54.4363 16.3031 53.5117ZM56.25 54.4482C56.2499 54.6773 56.1589 54.8971 55.9969 55.0591C55.835 55.2212 55.6153 55.3123 55.3862 55.3125H47.7388C47.5097 55.3123 47.29 55.2212 47.1281 55.0591C46.9661 54.8971 46.8751 54.6773 46.875 54.4482V30.8638C46.8752 30.6348 46.9662 30.4152 47.1282 30.2532C47.2902 30.0912 47.5098 30.0002 47.7388 30H55.3862C55.6152 30.0002 55.8348 30.0912 55.9968 30.2532C56.1588 30.4152 56.2498 30.6348 56.25 30.8638V54.4482ZM51.5625 31.875C51.0062 31.875 50.4625 32.04 50 32.349C49.5374 32.658 49.177 33.0973 48.9641 33.6112C48.7512 34.1251 48.6955 34.6906 48.804 35.2362C48.9126 35.7818 49.1804 36.2829 49.5738 36.6762C49.9671 37.0696 50.4682 37.3374 51.0138 37.446C51.5594 37.5545 52.1249 37.4988 52.6388 37.2859C53.1527 37.073 53.592 36.7126 53.901 36.25C54.21 35.7875 54.375 35.2438 54.375 34.6875C54.3742 33.9418 54.0776 33.2269 53.5503 32.6997C53.0231 32.1724 52.3082 31.8758 51.5625 31.875ZM51.5625 35.625C51.3771 35.625 51.1958 35.57 51.0417 35.467C50.8875 35.364 50.7673 35.2176 50.6964 35.0463C50.6254 34.875 50.6068 34.6865 50.643 34.5046C50.6792 34.3227 50.7685 34.1557 50.8996 34.0246C51.0307 33.8935 51.1977 33.8042 51.3796 33.768C51.5615 33.7318 51.75 33.7504 51.9213 33.8214C52.0926 33.8923 52.239 34.0125 52.342 34.1667C52.445 34.3208 52.5 34.5021 52.5 34.6875C52.4998 34.9361 52.4009 35.1744 52.2252 35.3502C52.0494 35.5259 51.8111 35.6248 51.5625 35.625ZM21.5625 10.3125V8.4375C21.5625 8.18886 21.6613 7.9504 21.8371 7.77459C22.0129 7.59877 22.2514 7.5 22.5 7.5C22.7486 7.5 22.9871 7.59877 23.1629 7.77459C23.3387 7.9504 23.4375 8.18886 23.4375 8.4375V10.3125C23.4375 10.5611 23.3387 10.7996 23.1629 10.9754C22.9871 11.1512 22.7486 11.25 22.5 11.25C22.2514 11.25 22.0129 11.1512 21.8371 10.9754C21.6613 10.7996 21.5625 10.5611 21.5625 10.3125Z" fill="black" stroke="white" stroke-width="0.5"/>
</svg>
