<svg width="100" height="100" viewBox="0 0 100 100" fill="none" xmlns="http://www.w3.org/2000/svg">
<path d="M69.5033 9.62012H24.4967L2 49.6201L24.4967 89.6201H69.5033L92 49.6201L69.5033 9.62012Z" fill="#F6F0F0"/>
<path d="M74.9838 10.2505H29.9772L7.48047 50.2471L29.9772 90.2505H74.9838L97.4805 50.2471L74.9838 10.2505Z" stroke="black" stroke-linecap="round" stroke-linejoin="round"/>
<path d="M79.4826 58.6257H24.7227V74.4443H79.4826V58.6257Z" stroke="black" stroke-linejoin="bevel"/>
<path d="M79.4826 58.6257H24.7227V60.7929H79.4826V58.6257Z" stroke="black" stroke-linejoin="bevel"/>
<path d="M24.7227 68.5539C28.1432 68.5539 28.1432 69.7888 31.5638 69.7888C34.9844 69.7888 34.9844 68.5539 38.4049 68.5539C41.8255 68.5539 41.8255 69.7888 45.2461 69.7888C48.6666 69.7888 48.6666 68.5539 52.0934 68.5539C55.5201 68.5539 55.5139 69.7888 58.9345 69.7888C62.3551 69.7888 62.3612 68.5539 65.7818 68.5539C69.2024 68.5539 69.2024 69.7888 72.6291 69.7888C76.0559 69.7888 76.0559 68.5539 79.4764 68.5539" stroke="black" stroke-linejoin="bevel"/>
<path d="M27.8672 58.6257V52.5563C27.9104 51.6849 28.2972 50.8661 28.943 50.2793C29.5888 49.6925 30.4408 49.3857 31.3124 49.426H33.7451C34.6168 49.468 35.4695 49.1627 36.1165 48.5771C36.7634 47.9915 37.1518 47.1733 37.1966 46.3018V45.9437C37.2413 45.0733 37.6289 44.256 38.2745 43.6706C38.9201 43.0851 39.7712 42.7791 40.6418 42.8195H63.7646C64.6352 42.7791 65.4863 43.0851 66.132 43.6706C66.7776 44.256 67.1651 45.0733 67.2099 45.9437C67.2531 46.8151 67.6399 47.6339 68.2857 48.2207C68.9315 48.8075 69.7835 49.1143 70.6552 49.074H72.8902C73.7608 49.0337 74.612 49.3397 75.2576 49.9252C75.9032 50.5106 76.2907 51.3279 76.3355 52.1982V58.638L27.8672 58.6257Z" stroke="black" stroke-linejoin="bevel"/>
<path d="M40.6016 52.4766L41.892 53.767" stroke="black" stroke-linejoin="bevel"/>
<path d="M39.4318 52.5439L38.2031 53.7665" stroke="black" stroke-linejoin="bevel"/>
<path d="M39.4997 51.1981L38.2031 49.9077" stroke="black" stroke-linejoin="bevel"/>
<path d="M40.6719 51.1302L41.8944 49.9077" stroke="black" stroke-linejoin="bevel"/>
<path d="M40.9649 51.8091C40.9649 51.9911 40.911 52.1689 40.8099 52.3202C40.7088 52.4715 40.5651 52.5894 40.397 52.6591C40.2289 52.7287 40.044 52.7469 39.8655 52.7114C39.687 52.6759 39.5231 52.5883 39.3945 52.4596C39.2658 52.331 39.1782 52.1671 39.1427 51.9886C39.1072 51.8102 39.1254 51.6252 39.195 51.4571C39.2647 51.289 39.3826 51.1453 39.5339 51.0442C39.6852 50.9431 39.863 50.8892 40.045 50.8892C40.289 50.8892 40.523 50.9861 40.6955 51.1586C40.868 51.3311 40.9649 51.5651 40.9649 51.8091Z" stroke="black" stroke-linejoin="bevel"/>
<path d="M52.6484 52.4764L53.945 53.7669" stroke="black" stroke-linejoin="bevel"/>
<path d="M51.4764 52.5439L50.2539 53.7665" stroke="black" stroke-linejoin="bevel"/>
<path d="M51.5505 51.1981L50.2539 49.9077" stroke="black" stroke-linejoin="bevel"/>
<path d="M52.7188 51.1302L53.9474 49.9077" stroke="black" stroke-linejoin="bevel"/>
<path d="M53.0124 51.8094C53.0124 52.0551 52.9149 52.2906 52.7412 52.4643C52.5675 52.638 52.3319 52.7356 52.0863 52.7356C51.8407 52.7356 51.6051 52.638 51.4314 52.4643C51.2577 52.2906 51.1602 52.0551 51.1602 51.8094C51.1602 51.5638 51.2577 51.3282 51.4314 51.1546C51.6051 50.9809 51.8407 50.8833 52.0863 50.8833C52.3319 50.8833 52.5675 50.9809 52.7412 51.1546C52.9149 51.3282 53.0124 51.5638 53.0124 51.8094Z" stroke="black" stroke-linejoin="bevel"/>
<path d="M64.7031 52.4766L65.9936 53.767" stroke="black" stroke-linejoin="bevel"/>
<path d="M63.5272 52.5439L62.3047 53.7665" stroke="black" stroke-linejoin="bevel"/>
<path d="M63.5951 51.1981L62.3047 49.9077" stroke="black" stroke-linejoin="bevel"/>
<path d="M64.7695 51.1304L65.992 49.9079" stroke="black" stroke-linejoin="bevel"/>
<path d="M65.0665 51.8091C65.0652 51.9916 65.0097 52.1696 64.9071 52.3204C64.8044 52.4713 64.6592 52.5882 64.4899 52.6563C64.3206 52.7244 64.1349 52.7406 63.9564 52.7029C63.7778 52.6652 63.6146 52.5752 63.4873 52.4445C63.36 52.3137 63.2745 52.148 63.2416 51.9686C63.2087 51.7891 63.23 51.6039 63.3026 51.4365C63.3753 51.2691 63.4961 51.1271 63.6496 51.0286C63.8032 50.93 63.9826 50.8793 64.165 50.883C64.4069 50.8879 64.6371 50.9878 64.8058 51.1611C64.9745 51.3345 65.0682 51.5673 65.0665 51.8091Z" stroke="black" stroke-linejoin="bevel"/>
<path d="M27.8672 74.4443V77.2845" stroke="black" stroke-linejoin="bevel"/>
<path d="M76.332 74.4443V77.2845" stroke="black" stroke-linejoin="bevel"/>
<path d="M54.5484 35.8257C57.7898 34.4731 59.321 30.7489 57.9684 27.5076C56.6159 24.2662 52.8917 22.735 49.6503 24.0876C46.4089 25.4401 44.8777 29.1643 46.2303 32.4057C47.5829 35.6471 51.307 37.1783 54.5484 35.8257Z" stroke="black" stroke-linejoin="bevel"/>
<path d="M52.1016 24.4512V25.2044" stroke="black" stroke-linejoin="bevel"/>
<path d="M52.1016 34.7129V35.4662" stroke="black" stroke-linejoin="bevel"/>
<path d="M46.5938 29.9585H47.347" stroke="black" stroke-linejoin="bevel"/>
<path d="M56.8516 29.9585H57.6048" stroke="black" stroke-linejoin="bevel"/>
<path d="M48.2031 33.8545L48.7403 33.3174" stroke="black" stroke-linejoin="bevel"/>
<path d="M55.4609 26.5997L55.9981 26.0625" stroke="black" stroke-linejoin="bevel"/>
<path d="M55.9981 33.8545L55.4609 33.3174" stroke="black" stroke-linejoin="bevel"/>
<path d="M48.7403 26.5997L48.2031 26.0625" stroke="black" stroke-linejoin="bevel"/>
<path d="M50.0859 27.2915L52.0988 29.9588L53.5436 28.8598" stroke="black" stroke-linejoin="bevel"/>
</svg>
