<svg width="18" height="18" viewBox="0 0 18 18" fill="none" xmlns="http://www.w3.org/2000/svg">
<path d="M11.6675 15.75C11.6675 15.8619 11.623 15.9692 11.5439 16.0483C11.4648 16.1274 11.3575 16.1719 11.2456 16.1719H6.74562C6.63373 16.1719 6.52642 16.1274 6.44731 16.0483C6.36819 15.9692 6.32374 15.8619 6.32374 15.75C6.32374 15.6381 6.36819 15.5308 6.44731 15.4517C6.52642 15.3726 6.63373 15.3281 6.74562 15.3281H11.2456C11.3575 15.3281 11.4648 15.3726 11.5439 15.4517C11.623 15.5308 11.6675 15.6381 11.6675 15.75ZM15.8644 4.30522C15.244 3.09175 14.3119 2.06522 13.1637 1.331C13.0693 1.27645 12.9575 1.26058 12.8516 1.2867C12.7458 1.31283 12.6541 1.37892 12.5959 1.47112C12.5377 1.56332 12.5175 1.67447 12.5395 1.78127C12.5614 1.88806 12.6239 1.98221 12.7137 2.04397C13.7391 2.6949 14.5699 3.61043 15.1184 4.69404C15.144 4.74321 15.1789 4.78687 15.2213 4.82253C15.2637 4.85818 15.3127 4.88514 15.3656 4.90185C15.4184 4.91857 15.474 4.92471 15.5292 4.91994C15.5844 4.91517 15.6381 4.89957 15.6873 4.87404C15.7364 4.84851 15.7801 4.81355 15.8157 4.77114C15.8514 4.72874 15.8784 4.67973 15.8951 4.62691C15.9118 4.57409 15.9179 4.51849 15.9132 4.4633C15.9084 4.4081 15.8928 4.35438 15.8673 4.30522H15.8644ZM2.88406 4.69404C3.4326 3.61043 4.26336 2.6949 5.28874 2.04397C5.3786 1.98221 5.44105 1.88806 5.46301 1.78127C5.48498 1.67447 5.46474 1.56332 5.40654 1.47112C5.34835 1.37892 5.25672 1.31283 5.15086 1.2867C5.04501 1.26058 4.93315 1.27645 4.83874 1.331C3.69057 2.06522 2.75844 3.09175 2.13804 4.30522C2.1073 4.35455 2.08709 4.4097 2.07867 4.46722C2.07025 4.52473 2.07381 4.58337 2.08912 4.63944C2.10443 4.69552 2.13116 4.74782 2.16764 4.79308C2.20412 4.83834 2.24956 4.87556 2.30111 4.90243C2.35265 4.9293 2.40919 4.94522 2.46719 4.9492C2.52518 4.95319 2.58337 4.94514 2.6381 4.92558C2.69284 4.90601 2.74294 4.87534 2.78526 4.8355C2.82759 4.79566 2.86122 4.7475 2.88406 4.69404ZM15.47 12.4404C15.5573 12.5895 15.6037 12.759 15.6047 12.9317C15.6057 13.1045 15.5613 13.2745 15.4757 13.4247C15.3902 13.5748 15.2667 13.6998 15.1176 13.7871C14.9685 13.8743 14.799 13.9208 14.6262 13.9219H3.37624C3.20383 13.9211 3.03466 13.875 2.88564 13.7883C2.73663 13.7016 2.613 13.5772 2.52714 13.4277C2.44128 13.2782 2.39619 13.1088 2.39639 12.9364C2.39659 12.7639 2.44207 12.5946 2.52827 12.4453C3.17445 11.3259 3.51687 9.7467 3.51687 7.87498C3.51687 6.42043 4.09469 5.02546 5.1232 3.99694C6.15172 2.96842 7.5467 2.39061 9.00124 2.39061C10.4558 2.39061 11.8508 2.96842 12.8793 3.99694C13.9078 5.02546 14.4856 6.42043 14.4856 7.87498C14.4856 9.77342 14.8189 11.309 15.4756 12.4404H15.47ZM14.7409 12.8622C14.0138 11.6015 13.6419 9.92389 13.6419 7.87498C13.6419 6.64421 13.1529 5.46385 12.2827 4.59356C11.4124 3.72328 10.232 3.23436 9.00124 3.23436C7.77047 3.23436 6.59011 3.72328 5.71983 4.59356C4.84954 5.46385 4.36062 6.64421 4.36062 7.87498C4.36062 9.92529 3.98867 11.6015 3.25601 12.8672C3.24367 12.8885 3.23717 12.9128 3.23717 12.9375C3.23717 12.9622 3.24367 12.9864 3.25601 13.0078C3.26759 13.0293 3.28486 13.0473 3.30594 13.0597C3.32701 13.0721 3.35109 13.0784 3.37554 13.0781H14.6262C14.6507 13.0784 14.6748 13.0721 14.6958 13.0597C14.7169 13.0473 14.7342 13.0293 14.7458 13.0078C14.7582 12.9865 14.7648 12.9623 14.765 12.9376C14.7651 12.9129 14.7587 12.8886 14.7465 12.8672L14.7409 12.8622Z" fill="black"/>
</svg>
