<svg width="100" height="100" viewBox="0 0 100 100" fill="none" xmlns="http://www.w3.org/2000/svg">
<g clip-path="url(#clip0_1_17796)">
<path d="M46.5886 3.51817L0 50.1068L46.5886 96.6953L93.1772 50.1068L46.5886 3.51817Z" fill="#F6F0F0"/>
<path d="M53.4128 2.58518L6.82422 49.1738L53.4128 95.7624L100.001 49.1738L53.4128 2.58518Z" stroke="black" stroke-linecap="round" stroke-linejoin="round"/>
<path d="M69.9989 30.6953H53.8906V34.7224H69.9989V30.6953Z" stroke="black" stroke-linejoin="bevel"/>
<path d="M69.9989 34.7225H53.8906V38.7496H69.9989V34.7225Z" stroke="black" stroke-linejoin="bevel"/>
<path d="M69.9989 38.7494H53.8906V42.7765H69.9989V38.7494Z" stroke="black" stroke-linejoin="bevel"/>
<path d="M60.2188 32.9963H63.6705" stroke="black" stroke-linejoin="bevel"/>
<path d="M60.2188 36.4482H63.6705" stroke="black" stroke-linejoin="bevel"/>
<path d="M60.2188 40.4753H63.6705" stroke="black" stroke-linejoin="bevel"/>
<path d="M55.043 42.7766V43.9272" stroke="black" stroke-linejoin="bevel"/>
<path d="M68.8477 42.7766V43.9272" stroke="black" stroke-linejoin="bevel"/>
<path d="M43.8367 62.3289H56.0116C56.5389 62.3289 57.0447 62.5523 57.4176 62.9498C57.7905 63.3474 58 63.8867 58 64.4489C58 65.0071 57.7936 65.5428 57.4255 65.9397C57.0574 66.3366 56.5573 66.5627 56.0338 66.569C52.4235 66.6045 44.6031 66.6637 39.1544 66.569C33.6002 66.4446 32.9837 52.0426 33.0003 45.1732C33.0003 44.2309 33.3514 43.3271 33.9764 42.6608C34.6014 41.9945 35.449 41.6201 36.3329 41.6201H44.6031C45.343 41.6187 46.0622 41.8799 46.6474 42.3623C47.2327 42.8448 47.6508 43.5212 47.8357 44.285L52.3291 62.3585" stroke="black" stroke-linejoin="bevel"/>
<path d="M47 66.6201V81.6201" stroke="black" stroke-linejoin="bevel"/>
<path d="M36 76.6201L47.1428 74.6201L58 76.6201" stroke="black" stroke-linejoin="bevel"/>
<path d="M42.2249 39.6201H36.7751C36.0391 39.6201 35.3332 39.304 34.8128 38.7414C34.2924 38.1788 34 37.4158 34 36.6201C34.0017 35.825 34.2946 35.063 34.8146 34.5008C35.3347 33.9385 36.0396 33.6219 36.7751 33.6201H42.2249C42.9609 33.6201 43.6668 33.9362 44.1872 34.4988C44.7076 35.0614 45 35.8245 45 36.6201C45.0008 37.0143 44.9296 37.4048 44.7904 37.7692C44.6513 38.1336 44.4469 38.4647 44.189 38.7434C43.9312 39.0222 43.6249 39.2431 43.2879 39.3936C42.9508 39.544 42.5896 39.621 42.2249 39.6201Z" stroke="black" stroke-linejoin="bevel"/>
<path d="M38 39.6201V41.6201" stroke="black" stroke-linejoin="bevel"/>
</g>
<defs>
<clipPath id="clip0_1_17796">
<rect width="100" height="100" fill="white"/>
</clipPath>
</defs>
</svg>
