<svg width="99" height="35" viewBox="0 0 99 35" fill="none" xmlns="http://www.w3.org/2000/svg">
<path d="M6.02683 10.8088L4.92532 4.43162H4.86238L3.7294 10.8088H1.52638L0 0H2.1086L2.54921 3.18088L2.87966 6.76324H2.95834L3.54057 3.19632L4.02838 0H5.80653L6.2786 3.19632L6.87657 6.76324H6.95525L7.26996 3.18088L7.71057 0H9.81917L8.29279 10.8088H6.02683Z" fill="#653C3C"/>
<path d="M13.872 10.8088V2.91838H15.9491V10.8088H13.872ZM13.872 0H15.9491V2.08456H13.872V0Z" fill="#653C3C"/>
<path d="M22.6018 0V10.8088H20.5247V0H22.6018Z" fill="#653C3C"/>
<path d="M29.2545 0V10.8088H27.1774V0H29.2545Z" fill="#653C3C"/>
<path d="M38.6138 10.8088H35.1834C34.1343 9.85147 33.6098 8.54412 33.6098 6.88676C33.6098 6.05294 33.7252 5.32721 33.956 4.70956C34.1973 4.09191 34.5749 3.49485 35.089 2.91838H38.7712C39.3167 3.53603 39.6891 4.13824 39.8884 4.725C40.0877 5.30147 40.1874 6.02206 40.1874 6.88676C40.1874 8.54412 39.6629 9.85147 38.6138 10.8088ZM36.3006 9.1875H37.4966C37.8742 8.46691 38.063 7.64853 38.063 6.73235C38.063 5.81618 37.869 5.08529 37.4808 4.53971H36.3006C35.923 5.06471 35.7341 5.81103 35.7341 6.77868C35.7341 7.73603 35.923 8.53897 36.3006 9.1875Z" fill="#653C3C"/>
<path d="M48.1293 2.91838H50.2065V9.1875H51.308C51.6542 8.64191 51.8272 7.89044 51.8272 6.93309V2.91838H53.9201V7.02574C53.9201 8.76544 53.4271 10.0265 52.4409 10.8088H51.1349C50.3271 10.8088 49.6609 10.5721 49.1364 10.0985C48.6119 10.5721 47.9667 10.8088 47.2009 10.8088H45.8948C44.9087 10.1294 44.4157 8.86838 44.4157 7.02574V2.91838H46.5085V7.02574C46.5085 7.94191 46.6764 8.6625 47.0121 9.1875H48.1293V2.91838Z" fill="#653C3C"/>
<path d="M63.9532 10.8088L62.8517 4.43162H62.7887L61.6558 10.8088H59.4527L57.9264 0H60.035L60.4756 3.18088L60.806 6.76324H60.8847L61.4669 3.19632L61.9547 0H63.7329L64.205 3.19632L64.8029 6.76324H64.8816L65.1963 3.18088L65.6369 0H67.7455L66.2192 10.8088H63.9532Z" fill="#653C3C"/>
<path d="M76.2747 10.8088H72.8443C71.7953 9.85147 71.2707 8.54412 71.2707 6.88676C71.2707 6.05294 71.3861 5.32721 71.6169 4.70956C71.8582 4.09191 72.2359 3.49485 72.7499 2.91838H76.4321C76.9776 3.53603 77.35 4.13824 77.5493 4.725C77.7486 5.30147 77.8483 6.02206 77.8483 6.88676C77.8483 8.54412 77.3238 9.85147 76.2747 10.8088ZM73.9616 9.1875H75.1575C75.5351 8.46691 75.724 7.64853 75.724 6.73235C75.724 5.81618 75.5299 5.08529 75.1417 4.53971H73.9616C73.5839 5.06471 73.3951 5.81103 73.3951 6.77868C73.3951 7.73603 73.5839 8.53897 73.9616 9.1875Z" fill="#653C3C"/>
<path d="M86.9843 10.8088H83.5539C82.5049 9.85147 81.9803 8.54412 81.9803 6.88676C81.9803 6.05294 82.0957 5.32721 82.3265 4.70956C82.5678 4.09191 82.9455 3.49485 83.4595 2.91838H87.1417C87.6872 3.53603 88.0596 4.13824 88.2589 4.725C88.4583 5.30147 88.5579 6.02206 88.5579 6.88676C88.5579 8.54412 88.0334 9.85147 86.9843 10.8088ZM84.6712 9.1875H85.8671C86.2447 8.46691 86.4336 7.64853 86.4336 6.73235C86.4336 5.81618 86.2395 5.08529 85.8513 4.53971H84.6712C84.2935 5.06471 84.1047 5.81103 84.1047 6.77868C84.1047 7.73603 84.2935 8.53897 84.6712 9.1875Z" fill="#653C3C"/>
<path d="M99 10.8088H97.4107L97.1274 10.2529C96.8966 10.4588 96.6763 10.6029 96.4665 10.6853C96.2672 10.7676 95.963 10.8088 95.5538 10.8088H94.1848C93.7232 10.3765 93.3561 9.81029 93.0833 9.11029C92.8211 8.41029 92.6899 7.62794 92.6899 6.76324C92.6899 5.88824 92.8211 5.14706 93.0833 4.53971C93.3561 3.93235 93.739 3.39191 94.232 2.91838H95.5853C96.1413 2.91838 96.5819 3.0625 96.9071 3.35074V0H99V10.8088ZM96.9071 4.53971H95.3965C95.0083 5.18824 94.8143 5.98603 94.8143 6.93309C94.8143 7.86985 95.0031 8.62132 95.3808 9.1875H96.9071V4.53971Z" fill="#653C3C"/>
<path d="M0.597962 32.6838V21.875H6.34155V23.7279H2.75377V26.4301H5.86947V28.2213H2.75377V32.6838H0.597962Z" fill="#653C3C"/>
<path d="M13.0306 32.6838H11.3784C10.9168 32.1074 10.6021 31.5309 10.4342 30.9544C10.2664 30.3779 10.1824 29.6574 10.1824 28.7926V24.7934H12.2753V28.9471C12.2753 29.8838 12.4641 30.589 12.8418 31.0625H14.3052V24.7934H16.3981V32.6838H14.7458L14.4626 32.1279C14.064 32.4985 13.5866 32.6838 13.0306 32.6838Z" fill="#653C3C"/>
<path d="M20.9861 32.6838V24.7934H22.481L22.8744 25.6272C23.294 25.0713 23.8238 24.7934 24.4637 24.7934H25.0774V26.8625H23.079V32.6838H20.9861Z" fill="#653C3C"/>
<path d="M32.6992 24.7934H34.3672C34.8288 25.3699 35.1435 25.9463 35.3114 26.5228C35.4792 27.0993 35.5631 27.8199 35.5631 28.6846V32.6838H33.4703V28.5301C33.4703 27.5522 33.3339 26.8471 33.0611 26.4147H31.2987V32.6838H29.2059V24.7934H30.8424L31.1256 25.3493C31.3564 25.1434 31.5715 24.9993 31.7708 24.9169C31.9806 24.8346 32.2901 24.7934 32.6992 24.7934Z" fill="#653C3C"/>
<path d="M40.0845 32.6838V24.7934H42.1616V32.6838H40.0845ZM40.0845 21.875H42.1616V23.9596H40.0845V21.875Z" fill="#653C3C"/>
<path d="M47.524 24.7934H51.0016V26.4147H48.5468L50.0417 28.5919C50.7131 29.5287 51.0855 30.1721 51.159 30.5221C51.2009 30.6868 51.2219 30.8566 51.2219 31.0316C51.2219 31.7625 50.9439 32.3132 50.3879 32.6838H46.3753V31.0625H49.2549L47.5712 28.6382C47.4978 28.525 47.3824 28.3654 47.225 28.1596C47.0781 27.9537 46.9627 27.789 46.8788 27.6654C46.7949 27.5316 46.7372 27.4338 46.7057 27.3721C46.6742 27.3103 46.6323 27.2331 46.5798 27.1404C46.5274 27.0375 46.4907 26.95 46.4697 26.8779C46.4277 26.6824 46.4067 26.5228 46.4067 26.3993C46.4067 25.6478 46.7791 25.1125 47.524 24.7934Z" fill="#653C3C"/>
<path d="M59.1309 24.7934H60.6258C61.0874 25.3699 61.4021 25.9463 61.57 26.5228C61.7378 27.0993 61.8217 27.8199 61.8217 28.6846V32.6838H59.7289V28.5301C59.7289 27.5522 59.5925 26.8471 59.3197 26.4147H57.5573V32.6838H55.4644V21.875H57.5573V25.3493C57.7881 25.1434 58.0032 24.9993 58.2025 24.9169C58.4123 24.8346 58.7218 24.7934 59.1309 24.7934Z" fill="#653C3C"/>
<path d="M66.3431 32.6838V24.7934H68.4202V32.6838H66.3431ZM66.3431 21.875H68.4202V23.9596H66.3431V21.875Z" fill="#653C3C"/>
<path d="M76.4891 24.7934H78.1571C78.6187 25.3699 78.9334 25.9463 79.1013 26.5228C79.2691 27.0993 79.3531 27.8199 79.3531 28.6846V32.6838H77.2602V28.5301C77.2602 27.5522 77.1238 26.8471 76.8511 26.4147H75.0886V32.6838H72.9958V24.7934H74.6323L74.9155 25.3493C75.1463 25.1434 75.3614 24.9993 75.5607 24.9169C75.7705 24.8346 76.08 24.7934 76.4891 24.7934Z" fill="#653C3C"/>
<path d="M89.9642 24.7934V31.8654C89.9642 32.6478 89.8593 33.2757 89.6495 33.7493C89.4501 34.2228 89.0462 34.6397 88.4378 35H84.85V33.3941H87.5409C87.8031 33.2397 87.9342 32.9926 87.9342 32.6529V31.7419C87.5461 32.061 86.9272 32.2206 86.0774 32.2206H84.9287C84.079 31.2221 83.6541 30.064 83.6541 28.7463C83.6541 27.7993 83.7905 27.0272 84.0632 26.4301C84.336 25.8228 84.7346 25.2772 85.2592 24.7934H86.4236C87.1055 24.7934 87.6458 25.0096 88.0444 25.4419L88.3277 24.7934H89.9642ZM87.8713 26.4147H86.3449C85.9673 27.0529 85.7784 27.789 85.7784 28.6228C85.7784 29.4463 85.941 30.1257 86.2663 30.661H87.8713V26.4147Z" fill="#653C3C"/>
<path d="M95.2632 24.7934H98.7409V26.4147H96.2861L97.781 28.5919C98.4524 29.5287 98.8248 30.1721 98.8982 30.5221C98.9402 30.6868 98.9612 30.8566 98.9612 31.0316C98.9612 31.7625 98.6832 32.3132 98.1272 32.6838H94.1145V31.0625H96.9942L95.3104 28.6382C95.237 28.525 95.1216 28.3654 94.9642 28.1596C94.8174 27.9537 94.702 27.789 94.618 27.6654C94.5341 27.5316 94.4764 27.4338 94.445 27.3721C94.4135 27.3103 94.3715 27.2331 94.3191 27.1404C94.2666 27.0375 94.2299 26.95 94.2089 26.8779C94.167 26.6824 94.146 26.5228 94.146 26.3993C94.146 25.6478 94.5184 25.1125 95.2632 24.7934Z" fill="#653C3C"/>
</svg>
