<svg width="60" height="60" viewBox="0 0 60 60" fill="none" xmlns="http://www.w3.org/2000/svg">
<path d="M9.1575 2.46094H3.28125C3.17351 2.46088 3.06681 2.48205 2.96726 2.52325C2.8677 2.56446 2.77725 2.62488 2.70106 2.70106C2.62488 2.77725 2.56446 2.8677 2.52325 2.96726C2.48205 3.06681 2.46088 3.17351 2.46094 3.28125V9.1575C2.46088 9.26524 2.48205 9.37194 2.52325 9.47149C2.56446 9.57105 2.62488 9.6615 2.70106 9.73769C2.77725 9.81387 2.8677 9.87429 2.96726 9.9155C3.06681 9.9567 3.17351 9.97787 3.28125 9.97781H9.1575C9.26524 9.97787 9.37194 9.9567 9.47149 9.9155C9.57105 9.87429 9.6615 9.81387 9.73769 9.73769C9.81387 9.6615 9.87429 9.57105 9.9155 9.47149C9.9567 9.37194 9.97787 9.26524 9.97781 9.1575V3.28125C9.97787 3.17351 9.9567 3.06681 9.9155 2.96726C9.87429 2.8677 9.81387 2.77725 9.73769 2.70106C9.6615 2.62488 9.57105 2.56446 9.47149 2.52325C9.37194 2.48205 9.26524 2.46088 9.1575 2.46094ZM8.33719 8.33719H4.10156V4.10156H8.33719V8.33719Z" fill="black"/>
<path d="M56.72 2.46094H50.8438C50.736 2.46088 50.6293 2.48205 50.5298 2.52325C50.4302 2.56446 50.3398 2.62488 50.2636 2.70106C50.1874 2.77725 50.127 2.8677 50.0858 2.96726C50.0446 3.06681 50.0234 3.17351 50.0234 3.28125V9.1575C50.0234 9.26524 50.0446 9.37194 50.0858 9.47149C50.127 9.57105 50.1874 9.6615 50.2636 9.73769C50.3398 9.81387 50.4302 9.87429 50.5298 9.9155C50.6293 9.9567 50.736 9.97787 50.8438 9.97781H56.72C56.8277 9.97787 56.9344 9.9567 57.034 9.9155C57.1335 9.87429 57.224 9.81387 57.3002 9.73769C57.3764 9.6615 57.4368 9.57105 57.478 9.47149C57.5192 9.37194 57.5404 9.26524 57.5403 9.1575V3.28125C57.5404 3.17351 57.5192 3.06681 57.478 2.96726C57.4368 2.8677 57.3764 2.77725 57.3002 2.70106C57.224 2.62488 57.1335 2.56446 57.034 2.52325C56.9344 2.48205 56.8277 2.46088 56.72 2.46094ZM55.8997 8.33719H51.6641V4.10156H55.8997V8.33719Z" fill="black"/>
<path d="M56.72 50.0222H50.8438C50.736 50.0222 50.6293 50.0433 50.5298 50.0845C50.4302 50.1257 50.3398 50.1862 50.2636 50.2623C50.1874 50.3385 50.127 50.429 50.0858 50.5285C50.0446 50.6281 50.0234 50.7348 50.0234 50.8425V56.7188C50.0234 56.8265 50.0446 56.9332 50.0858 57.0328C50.127 57.1323 50.1874 57.2228 50.2636 57.299C50.3398 57.3752 50.4302 57.4356 50.5298 57.4768C50.6293 57.518 50.736 57.5392 50.8438 57.5391H56.72C56.8277 57.5392 56.9344 57.518 57.034 57.4768C57.1335 57.4356 57.224 57.3752 57.3002 57.299C57.3764 57.2228 57.4368 57.1323 57.478 57.0328C57.5192 56.9332 57.5404 56.8265 57.5403 56.7188V50.8425C57.5404 50.7348 57.5192 50.6281 57.478 50.5285C57.4368 50.429 57.3764 50.3385 57.3002 50.2623C57.224 50.1862 57.1335 50.1257 57.034 50.0845C56.9344 50.0433 56.8277 50.0222 56.72 50.0222ZM55.8997 55.8985H51.6641V51.6628H55.8997V55.8985Z" fill="black"/>
<path d="M9.1575 50.0222H3.28125C3.17351 50.0222 3.06681 50.0433 2.96726 50.0845C2.8677 50.1257 2.77725 50.1862 2.70106 50.2623C2.62488 50.3385 2.56446 50.429 2.52325 50.5285C2.48205 50.6281 2.46088 50.7348 2.46094 50.8425V56.7188C2.46088 56.8265 2.48205 56.9332 2.52325 57.0328C2.56446 57.1323 2.62488 57.2228 2.70106 57.299C2.77725 57.3752 2.8677 57.4356 2.96726 57.4768C3.06681 57.518 3.17351 57.5392 3.28125 57.5391H9.1575C9.26524 57.5392 9.37194 57.518 9.47149 57.4768C9.57105 57.4356 9.6615 57.3752 9.73769 57.299C9.81387 57.2228 9.87429 57.1323 9.9155 57.0328C9.9567 56.9332 9.97787 56.8265 9.97781 56.7188V50.8425C9.97787 50.7348 9.9567 50.6281 9.9155 50.5285C9.87429 50.429 9.81387 50.3385 9.73769 50.2623C9.6615 50.1862 9.57105 50.1257 9.47149 50.0845C9.37194 50.0433 9.26524 50.0222 9.1575 50.0222ZM8.33719 55.8985H4.10156V51.6628H8.33719V55.8985Z" fill="black"/>
<path d="M25.8984 7.04004H27.862C28.0796 7.04004 28.2882 6.95361 28.4421 6.79978C28.5959 6.64594 28.6823 6.43729 28.6823 6.21973C28.6823 6.00217 28.5959 5.79352 28.4421 5.63968C28.2882 5.48584 28.0796 5.39941 27.862 5.39941H25.8984C25.6809 5.39941 25.4722 5.48584 25.3184 5.63968C25.1645 5.79352 25.0781 6.00217 25.0781 6.21973C25.0781 6.43729 25.1645 6.64594 25.3184 6.79978C25.4722 6.95361 25.6809 7.04004 25.8984 7.04004Z" fill="black"/>
<path d="M19.6641 7.04004H21.6277C21.8452 7.04004 22.0539 6.95361 22.2077 6.79978C22.3615 6.64594 22.448 6.43729 22.448 6.21973C22.448 6.00217 22.3615 5.79352 22.2077 5.63968C22.0539 5.48584 21.8452 5.39941 21.6277 5.39941H19.6641C19.4465 5.39941 19.2379 5.48584 19.084 5.63968C18.9302 5.79352 18.8438 6.00217 18.8438 6.21973C18.8438 6.43729 18.9302 6.64594 19.084 6.79978C19.2379 6.95361 19.4465 7.04004 19.6641 7.04004Z" fill="black"/>
<path d="M13.4297 7.04004H15.3938C15.6113 7.04004 15.82 6.95361 15.9738 6.79978C16.1276 6.64594 16.2141 6.43729 16.2141 6.21973C16.2141 6.00217 16.1276 5.79352 15.9738 5.63968C15.82 5.48584 15.6113 5.39941 15.3938 5.39941H13.4297C13.2121 5.39941 13.0035 5.48584 12.8496 5.63968C12.6958 5.79352 12.6094 6.00217 12.6094 6.21973C12.6094 6.43729 12.6958 6.64594 12.8496 6.79978C13.0035 6.95361 13.2121 7.04004 13.4297 7.04004Z" fill="black"/>
<path d="M46.5695 5.39941H44.6055C44.3879 5.39941 44.1793 5.48584 44.0254 5.63968C43.8716 5.79352 43.7852 6.00217 43.7852 6.21973C43.7852 6.43729 43.8716 6.64594 44.0254 6.79978C44.1793 6.95361 44.3879 7.04004 44.6055 7.04004H46.5695C46.7871 7.04004 46.9957 6.95361 47.1496 6.79978C47.3034 6.64594 47.3898 6.43729 47.3898 6.21973C47.3898 6.00217 47.3034 5.79352 47.1496 5.63968C46.9957 5.48584 46.7871 5.39941 46.5695 5.39941Z" fill="black"/>
<path d="M38.3711 7.04004H40.3352C40.5527 7.04004 40.7614 6.95361 40.9152 6.79978C41.069 6.64594 41.1555 6.43729 41.1555 6.21973C41.1555 6.00217 41.069 5.79352 40.9152 5.63968C40.7614 5.48584 40.5527 5.39941 40.3352 5.39941H38.3711C38.1535 5.39941 37.9449 5.48584 37.791 5.63968C37.6372 5.79352 37.5508 6.00217 37.5508 6.21973C37.5508 6.43729 37.6372 6.64594 37.791 6.79978C37.9449 6.95361 38.1535 7.04004 38.3711 7.04004Z" fill="black"/>
<path d="M32.1367 7.04004H34.1003C34.3179 7.04004 34.5265 6.95361 34.6804 6.79978C34.8342 6.64594 34.9206 6.43729 34.9206 6.21973C34.9206 6.00217 34.8342 5.79352 34.6804 5.63968C34.5265 5.48584 34.3179 5.39941 34.1003 5.39941H32.1367C31.9192 5.39941 31.7105 5.48584 31.5567 5.63968C31.4028 5.79352 31.3164 6.00217 31.3164 6.21973C31.3164 6.43729 31.4028 6.64594 31.5567 6.79978C31.7105 6.95361 31.9192 7.04004 32.1367 7.04004Z" fill="black"/>
<path d="M27.862 52.96H25.8984C25.6809 52.96 25.4722 53.0464 25.3184 53.2002C25.1645 53.3541 25.0781 53.5627 25.0781 53.7803C25.0781 53.9978 25.1645 54.2065 25.3184 54.3603C25.4722 54.5142 25.6809 54.6006 25.8984 54.6006H27.862C28.0796 54.6006 28.2882 54.5142 28.4421 54.3603C28.5959 54.2065 28.6823 53.9978 28.6823 53.7803C28.6823 53.5627 28.5959 53.3541 28.4421 53.2002C28.2882 53.0464 28.0796 52.96 27.862 52.96Z" fill="black"/>
<path d="M21.6277 52.96H19.6641C19.4465 52.96 19.2379 53.0464 19.084 53.2002C18.9302 53.3541 18.8438 53.5627 18.8438 53.7803C18.8438 53.9978 18.9302 54.2065 19.084 54.3603C19.2379 54.5142 19.4465 54.6006 19.6641 54.6006H21.6277C21.8452 54.6006 22.0539 54.5142 22.2077 54.3603C22.3615 54.2065 22.448 53.9978 22.448 53.7803C22.448 53.5627 22.3615 53.3541 22.2077 53.2002C22.0539 53.0464 21.8452 52.96 21.6277 52.96Z" fill="black"/>
<path d="M15.3938 52.96H13.4297C13.2121 52.96 13.0035 53.0464 12.8496 53.2002C12.6958 53.3541 12.6094 53.5627 12.6094 53.7803C12.6094 53.9978 12.6958 54.2065 12.8496 54.3603C13.0035 54.5142 13.2121 54.6006 13.4297 54.6006H15.3938C15.6113 54.6006 15.82 54.5142 15.9738 54.3603C16.1276 54.2065 16.2141 53.9978 16.2141 53.7803C16.2141 53.5627 16.1276 53.3541 15.9738 53.2002C15.82 53.0464 15.6113 52.96 15.3938 52.96Z" fill="black"/>
<path d="M46.5695 52.96H44.6055C44.3879 52.96 44.1793 53.0464 44.0254 53.2002C43.8716 53.3541 43.7852 53.5627 43.7852 53.7803C43.7852 53.9978 43.8716 54.2065 44.0254 54.3603C44.1793 54.5142 44.3879 54.6006 44.6055 54.6006H46.5695C46.7871 54.6006 46.9957 54.5142 47.1496 54.3603C47.3034 54.2065 47.3898 53.9978 47.3898 53.7803C47.3898 53.5627 47.3034 53.3541 47.1496 53.2002C46.9957 53.0464 46.7871 52.96 46.5695 52.96Z" fill="black"/>
<path d="M40.3352 52.96H38.3711C38.1535 52.96 37.9449 53.0464 37.791 53.2002C37.6372 53.3541 37.5508 53.5627 37.5508 53.7803C37.5508 53.9978 37.6372 54.2065 37.791 54.3603C37.9449 54.5142 38.1535 54.6006 38.3711 54.6006H40.3352C40.5527 54.6006 40.7614 54.5142 40.9152 54.3603C41.069 54.2065 41.1555 53.9978 41.1555 53.7803C41.1555 53.5627 41.069 53.3541 40.9152 53.2002C40.7614 53.0464 40.5527 52.96 40.3352 52.96Z" fill="black"/>
<path d="M34.1003 52.96H32.1367C31.9192 52.96 31.7105 53.0464 31.5567 53.2002C31.4028 53.3541 31.3164 53.5627 31.3164 53.7803C31.3164 53.9978 31.4028 54.2065 31.5567 54.3603C31.7105 54.5142 31.9192 54.6006 32.1367 54.6006H34.1003C34.3179 54.6006 34.5265 54.5142 34.6804 54.3603C34.8342 54.2065 34.9206 53.9978 34.9206 53.7803C34.9206 53.5627 34.8342 53.3541 34.6804 53.2002C34.5265 53.0464 34.3179 52.96 34.1003 52.96Z" fill="black"/>
<path d="M52.9609 27.864C52.9609 28.0815 53.0474 28.2902 53.2012 28.444C53.355 28.5979 53.5637 28.6843 53.7812 28.6843C53.9988 28.6843 54.2075 28.5979 54.3613 28.444C54.5151 28.2902 54.6016 28.0815 54.6016 27.864V25.9004C54.6016 25.6828 54.5151 25.4742 54.3613 25.3203C54.2075 25.1665 53.9988 25.0801 53.7812 25.0801C53.5637 25.0801 53.355 25.1665 53.2012 25.3203C53.0474 25.4742 52.9609 25.6828 52.9609 25.9004V27.864Z" fill="black"/>
<path d="M52.9609 21.6286C52.9609 21.8462 53.0474 22.0548 53.2012 22.2087C53.355 22.3625 53.5637 22.4489 53.7812 22.4489C53.9988 22.4489 54.2075 22.3625 54.3613 22.2087C54.5151 22.0548 54.6016 21.8462 54.6016 21.6286V19.665C54.6016 19.4475 54.5151 19.2388 54.3613 19.085C54.2075 18.9312 53.9988 18.8447 53.7812 18.8447C53.5637 18.8447 53.355 18.9312 53.2012 19.085C53.0474 19.2388 52.9609 19.4475 52.9609 19.665V21.6286Z" fill="black"/>
<path d="M53.7812 16.2136C53.889 16.2136 53.9957 16.1925 54.0952 16.1513C54.1948 16.1101 54.2852 16.0496 54.3614 15.9734C54.4376 15.8973 54.498 15.8068 54.5392 15.7073C54.5804 15.6077 54.6016 15.501 54.6016 15.3933V13.4292C54.6016 13.2116 54.5151 13.003 54.3613 12.8492C54.2075 12.6953 53.9988 12.6089 53.7812 12.6089C53.5637 12.6089 53.355 12.6953 53.2012 12.8492C53.0474 13.003 52.9609 13.2116 52.9609 13.4292V15.3933C52.9609 15.6108 53.0474 15.8195 53.2012 15.9733C53.355 16.1271 53.5637 16.2136 53.7812 16.2136Z" fill="black"/>
<path d="M52.9609 46.5707C52.9609 46.7883 53.0474 46.997 53.2012 47.1508C53.355 47.3046 53.5637 47.3911 53.7812 47.3911C53.9988 47.3911 54.2075 47.3046 54.3613 47.1508C54.5151 46.997 54.6016 46.7883 54.6016 46.5707V44.6067C54.6016 44.3891 54.5151 44.1805 54.3613 44.0266C54.2075 43.8728 53.9988 43.7864 53.7812 43.7864C53.5637 43.7864 53.355 43.8728 53.2012 44.0266C53.0474 44.1805 52.9609 44.3891 52.9609 44.6067V46.5707Z" fill="black"/>
<path d="M52.9609 40.3349C52.9609 40.5525 53.0474 40.7611 53.2012 40.915C53.355 41.0688 53.5637 41.1552 53.7812 41.1552C53.9988 41.1552 54.2075 41.0688 54.3613 40.915C54.5151 40.7611 54.6016 40.5525 54.6016 40.3349V38.3713C54.6016 38.1538 54.5151 37.9451 54.3613 37.7913C54.2075 37.6375 53.9988 37.551 53.7812 37.551C53.5637 37.551 53.355 37.6375 53.2012 37.7913C53.0474 37.9451 52.9609 38.1538 52.9609 38.3713V40.3349Z" fill="black"/>
<path d="M52.9609 34.0996C52.9609 34.3171 53.0474 34.5258 53.2012 34.6796C53.355 34.8335 53.5637 34.9199 53.7812 34.9199C53.9988 34.9199 54.2075 34.8335 54.3613 34.6796C54.5151 34.5258 54.6016 34.3171 54.6016 34.0996V32.136C54.6016 31.9184 54.5151 31.7098 54.3613 31.5559C54.2075 31.4021 53.9988 31.3157 53.7812 31.3157C53.5637 31.3157 53.355 31.4021 53.2012 31.5559C53.0474 31.7098 52.9609 31.9184 52.9609 32.136V34.0996Z" fill="black"/>
<path d="M5.39844 27.864C5.39844 28.0815 5.48486 28.2902 5.6387 28.444C5.79254 28.5979 6.00119 28.6843 6.21875 28.6843C6.43631 28.6843 6.64496 28.5979 6.7988 28.444C6.95264 28.2902 7.03906 28.0815 7.03906 27.864V25.9004C7.03906 25.6828 6.95264 25.4742 6.7988 25.3203C6.64496 25.1665 6.43631 25.0801 6.21875 25.0801C6.00119 25.0801 5.79254 25.1665 5.6387 25.3203C5.48486 25.4742 5.39844 25.6828 5.39844 25.9004V27.864Z" fill="black"/>
<path d="M5.39844 21.6286C5.39844 21.8462 5.48486 22.0548 5.6387 22.2087C5.79254 22.3625 6.00119 22.4489 6.21875 22.4489C6.43631 22.4489 6.64496 22.3625 6.7988 22.2087C6.95264 22.0548 7.03906 21.8462 7.03906 21.6286V19.665C7.03906 19.4475 6.95264 19.2388 6.7988 19.085C6.64496 18.9312 6.43631 18.8447 6.21875 18.8447C6.00119 18.8447 5.79254 18.9312 5.6387 19.085C5.48486 19.2388 5.39844 19.4475 5.39844 19.665V21.6286Z" fill="black"/>
<path d="M6.21875 16.2136C6.43631 16.2136 6.64496 16.1271 6.7988 15.9733C6.95264 15.8195 7.03906 15.6108 7.03906 15.3933V13.4292C7.03906 13.2116 6.95264 13.003 6.7988 12.8492C6.64496 12.6953 6.43631 12.6089 6.21875 12.6089C6.00119 12.6089 5.79254 12.6953 5.6387 12.8492C5.48486 13.003 5.39844 13.2116 5.39844 13.4292V15.3933C5.39838 15.501 5.41955 15.6077 5.46075 15.7073C5.50196 15.8068 5.56238 15.8973 5.63856 15.9734C5.71475 16.0496 5.8052 16.1101 5.90476 16.1513C6.00431 16.1925 6.11101 16.2136 6.21875 16.2136Z" fill="black"/>
<path d="M5.39844 46.5707C5.39844 46.7883 5.48486 46.997 5.6387 47.1508C5.79254 47.3046 6.00119 47.3911 6.21875 47.3911C6.43631 47.3911 6.64496 47.3046 6.7988 47.1508C6.95264 46.997 7.03906 46.7883 7.03906 46.5707V44.6067C7.03906 44.3891 6.95264 44.1805 6.7988 44.0266C6.64496 43.8728 6.43631 43.7864 6.21875 43.7864C6.00119 43.7864 5.79254 43.8728 5.6387 44.0266C5.48486 44.1805 5.39844 44.3891 5.39844 44.6067V46.5707Z" fill="black"/>
<path d="M5.39844 40.3349C5.39844 40.5525 5.48486 40.7611 5.6387 40.915C5.79254 41.0688 6.00119 41.1552 6.21875 41.1552C6.43631 41.1552 6.64496 41.0688 6.7988 40.915C6.95264 40.7611 7.03906 40.5525 7.03906 40.3349V38.3713C7.03906 38.1538 6.95264 37.9451 6.7988 37.7913C6.64496 37.6375 6.43631 37.551 6.21875 37.551C6.00119 37.551 5.79254 37.6375 5.6387 37.7913C5.48486 37.9451 5.39844 38.1538 5.39844 38.3713V40.3349Z" fill="black"/>
<path d="M5.39844 34.0996C5.39844 34.3171 5.48486 34.5258 5.6387 34.6796C5.79254 34.8335 6.00119 34.9199 6.21875 34.9199C6.43631 34.9199 6.64496 34.8335 6.7988 34.6796C6.95264 34.5258 7.03906 34.3171 7.03906 34.0996V32.136C7.03906 31.9184 6.95264 31.7098 6.7988 31.5559C6.64496 31.4021 6.43631 31.3157 6.21875 31.3157C6.00119 31.3157 5.79254 31.4021 5.6387 31.5559C5.48486 31.7098 5.39844 31.9184 5.39844 32.136V34.0996Z" fill="black"/>
<path d="M46.2836 39.1327V20.8674C46.2837 20.7174 46.2426 20.5702 46.1648 20.442C46.087 20.3137 45.9755 20.2092 45.8425 20.1399L30.3789 12.0886C30.2618 12.0277 30.1317 11.9958 29.9997 11.9958C29.8677 11.9958 29.7376 12.0277 29.6205 12.0886L14.1559 20.1399C14.0229 20.2092 13.9114 20.3137 13.8336 20.442C13.7559 20.5702 13.7148 20.7174 13.7148 20.8674V39.1327C13.7148 39.2827 13.7559 39.4299 13.8336 39.5582C13.9114 39.6864 14.0229 39.7909 14.1559 39.8602L29.6195 47.9115C29.7366 47.9724 29.8667 48.0043 29.9988 48.0043C30.1308 48.0043 30.2609 47.9724 30.378 47.9115L45.8434 39.8602C45.9763 39.7908 46.0876 39.6862 46.1652 39.558C46.2428 39.4297 46.2838 39.2826 46.2836 39.1327ZM29.9997 13.741L43.6872 20.866L29.9997 27.9938L16.3122 20.8688L29.9997 13.741ZM15.3564 22.2188L29.1794 29.416V45.8321L15.3564 38.6354V22.2188ZM30.82 45.8321V29.416L44.643 22.2188V38.6354L30.82 45.8321Z" fill="black"/>
</svg>
