<svg width="50" height="50" viewBox="0 0 50 50" fill="none" xmlns="http://www.w3.org/2000/svg">
<path d="M44.7305 23.3021L42.5846 20.3229C42.1044 19.6484 41.4702 19.098 40.7347 18.7176C39.9991 18.3372 39.1835 18.1376 38.3555 18.1354H29.2305V13.6771C29.2305 12.2957 28.6817 10.971 27.705 9.99424C26.7282 9.01748 25.4035 8.46875 24.0221 8.46875H9.5013C8.12115 8.4726 6.79862 9.02257 5.82271 9.99849C4.84679 10.9744 4.29682 12.2969 4.29297 13.6771V34.3854C4.29297 35.2142 4.62221 36.0091 5.20826 36.5951C5.79431 37.1812 6.58917 37.5104 7.41797 37.5104H9.95964C10.1169 38.6251 10.6715 39.6454 11.5213 40.3837C12.3711 41.122 13.4589 41.5285 14.5846 41.5285C15.7103 41.5285 16.7982 41.122 17.648 40.3837C18.4977 39.6454 19.0523 38.6251 19.2096 37.5104H30.793C30.9503 38.6251 31.5049 39.6454 32.3546 40.3837C33.2044 41.122 34.2923 41.5285 35.418 41.5285C36.5437 41.5285 37.6315 41.122 38.4813 40.3837C39.3311 39.6454 39.8857 38.6251 40.043 37.5104H42.5846C43.4134 37.5104 44.2083 37.1812 44.7943 36.5951C45.3804 36.0091 45.7096 35.2142 45.7096 34.3854V26.3229C45.7046 25.2388 45.3624 24.1831 44.7305 23.3021ZM14.5846 39.4479C14.0696 39.4479 13.5661 39.2952 13.1378 39.009C12.7096 38.7229 12.3758 38.3162 12.1787 37.8403C11.9816 37.3645 11.93 36.8409 12.0305 36.3357C12.131 35.8305 12.379 35.3665 12.7432 35.0023C13.1074 34.6381 13.5714 34.3901 14.0766 34.2896C14.5817 34.1891 15.1054 34.2407 15.5812 34.4378C16.0571 34.6349 16.4638 34.9687 16.7499 35.397C17.0361 35.8252 17.1888 36.3287 17.1888 36.8438C17.1888 37.5344 16.9144 38.1968 16.4261 38.6852C15.9377 39.1736 15.2753 39.4479 14.5846 39.4479ZM27.1471 35.4271H19.0638C18.7605 34.4773 18.1631 33.6486 17.358 33.0606C16.5528 32.4725 15.5816 32.1556 14.5846 32.1556C13.5876 32.1556 12.6164 32.4725 11.8113 33.0606C11.0062 33.6486 10.4088 34.4773 10.1055 35.4271H7.41797C7.1417 35.4271 6.87675 35.3173 6.6814 35.122C6.48605 34.9266 6.3763 34.6617 6.3763 34.3854V13.6771C6.3763 12.8483 6.70554 12.0534 7.29159 11.4674C7.87764 10.8813 8.6725 10.5521 9.5013 10.5521H24.0221C24.8509 10.5521 25.6458 10.8813 26.2318 11.4674C26.8179 12.0534 27.1471 12.8483 27.1471 13.6771V35.4271ZM35.418 39.4479C34.9029 39.4479 34.3994 39.2952 33.9712 39.009C33.5429 38.7229 33.2091 38.3162 33.012 37.8403C32.8149 37.3645 32.7634 36.8409 32.8638 36.3357C32.9643 35.8305 33.2123 35.3665 33.5765 35.0023C33.9407 34.6381 34.4048 34.3901 34.9099 34.2896C35.4151 34.1891 35.9387 34.2407 36.4145 34.4378C36.8904 34.6349 37.2971 34.9687 37.5833 35.397C37.8694 35.8252 38.0221 36.3287 38.0221 36.8438C38.0221 37.5344 37.7478 38.1968 37.2594 38.6852C36.771 39.1736 36.1086 39.4479 35.418 39.4479ZM43.6263 34.3854C43.6263 34.6617 43.5166 34.9266 43.3212 35.122C43.1259 35.3173 42.8609 35.4271 42.5846 35.4271H39.8971C39.5938 34.4773 38.9964 33.6486 38.1913 33.0606C37.3862 32.4725 36.415 32.1556 35.418 32.1556C34.421 32.1556 33.4498 32.4725 32.6446 33.0606C31.8395 33.6486 31.2421 34.4773 30.9388 35.4271H29.2305V20.2188H38.3555C38.8525 20.2221 39.3418 20.3427 39.7834 20.5708C40.2251 20.7988 40.6066 21.1279 40.8971 21.5313L43.043 24.5104C43.4179 25.0409 43.6215 25.6734 43.6263 26.3229V34.3854Z" fill="black" stroke="#F6F0F0" stroke-width="0.8"/>
<path d="M37.5599 25.4271H33.3932C33.117 25.4271 32.852 25.3173 32.6567 25.122C32.4613 24.9266 32.3516 24.6617 32.3516 24.3854C32.3516 24.1091 32.4613 23.8442 32.6567 23.6488C32.852 23.4535 33.117 23.3438 33.3932 23.3438H37.5599C37.8362 23.3438 38.1011 23.4535 38.2965 23.6488C38.4918 23.8442 38.6016 24.1091 38.6016 24.3854C38.6016 24.6617 38.4918 24.9266 38.2965 25.122C38.1011 25.3173 37.8362 25.4271 37.5599 25.4271Z" fill="black" stroke="#FFE9E9" stroke-width="0.58"/>
</svg>
