<svg width="100" height="100" viewBox="0 0 100 100" fill="none" xmlns="http://www.w3.org/2000/svg">
<path d="M48.5 10C58.7108 10 68.5035 14.0754 75.7236 21.3298C82.9438 28.5841 87 38.4231 87 48.6823V94H10V48.6823C10 43.6024 10.9958 38.5723 12.9306 33.8792C14.8654 29.186 17.7013 24.9217 21.2764 21.3298C24.8514 17.7378 29.0957 14.8885 33.7667 12.9445C38.4377 11.0005 43.4441 10 48.5 10Z" fill="#F6F0F0"/>
<path d="M52.5134 7C57.5675 7 62.5722 8.00054 67.2416 9.94451C71.911 11.8885 76.1537 14.7378 79.7275 18.3298C83.3013 21.9218 86.1362 26.1861 88.0704 30.8792C90.0045 35.5724 91 40.6024 91 45.6823V91H14V45.6823C14 35.4231 18.0548 25.5841 25.2725 18.3298C32.4901 11.0754 42.2793 7 52.4866 7H52.5134Z" stroke="black" stroke-linecap="round" stroke-linejoin="round"/>
<path d="M31 57H26V88H31V57Z" stroke="black" stroke-linejoin="bevel"/>
<path d="M78 57H74V88H78V57Z" stroke="black" stroke-linejoin="bevel"/>
<path d="M74 57H31V69H74V57Z" stroke="black" stroke-linejoin="bevel"/>
<path d="M74 69H31V82H74V69Z" stroke="black" stroke-linejoin="bevel"/>
<path d="M40 62H44" stroke="black" stroke-linejoin="bevel"/>
<path d="M58 62H63" stroke="black" stroke-linejoin="bevel"/>
<path d="M40 76H44" stroke="black" stroke-linejoin="bevel"/>
<path d="M58 76H63" stroke="black" stroke-linejoin="bevel"/>
<path d="M23 57H82" stroke="black" stroke-linejoin="bevel"/>
<path d="M31 84H74" stroke="black" stroke-linejoin="bevel"/>
<path d="M58 52H47V57H58V52Z" stroke="black" stroke-linejoin="bevel"/>
<path d="M52 52L58 42" stroke="black" stroke-linejoin="bevel"/>
<path d="M59.5 42C60.3284 42 61 41.3284 61 40.5C61 39.6716 60.3284 39 59.5 39C58.6716 39 58 39.6716 58 40.5C58 41.3284 58.6716 42 59.5 42Z" stroke="black" stroke-linejoin="bevel"/>
<path d="M58 39L52 37" stroke="black" stroke-linejoin="bevel"/>
<path d="M44 33.8927L49.1047 43L50.1444 42.3977C50.4363 42.2307 50.6505 41.9538 50.7401 41.6279C50.8298 41.302 50.7875 40.9536 50.6227 40.659L50.5187 40.4757C50.338 40.1524 50.2912 39.7702 50.3885 39.4123C50.4858 39.0544 50.7194 38.7496 51.0385 38.5642L51.2984 38.4123C51.6186 38.2279 51.853 37.9231 51.9505 37.5648C52.0479 37.2065 52.0004 36.8238 51.8183 36.5008L50.7786 34.694C50.5955 34.3715 50.293 34.1352 49.9373 34.0371C49.5817 33.9389 49.2019 33.9868 48.8812 34.1703C48.7226 34.2618 48.5476 34.3209 48.3663 34.3441C48.1849 34.3674 48.0008 34.3543 47.8245 34.3056C47.6482 34.2569 47.4832 34.1737 47.3389 34.0606C47.1947 33.9475 47.074 33.8068 46.9838 33.6466C46.818 33.3525 46.5432 33.1367 46.2197 33.0464C45.8962 32.9561 45.5504 32.9987 45.258 33.1648L44 33.8927Z" stroke="black" stroke-linejoin="bevel"/>
<path d="M47 40.6281C46.7809 40.794 46.5325 40.908 46.2708 40.9627C46.009 41.0175 45.7396 41.0119 45.48 40.9462C45.2203 40.8805 44.9761 40.7562 44.763 40.5812C44.5499 40.4063 44.3727 40.1847 44.2427 39.9305C44.1127 39.6763 44.0328 39.3953 44.0082 39.1054C43.9835 38.8155 44.0147 38.5232 44.0996 38.2472C44.1845 37.9712 44.3213 37.7177 44.5013 37.5029C44.6812 37.2881 44.9003 37.1168 45.1444 37" stroke="black" stroke-linejoin="bevel"/>
</svg>
