<svg width="60" height="60" viewBox="0 0 60 60" fill="none" xmlns="http://www.w3.org/2000/svg">
<mask id="mask0_7487_10242" style="mask-type:luminance" maskUnits="userSpaceOnUse" x="0" y="1" width="60" height="58">
<path d="M9.29143 24.427L4.646 27.0345L0 24.427L4.646 21.8189L9.29143 24.427ZM60 24.427L55.3546 27.0345L50.7086 24.427L55.3546 21.8189L60 24.427ZM33.2359 45.9582L32.981 46.1013L32.5025 46.3697L32.2787 46.4955L32.0665 46.614L32.0038 46.6492V51.2242C34.0768 51.3527 36.0981 51.6815 38.0493 52.1886C40.6964 52.8768 43.2084 53.9005 45.5357 55.2081L43.5305 58.5716C41.5143 57.4378 39.328 56.5494 37.015 55.9478C34.7849 55.3675 32.4317 55.0578 29.9991 55.0578C27.5654 55.0578 25.2134 55.3675 22.9827 55.9478C20.6697 56.5494 18.4834 57.4378 16.4672 58.5716L14.4626 55.2081C16.7893 53.8999 19.3019 52.8768 21.9496 52.1886C23.899 51.6815 25.9214 51.3527 27.9945 51.2242V46.6487L6.89509 34.8079L22.4886 26.0572L26.6232 28.3774L15.1649 34.8091L29.9997 43.1343L44.8362 34.8074L43.5103 34.0638C31.5649 27.361 19.6194 20.6599 7.67623 13.9549L25.8657 3.74833L27.933 2.5888L30.0003 1.42871L53.4178 14.2182L38.2943 22.7056L34.1597 20.3859L44.8356 14.3937L30.0009 6.0685L15.9467 13.9549L17.2725 14.6984C29.2168 21.4018 41.1629 28.1018 53.1061 34.8068C49.0393 37.0873 38.3386 43.0952 33.2359 45.9582Z" fill="white"/>
</mask>
<g mask="url(#mask0_7487_10242)">
<path d="M60 1.42871H0V58.5716H60V1.42871Z" fill="#A86464"/>
</g>
</svg>
