<svg width="108" height="41" viewBox="0 0 108 41" fill="none" xmlns="http://www.w3.org/2000/svg">
<rect x="0.25" y="0.25" width="107.5" height="40.5" fill="#0D0D0D" stroke="white" stroke-width="0.5"/>
<path d="M4.71094 3.10938H103.286V37.892H4.71094V3.10938Z" fill="#0D0D0D"/>
<path d="M36.4213 13.3298H38.0081V15.6234C37.77 15.7075 37.5247 15.77 37.2721 15.811C37.0216 15.852 36.7411 15.8725 36.4306 15.8725C35.9586 15.8725 35.5601 15.7744 35.2351 15.5781C34.9121 15.3818 34.6668 15.1026 34.4991 14.7402C34.3314 14.3758 34.2476 13.9434 34.2476 13.443C34.2476 12.9534 34.3397 12.5264 34.5239 12.162C34.7103 11.7975 34.9783 11.515 35.3282 11.3144C35.6801 11.1117 36.1025 11.0103 36.5952 11.0103C36.8477 11.0103 37.0868 11.0351 37.3125 11.0847C37.5402 11.1321 37.7514 11.2001 37.946 11.2885L37.7441 11.7673C37.5765 11.6918 37.3912 11.6271 37.1883 11.5732C36.9875 11.5193 36.7794 11.4923 36.5641 11.4923C36.1936 11.4923 35.8758 11.5721 35.6108 11.7317C35.3479 11.8913 35.146 12.1167 35.0053 12.4078C34.8666 12.699 34.7972 13.044 34.7972 13.443C34.7972 13.8377 34.8583 14.1817 34.9804 14.475C35.1026 14.7661 35.293 14.9926 35.5518 15.1543C35.8106 15.3161 36.1439 15.3969 36.5517 15.3969C36.7567 15.3969 36.9326 15.3851 37.0796 15.3614C37.2266 15.3355 37.3601 15.3053 37.4802 15.2708V13.8215H36.4213V13.3298Z" fill="white"/>
<path d="M41.6351 15.8078H39.1074V11.0782H41.6351V11.5635H39.6353V13.0936H41.5202V13.5724H39.6353V15.3225H41.6351V15.8078Z" fill="white"/>
<path d="M44.0355 15.8078H43.5045V11.5635H42.076V11.0782H45.4577V11.5635H44.0355V15.8078Z" fill="white"/>
<path d="M47.796 15.8078V11.0782H48.3239V15.8078H47.796Z" fill="white"/>
<path d="M50.9665 15.8078H50.4355V11.5635H49.0071V11.0782H52.3888V11.5635H50.9665V15.8078Z" fill="white"/>
<path d="M58.6646 13.4365C58.6646 13.801 58.6201 14.1331 58.531 14.4329C58.442 14.7305 58.3095 14.9872 58.1336 15.2028C57.9597 15.4164 57.7433 15.5813 57.4846 15.6978C57.2258 15.8143 56.9256 15.8725 56.584 15.8725C56.2321 15.8725 55.9247 15.8143 55.6618 15.6978C55.4009 15.5813 55.1835 15.4153 55.0096 15.1996C54.8378 14.9839 54.7084 14.7262 54.6215 14.4264C54.5366 14.1267 54.4942 13.7945 54.4942 13.4301C54.4942 12.947 54.5708 12.5232 54.7239 12.1587C54.8771 11.7942 55.109 11.5106 55.4195 11.3079C55.7321 11.1052 56.1234 11.0038 56.5933 11.0038C57.0426 11.0038 57.4204 11.1041 57.7268 11.3047C58.0352 11.5053 58.2681 11.7878 58.4255 12.1522C58.5849 12.5146 58.6646 12.9427 58.6646 13.4365ZM55.05 13.4365C55.05 13.8377 55.1049 14.1849 55.2146 14.4782C55.3243 14.7715 55.492 14.998 55.7176 15.1576C55.9454 15.3171 56.2342 15.3969 56.584 15.3969C56.936 15.3969 57.2237 15.3171 57.4473 15.1576C57.673 14.998 57.8396 14.7715 57.9473 14.4782C58.0549 14.1849 58.1087 13.8377 58.1087 13.4365C58.1087 12.8262 57.9855 12.3496 57.7392 12.0067C57.4949 11.6616 57.113 11.4891 56.5933 11.4891C56.2414 11.4891 55.9516 11.5678 55.7239 11.7252C55.4961 11.8827 55.3264 12.107 55.2146 12.3981C55.1049 12.6871 55.05 13.0332 55.05 13.4365Z" fill="white"/>
<path d="M63.2263 15.8078H62.6176L60.1427 11.8352H60.1179C60.1241 11.9409 60.1313 12.0617 60.1396 12.1975C60.1479 12.3313 60.1541 12.4747 60.1582 12.6278C60.1644 12.7788 60.1675 12.933 60.1675 13.0904V15.8078H59.6769V11.0782H60.2824L62.7481 15.0379H62.7698C62.7656 14.9624 62.7605 14.8556 62.7543 14.7176C62.7481 14.5774 62.7418 14.4275 62.7356 14.2679C62.7315 14.1062 62.7294 13.9563 62.7294 13.8183V11.0782H63.2263V15.8078Z" fill="white"/>
<path d="M37.6841 24.6318H40.6859V28.7186C40.2891 28.8552 39.8768 28.9649 39.449 29.0475C39.0211 29.1266 38.5363 29.1661 37.9946 29.1661C37.2425 29.1661 36.6041 29.0116 36.0797 28.7025C35.5552 28.3933 35.1567 27.9368 34.8842 27.333C34.6116 26.7291 34.4753 25.9869 34.4753 25.1062C34.4753 24.2795 34.6271 23.5642 34.9307 22.9603C35.2378 22.3565 35.6846 21.8892 36.2712 21.5585C36.8612 21.2278 37.5806 21.0625 38.4294 21.0625C38.8296 21.0625 39.2247 21.1074 39.6146 21.1973C40.0045 21.2871 40.3581 21.404 40.6755 21.5477L40.1425 22.8849C39.9113 22.7627 39.6473 22.6602 39.3506 22.5775C39.0539 22.4949 38.7434 22.4535 38.419 22.4535C37.9532 22.4535 37.5478 22.565 37.2028 22.7878C36.8612 23.0107 36.5955 23.3234 36.4058 23.726C36.2194 24.1249 36.1263 24.5958 36.1263 25.1386C36.1263 25.6526 36.1936 26.1091 36.3281 26.5081C36.4627 26.9034 36.6749 27.2144 36.9647 27.4408C37.2545 27.6637 37.6323 27.7751 38.0981 27.7751C38.3259 27.7751 38.5174 27.7643 38.6726 27.7427C38.8313 27.7176 38.9797 27.6924 39.1177 27.6673V26.0228H37.6841V24.6318Z" fill="white"/>
<path d="M47.6263 26.0336C47.6263 26.5368 47.5607 26.9825 47.4296 27.3707C47.3019 27.7589 47.1139 28.0878 46.8655 28.3574C46.6205 28.6234 46.3237 28.8247 45.9753 28.9613C45.6302 29.0978 45.2403 29.1661 44.8056 29.1661C44.3985 29.1661 44.0241 29.0978 43.6825 28.9613C43.3444 28.8247 43.0494 28.6234 42.7975 28.3574C42.5491 28.0878 42.3559 27.7589 42.2178 27.3707C42.0833 26.9825 42.016 26.5368 42.016 26.0336C42.016 25.365 42.1299 24.7989 42.3576 24.3352C42.5853 23.8715 42.9096 23.5193 43.3306 23.2785C43.7515 23.0376 44.2535 22.9172 44.8367 22.9172C45.3784 22.9172 45.858 23.0376 46.2754 23.2785C46.6964 23.5193 47.0259 23.8715 47.264 24.3352C47.5055 24.7989 47.6263 25.365 47.6263 26.0336ZM43.6256 26.0336C43.6256 26.429 43.667 26.7615 43.7498 27.031C43.8326 27.3006 43.962 27.5037 44.138 27.6403C44.3139 27.7769 44.5434 27.8452 44.8263 27.8452C45.1058 27.8452 45.3318 27.7769 45.5043 27.6403C45.6803 27.5037 45.8079 27.3006 45.8873 27.031C45.9701 26.7615 46.0115 26.429 46.0115 26.0336C46.0115 25.6346 45.9701 25.3039 45.8873 25.0415C45.8079 24.7755 45.6803 24.576 45.5043 24.4431C45.3283 24.3101 45.0989 24.2436 44.816 24.2436C44.3985 24.2436 44.0948 24.3927 43.9051 24.6911C43.7187 24.9894 43.6256 25.4369 43.6256 26.0336Z" fill="white"/>
<path d="M54.1888 26.0336C54.1888 26.5368 54.1232 26.9825 53.9921 27.3707C53.8645 27.7589 53.6764 28.0878 53.428 28.3574C53.183 28.6234 52.8863 28.8247 52.5378 28.9613C52.1928 29.0978 51.8029 29.1661 51.3681 29.1661C50.961 29.1661 50.5866 29.0978 50.2451 28.9613C49.9069 28.8247 49.6119 28.6234 49.3601 28.3574C49.1116 28.0878 48.9184 27.7589 48.7804 27.3707C48.6458 26.9825 48.5785 26.5368 48.5785 26.0336C48.5785 25.365 48.6924 24.7989 48.9201 24.3352C49.1479 23.8715 49.4722 23.5193 49.8931 23.2785C50.3141 23.0376 50.8161 22.9172 51.3992 22.9172C51.9409 22.9172 52.4205 23.0376 52.838 23.2785C53.2589 23.5193 53.5884 23.8715 53.8265 24.3352C54.068 24.7989 54.1888 25.365 54.1888 26.0336ZM50.1881 26.0336C50.1881 26.429 50.2295 26.7615 50.3123 27.031C50.3951 27.3006 50.5245 27.5037 50.7005 27.6403C50.8765 27.7769 51.1059 27.8452 51.3888 27.8452C51.6683 27.8452 51.8943 27.7769 52.0668 27.6403C52.2428 27.5037 52.3705 27.3006 52.4498 27.031C52.5326 26.7615 52.574 26.429 52.574 26.0336C52.574 25.6346 52.5326 25.3039 52.4498 25.0415C52.3705 24.7755 52.2428 24.576 52.0668 24.4431C51.8909 24.3101 51.6614 24.2436 51.3785 24.2436C50.961 24.2436 50.6574 24.3927 50.4676 24.6911C50.2813 24.9894 50.1881 25.4369 50.1881 26.0336Z" fill="white"/>
<path d="M57.1854 31.711C56.378 31.711 55.7604 31.5636 55.3326 31.2689C54.9082 30.9777 54.696 30.568 54.696 30.0396C54.696 29.6765 54.8047 29.3728 55.0221 29.1284C55.2394 28.884 55.5586 28.7096 55.9795 28.6054C55.8174 28.5335 55.6759 28.4167 55.5551 28.2549C55.4344 28.0896 55.374 27.9153 55.374 27.732C55.374 27.5019 55.4378 27.3114 55.5655 27.1604C55.6931 27.0059 55.8777 26.8549 56.1193 26.7075C55.8156 26.571 55.5741 26.3517 55.3947 26.0498C55.2187 25.7478 55.1307 25.392 55.1307 24.9822C55.1307 24.5437 55.2222 24.1717 55.405 23.8661C55.5914 23.557 55.8605 23.3216 56.2124 23.1598C56.5678 22.9981 56.9991 22.9172 57.5063 22.9172C57.6133 22.9172 57.7375 22.9244 57.8789 22.9388C58.0204 22.9532 58.1498 22.9693 58.2671 22.9873C58.3879 23.0053 58.4689 23.0197 58.5103 23.0304H60.5288V23.8661L59.6231 24.1088C59.7059 24.2418 59.768 24.3837 59.8094 24.5347C59.8508 24.6857 59.8715 24.8456 59.8715 25.0146C59.8715 25.6616 59.6541 26.1666 59.2194 26.5296C58.7881 26.8891 58.1877 27.0688 57.4183 27.0688C57.2354 27.058 57.0629 27.0436 56.9008 27.0257C56.8214 27.0904 56.761 27.1586 56.7196 27.2305C56.6782 27.3024 56.6575 27.3779 56.6575 27.457C56.6575 27.5361 56.6886 27.6026 56.7507 27.6565C56.8162 27.7068 56.9128 27.7463 57.0405 27.7751C57.1716 27.8003 57.3338 27.8128 57.527 27.8128H58.5103C59.1452 27.8128 59.6283 27.9548 59.9595 28.2388C60.2942 28.5227 60.4615 28.9397 60.4615 29.4896C60.4615 30.1941 60.1786 30.7405 59.6127 31.1287C59.0503 31.5169 58.2412 31.711 57.1854 31.711ZM57.2527 30.6381C57.6288 30.6381 57.9514 30.6003 58.2205 30.5248C58.4931 30.4529 58.7018 30.3487 58.8468 30.2121C58.9917 30.0791 59.0641 29.9192 59.0641 29.7323C59.0641 29.5813 59.021 29.4609 58.9347 29.371C58.8519 29.2848 58.7243 29.2236 58.5518 29.1877C58.3827 29.1518 58.1653 29.1338 57.8996 29.1338H57.0819C56.8887 29.1338 56.7144 29.1661 56.5592 29.2308C56.4074 29.2955 56.2866 29.3854 56.1969 29.5004C56.1072 29.619 56.0623 29.7556 56.0623 29.9102C56.0623 30.1366 56.1658 30.3146 56.3729 30.444C56.5833 30.5734 56.8766 30.6381 57.2527 30.6381ZM57.5063 26.0659C57.803 26.0659 58.0204 25.9707 58.1584 25.7802C58.2964 25.5897 58.3654 25.3309 58.3654 25.0038C58.3654 24.6407 58.293 24.3694 58.1481 24.1896C58.0066 24.0063 57.7927 23.9147 57.5063 23.9147C57.2165 23.9147 56.9991 24.0063 56.8542 24.1896C56.7093 24.3694 56.6368 24.6407 56.6368 25.0038C56.6368 25.3309 56.7075 25.5897 56.849 25.7802C56.9939 25.9707 57.213 26.0659 57.5063 26.0659Z" fill="white"/>
<path d="M63.0648 29.0583H61.4863V20.6689H63.0648V29.0583Z" fill="white"/>
<path d="M67.112 22.9172C67.6468 22.9172 68.1075 23.025 68.4939 23.2407C68.8803 23.4528 69.1788 23.7619 69.3893 24.1681C69.5997 24.5742 69.705 25.0703 69.705 25.6562V26.4541H65.9734C65.9907 26.9178 66.1235 27.2827 66.3719 27.5486C66.6238 27.811 66.9723 27.9422 67.4174 27.9422C67.7866 27.9422 68.1247 27.9027 68.4318 27.8236C68.7389 27.7445 69.0546 27.6259 69.3789 27.4678V28.7402C69.0925 28.8876 68.7924 28.9954 68.4784 29.0637C68.1678 29.132 67.79 29.1661 67.3449 29.1661C66.7653 29.1661 66.2512 29.0547 65.8026 28.8319C65.3575 28.609 65.0073 28.2693 64.752 27.8128C64.5001 27.3563 64.3742 26.7812 64.3742 26.0875C64.3742 25.383 64.4881 24.7971 64.7158 24.3298C64.947 23.859 65.2678 23.5067 65.6784 23.2731C66.089 23.0358 66.5669 22.9172 67.112 22.9172ZM67.1224 24.0872C66.8153 24.0872 66.56 24.1896 66.3564 24.3945C66.1563 24.5994 66.0407 24.9211 66.0097 25.3596H68.2248C68.2213 25.1152 68.1782 24.8977 68.0954 24.7072C68.016 24.5167 67.8953 24.3658 67.7331 24.2543C67.5744 24.1429 67.3708 24.0872 67.1224 24.0872Z" fill="white"/>
<path d="M76.283 21.1757C77.2595 21.1757 77.972 21.395 78.4205 21.8335C78.8691 22.2684 79.0933 22.8687 79.0933 23.6343C79.0933 23.9794 79.0433 24.3101 78.9433 24.6264C78.8432 24.9391 78.6793 25.2177 78.4516 25.4621C78.2273 25.7065 77.9271 25.9006 77.551 26.0444C77.175 26.1846 76.7109 26.2546 76.1588 26.2546H75.4705V29.0583H73.8661V21.1757H76.283ZM76.2002 22.5452H75.4705V24.8852H75.9984C76.2986 24.8852 76.5591 24.8438 76.7799 24.7612C77.0007 24.6785 77.1715 24.5491 77.2923 24.373C77.413 24.1968 77.4734 23.9704 77.4734 23.6936C77.4734 23.3054 77.3699 23.0179 77.1629 22.8309C76.9559 22.6404 76.635 22.5452 76.2002 22.5452Z" fill="white"/>
<path d="M81.9761 29.0583H80.3976V20.6689H81.9761V29.0583Z" fill="white"/>
<path d="M86.0078 22.9064C86.7841 22.9064 87.3793 23.0826 87.7934 23.4348C88.2074 23.7871 88.4144 24.3226 88.4144 25.0415V29.0583H87.312L87.0067 28.2388H86.9653C86.7997 28.4544 86.6306 28.6306 86.4581 28.7672C86.2856 28.9037 86.0872 29.0044 85.8629 29.0691C85.6386 29.1338 85.3661 29.1661 85.0452 29.1661C84.7036 29.1661 84.3965 29.0978 84.1239 28.9613C83.8548 28.8247 83.6426 28.6162 83.4874 28.3358C83.3321 28.0519 83.2545 27.6924 83.2545 27.2575C83.2545 26.6177 83.4701 26.1468 83.9014 25.8449C84.3327 25.5394 84.9796 25.3704 85.8422 25.3381L86.8463 25.3057V25.0415C86.8463 24.7252 86.7669 24.4934 86.6082 24.346C86.4495 24.1986 86.2286 24.1249 85.9457 24.1249C85.6662 24.1249 85.3919 24.1663 85.1228 24.249C84.8537 24.3316 84.5846 24.4359 84.3154 24.5617L83.7927 23.451C84.0998 23.2821 84.4431 23.1491 84.8226 23.052C85.2056 22.955 85.6007 22.9064 86.0078 22.9064ZM86.8463 26.2654L86.2355 26.287C85.7249 26.3014 85.3695 26.3966 85.1694 26.5728C84.9727 26.7489 84.8744 26.9807 84.8744 27.2683C84.8744 27.5199 84.9451 27.6996 85.0866 27.8074C85.2281 27.9117 85.4126 27.9638 85.6404 27.9638C85.9785 27.9638 86.2632 27.8596 86.4943 27.6511C86.729 27.4426 86.8463 27.1461 86.8463 26.7615V26.2654Z" fill="white"/>
<path d="M89.2166 23.0304H90.9453L92.0373 26.4218C92.0718 26.5296 92.1011 26.6393 92.1253 26.7507C92.1494 26.8621 92.1701 26.9771 92.1874 27.0957C92.2046 27.2144 92.2184 27.3384 92.2288 27.4678H92.2598C92.2805 27.2737 92.3081 27.0922 92.3426 26.9232C92.3806 26.7543 92.4272 26.5871 92.4824 26.4218L93.5537 23.0304H95.2461L92.7981 29.8293C92.6497 30.2463 92.4565 30.5931 92.2184 30.8699C91.9804 31.1503 91.7061 31.3605 91.3955 31.5007C91.0884 31.6409 90.7503 31.711 90.3811 31.711C90.2017 31.711 90.0464 31.7002 89.9153 31.6786C89.7842 31.6607 89.6721 31.6409 89.5789 31.6193V30.3146C89.6514 30.3325 89.7428 30.3487 89.8532 30.3631C89.9636 30.3775 90.0792 30.3847 90.2 30.3847C90.4208 30.3847 90.6106 30.3361 90.7693 30.2391C90.928 30.142 91.0608 30.0108 91.1678 29.8455C91.2748 29.6837 91.3593 29.5058 91.4214 29.3117L91.5146 29.0152L89.2166 23.0304Z" fill="white"/>
<path d="M26.8322 18.8431L24.1932 17.2552L21.4914 20.0698L24.193 22.8842L26.8412 21.291C27.2541 21.0297 27.5006 20.5731 27.5006 20.0698C27.5006 19.5666 27.254 19.11 26.8322 18.8431Z" fill="#FFCE00"/>
<path d="M21.4914 20.0698L14.132 12.3482C13.8761 12.6148 13.7206 12.9766 13.7206 13.3766V26.7394C13.7206 27.1394 13.8761 27.5012 14.132 27.768L21.4914 20.0698Z" fill="url(#paint0_linear_7487_9582)"/>
<path d="M21.4914 20.0698L24.1932 17.2552L24.1973 17.2507L20.5773 15.0794L15.8052 12.1576C15.3755 11.8814 14.8544 11.8719 14.4156 12.129C14.3151 12.1956 14.2234 12.2625 14.132 12.3482L21.4914 20.0698Z" fill="#00F076"/>
<path d="M14.132 27.768C14.2234 27.8537 14.3151 27.9202 14.4156 27.9868C14.6349 28.1105 14.8636 28.1773 15.0921 28.1773C15.3389 28.1773 15.5765 28.1012 15.7961 27.9679L20.5771 25.0601L24.1971 22.8888L24.193 22.8842L21.4914 20.0698L14.132 27.768Z" fill="#F63448"/>
<defs>
<linearGradient id="paint0_linear_7487_9582" x1="-37.0112" y1="29.1962" x2="-30.7821" y2="-4.43209" gradientUnits="userSpaceOnUse">
<stop stop-color="#00E2FF"/>
<stop offset="1" stop-color="#00C5FF"/>
</linearGradient>
</defs>
</svg>
