<svg width="18" height="18" viewBox="0 0 18 18" fill="none" xmlns="http://www.w3.org/2000/svg">
<circle cx="9" cy="9" r="8.5" stroke="#999999"/>
<path d="M9.66039 12.7059C9.00744 12.7059 8.43171 12.5543 7.93318 12.2511C7.43465 11.9479 7.04642 11.4856 6.76847 10.8642C6.49053 10.2428 6.35156 9.45988 6.35156 8.51538C6.35156 7.52616 6.49715 6.71837 6.78833 6.09202C7.08392 5.4607 7.4898 4.99343 8.00597 4.6902C8.52215 4.38697 9.10892 4.23535 9.76627 4.23535C10.128 4.23535 10.4766 4.27761 10.8119 4.36211C11.1516 4.44165 11.4295 4.54355 11.6457 4.66783L11.3148 5.70428C11.0942 5.60486 10.8383 5.51538 10.5472 5.43585C10.2604 5.35631 9.99127 5.31654 9.7398 5.31654C9.23686 5.31654 8.81774 5.43833 8.48245 5.68191C8.15156 5.92549 7.9023 6.2834 7.73465 6.75565C7.57142 7.2279 7.4898 7.8095 7.4898 8.50047C7.4898 9.16161 7.56921 9.72582 7.72803 10.1931C7.89127 10.6604 8.13171 11.0183 8.44936 11.2668C8.77142 11.5104 9.17289 11.6322 9.65377 11.6322C10.0376 11.6322 10.3839 11.5875 10.6927 11.498C11.0016 11.4035 11.2817 11.2942 11.5332 11.1699V12.2735C11.2905 12.4127 11.0192 12.5195 10.7192 12.5941C10.4236 12.6687 10.0707 12.7059 9.66039 12.7059Z" fill="#999999"/>
</svg>
