<svg width="82" height="87" viewBox="0 0 82 87" fill="none" xmlns="http://www.w3.org/2000/svg">
<path d="M38.5 3C48.7108 3 58.5035 7.07543 65.7236 14.3298C72.9438 21.5841 77 31.4231 77 41.6823V87H0V41.6823C0 36.6024 0.995832 31.5723 2.93064 26.8792C4.86544 22.186 7.70133 17.9217 11.2764 14.3298C14.8514 10.7378 19.0957 7.88847 23.7667 5.94451C28.4377 4.00054 33.4441 3 38.5 3Z" fill="#F6F0F0"/>
<path d="M42.9863 0.5H43.0137C48.0017 0.500037 52.9413 1.48765 57.5498 3.40625C62.1582 5.32488 66.3456 8.13729 69.873 11.6826C73.4005 15.228 76.1992 19.4368 78.1084 24.0693C80.0176 28.702 81 33.6681 81 38.6826V83.5H5V38.6826C5 28.5553 9.00285 18.843 16.127 11.6826C23.0285 4.74598 32.3117 0.75429 42.0439 0.511719L42.9863 0.5Z" stroke="black" stroke-linecap="round" stroke-linejoin="round"/>
</svg>
