<svg width="60" height="60" viewBox="0 0 60 60" fill="none" xmlns="http://www.w3.org/2000/svg">
<g clip-path="url(#clip0_1_14321)">
<path d="M8.00127 60H51.9983C53.655 60 54.9981 58.6569 54.9981 57.0002V23.2564L55.353 23.4914C56.0053 23.9418 56.8141 24.1045 57.5898 23.9414C58.388 23.7762 59.0842 23.2926 59.5176 22.6024L59.5237 22.5924C60.4023 21.1769 60.0176 19.3213 58.6488 18.3717L31.6456 0.504024C30.6538 -0.168008 29.3527 -0.168008 28.3609 0.504024L1.34266 18.3808C-0.0233956 19.3336 -0.403197 21.1897 0.478747 22.6025C0.907484 23.2922 1.59973 23.7763 2.39459 23.9424C2.5944 23.9827 2.79777 24.0028 3.00154 24.0025C3.58432 24.0033 4.15383 23.8291 4.63645 23.5025L5.00139 23.2575V57.0002C5.00139 58.6569 6.34447 60 8.00127 60ZM52.9981 57.0002C52.9981 57.5525 52.5505 58.0001 51.9982 58.0001H8.00127C7.449 58.0001 7.00134 57.5525 7.00134 57.0002V21.9356L29.9997 6.73657L52.9981 21.9356V57.0002ZM3.52251 21.8376C3.31319 21.9823 3.05345 22.0344 2.80451 21.9816C2.5418 21.9267 2.31326 21.7662 2.1726 21.5376C1.856 21.0438 1.97923 20.3888 2.45354 20.0437L29.4727 2.16598C29.6282 2.06038 29.8118 2.00401 29.9997 2.00401C30.1914 2.0048 30.3783 2.06295 30.5367 2.17103L57.5379 20.0388C58.0161 20.3806 58.1442 21.0362 57.8298 21.5328C57.6858 21.7641 57.4536 21.9266 57.1869 21.9827C56.9363 22.0325 56.6761 21.9777 56.467 21.8308L30.5517 4.70373C30.2176 4.4855 29.786 4.4855 29.4518 4.70373L3.52251 21.8376Z" fill="black" stroke="white" stroke-width="0.8"/>
<path d="M21.6464 18.8697C20.4851 17.714 18.608 17.714 17.4467 18.8697L11.8712 24.4453C10.7148 25.6064 10.7148 27.4839 11.8712 28.645L20.9195 37.7014L15.3539 43.2681C15.2332 43.3877 15.1453 43.5365 15.0989 43.7001L12.7681 51.8606C12.6023 52.4396 12.7181 53.0629 13.0807 53.5437C13.4433 54.0245 14.0107 54.3074 14.6129 54.3074C14.7911 54.307 14.9684 54.2821 15.1399 54.2334L23.3004 51.9006C23.4638 51.8541 23.6126 51.7662 23.7324 51.6456L29.3 46.082L38.3504 55.1333C39.512 56.2886 41.3885 56.2886 42.5501 55.1333L48.1256 49.5578C49.282 48.3967 49.282 46.5192 48.1256 45.3581L39.0803 36.3017L46.7367 28.6452C47.48 27.9031 47.8976 26.8958 47.8976 25.8454C47.8976 24.7951 47.48 23.7878 46.7367 23.0457L43.9489 20.2579C43.2081 19.5128 42.1998 19.0955 41.1492 19.099C40.0987 19.0954 39.0905 19.5124 38.3494 20.2569L30.6999 27.9214L21.6464 18.8697ZM18.1547 48.8457C17.5665 48.2631 16.8628 47.8101 16.0889 47.5158L16.7109 45.337L20.1786 46.8229L21.6646 50.2906L19.4857 50.9126C19.1911 50.1383 18.7377 49.4341 18.1547 48.8457ZM22.1254 46.2898L36.9694 31.4459L39.0402 33.5168L23.3673 49.1887L22.1254 46.2898ZM34.8996 26.5472L36.9704 24.4763L42.5261 30.032L40.4542 32.1019L34.8996 26.5472ZM35.5565 30.032L20.7115 44.8759L17.8117 43.634L33.4846 27.9611L35.5565 30.032ZM13.2851 27.2321C12.906 26.8526 12.906 26.2377 13.2851 25.8582L18.8606 20.2827C19.2401 19.9035 19.855 19.9035 20.2345 20.2827L22.3154 22.3635L20.2345 24.4444C19.9746 24.6954 19.8704 25.0672 19.9618 25.4169C20.0533 25.7665 20.3264 26.0395 20.6759 26.131C21.0255 26.2226 21.3973 26.1183 21.6484 25.8583L23.7293 23.7774L25.8002 25.8503L24.4163 27.2342C24.1564 27.4852 24.0521 27.857 24.1436 28.2067C24.2351 28.5563 24.5081 28.8293 24.8577 28.9208C25.2073 29.0123 25.5791 28.908 25.8302 28.6481L27.2141 27.2642L29.285 29.3351L22.3354 36.2846L13.2851 27.2321ZM14.731 52.2705L15.5309 49.4507C16.4395 49.834 17.1624 50.557 17.5458 51.4656L14.731 52.2705ZM39.7372 39.7893L38.3533 41.1732C38.0934 41.4242 37.9892 41.796 38.0806 42.1457C38.1722 42.4953 38.4452 42.7683 38.7948 42.8598C39.1443 42.9514 39.5161 42.8471 39.7672 42.5871L41.1511 41.2013L43.222 43.2721L41.1411 45.353C40.8812 45.604 40.777 45.9758 40.8684 46.3255C40.9599 46.6751 41.233 46.9481 41.5825 47.0396C41.9321 47.1312 42.3039 47.0269 42.555 46.7669L44.6359 44.686L46.7157 46.7668C47.0948 47.1463 47.0948 47.7612 46.7157 48.1407L41.1401 53.7164C40.7606 54.0955 40.1458 54.0955 39.7663 53.7164L30.7159 44.666L37.6655 37.7165L39.7372 39.7893ZM41.1501 21.1026C41.6695 21.1009 42.1679 21.3072 42.534 21.6756L45.3218 24.4633C46.0851 25.2277 46.0851 26.4658 45.3218 27.2301L43.9389 28.6181L38.3833 23.0624L39.7671 21.6785C40.1327 21.3095 40.6308 21.1021 41.1501 21.1026Z" fill="black" stroke="white" stroke-width="0.8"/>
</g>
<defs>
<clipPath id="clip0_1_14321">
<rect width="60" height="60" fill="white"/>
</clipPath>
</defs>
</svg>
