<svg width="50" height="50" viewBox="0 0 50 50" fill="none" xmlns="http://www.w3.org/2000/svg">
<path d="M43.3125 13.6055L26.125 4.19537C25.7801 4.00663 25.3932 3.90771 25 3.90771C24.6068 3.90771 24.2199 4.00663 23.875 4.19537L6.6875 13.6055C6.31879 13.8073 6.01111 14.1044 5.79669 14.4659C5.58227 14.8274 5.469 15.2399 5.46875 15.6602V34.3399C5.469 34.7602 5.58227 35.1727 5.79669 35.5342C6.01111 35.8957 6.31879 36.1928 6.6875 36.3946L23.875 45.8047C24.2197 45.9943 24.6066 46.0938 25 46.0938C25.3934 46.0938 25.7803 45.9943 26.125 45.8047L43.3125 36.3946C43.6812 36.1928 43.9889 35.8957 44.2033 35.5342C44.4177 35.1727 44.531 34.7602 44.5312 34.3399V15.6602C44.531 15.2399 44.4177 14.8274 44.2033 14.4659C43.9889 14.1044 43.6812 13.8073 43.3125 13.6055ZM24.625 5.56646C24.7396 5.50249 24.8687 5.46891 25 5.46891C25.1313 5.46891 25.2604 5.50249 25.375 5.56646L42.3184 14.8438L34.8633 18.9239C34.8279 18.8946 34.79 18.8684 34.75 18.8458L17.5625 9.4356L24.625 5.56646ZM25 24.3165L7.68164 14.8438L15.9297 10.3262L33.248 19.8067L25 24.3165ZM7.4375 35.0196C7.31479 34.9524 7.21236 34.8536 7.14089 34.7333C7.06943 34.6131 7.03157 34.4759 7.03125 34.336V16.2676L24.2188 25.6739V44.211L7.4375 35.0196ZM42.5625 35.0196L25.7812 44.1993V25.6739L33.5938 21.3985V29.6876C33.5938 29.8948 33.6761 30.0935 33.8226 30.24C33.9691 30.3865 34.1678 30.4688 34.375 30.4688C34.5822 30.4688 34.7809 30.3865 34.9274 30.24C35.0739 30.0935 35.1562 29.8948 35.1562 29.6876V20.543L42.9688 16.2676V34.3399C42.9684 34.4798 42.9306 34.617 42.8591 34.7372C42.7876 34.8575 42.6852 34.9564 42.5625 35.0235V35.0196Z" fill="black" stroke="#F6F0F0" stroke-width="0.5"/>
</svg>
