<svg width="60" height="60" viewBox="0 0 60 60" fill="none" xmlns="http://www.w3.org/2000/svg">
<path d="M51.975 16.3266L31.35 5.03439C30.9361 4.80791 30.4718 4.68921 30 4.68921C29.5282 4.68921 29.0639 4.80791 28.65 5.03439L8.025 16.3266C7.58255 16.5687 7.21333 16.9253 6.95603 17.3591C6.69873 17.7929 6.5628 18.2878 6.5625 18.7922V41.2078C6.5628 41.7122 6.69873 42.2072 6.95603 42.641C7.21333 43.0747 7.58255 43.4314 8.025 43.6735L28.65 54.9656C29.0636 55.1932 29.528 55.3125 30 55.3125C30.472 55.3125 30.9364 55.1932 31.35 54.9656L51.975 43.6735C52.4175 43.4314 52.7867 43.0747 53.044 42.641C53.3013 42.2072 53.4372 41.7122 53.4375 41.2078V18.7922C53.4372 18.2878 53.3013 17.7929 53.044 17.3591C52.7867 16.9253 52.4175 16.5687 51.975 16.3266ZM29.55 6.6797C29.6876 6.60294 29.8425 6.56264 30 6.56264C30.1575 6.56264 30.3124 6.60294 30.45 6.6797L50.782 17.8125L41.8359 22.7086C41.7935 22.6734 41.748 22.642 41.7 22.6149L21.075 11.3227L29.55 6.6797ZM30 29.1797L9.21797 17.8125L19.1156 12.3914L39.8977 23.768L30 29.1797ZM8.925 42.0235C8.77775 41.9429 8.65483 41.8243 8.56907 41.68C8.48332 41.5357 8.43788 41.371 8.4375 41.2031V19.5211L29.0625 30.8086V53.0531L8.925 42.0235ZM51.075 42.0235L30.9375 53.0391V30.8086L40.3125 25.6781V35.625C40.3125 35.8737 40.4113 36.1121 40.5871 36.2879C40.7629 36.4637 41.0014 36.5625 41.25 36.5625C41.4986 36.5625 41.7371 36.4637 41.9129 36.2879C42.0887 36.1121 42.1875 35.8737 42.1875 35.625V24.6516L51.5625 19.5211V41.2078C51.5621 41.3757 51.5167 41.5404 51.4309 41.6847C51.3452 41.8289 51.2223 41.9476 51.075 42.0281V42.0235Z" fill="black"/>
</svg>
