<svg width="197" height="49" viewBox="0 0 197 49" fill="none" xmlns="http://www.w3.org/2000/svg">
<rect y="10" width="15" height="15" fill="white"/>
<path d="M6.17578 12.3475V10.8828H9.49343V23.6416H7.8699V12.3475H6.17578Z" fill="#BFBFBF"/>
<g filter="url(#filter0_d_1_18130)">
<circle cx="42.5" cy="17.5" r="12.5" fill="black"/>
</g>
<path d="M38.3359 22.718C39.747 21.5846 40.8526 20.6569 41.6526 19.9346C42.4526 19.2013 43.1248 18.4402 43.6693 17.6513C44.2248 16.8513 44.5026 16.068 44.5026 15.3013C44.5026 14.5791 44.3248 14.0124 43.9693 13.6013C43.6248 13.1791 43.0637 12.968 42.2859 12.968C41.5304 12.968 40.9415 13.2069 40.5193 13.6846C40.1082 14.1513 39.8859 14.7791 39.8526 15.568H38.3859C38.4304 14.3235 38.8082 13.3624 39.5193 12.6846C40.2304 12.0069 41.147 11.668 42.2693 11.668C43.4137 11.668 44.3193 11.9846 44.9859 12.618C45.6637 13.2513 46.0026 14.1235 46.0026 15.2346C46.0026 16.1569 45.7248 17.0569 45.1693 17.9346C44.6248 18.8013 44.0026 19.568 43.3026 20.2346C42.6026 20.8902 41.7082 21.6569 40.6193 22.5346H46.3526V23.8013H38.3359V22.718Z" fill="white"/>
<rect x="70" y="10" width="15" height="15" fill="white"/>
<path d="M73.7254 14.3416C73.8077 13.2593 74.2254 12.4122 74.9783 11.8005C75.7313 11.1887 76.7077 10.8828 77.9077 10.8828C78.7077 10.8828 79.396 11.0299 79.9724 11.324C80.5607 11.6063 81.0018 11.9946 81.296 12.4887C81.6018 12.9828 81.7548 13.5416 81.7548 14.1652C81.7548 14.8946 81.543 15.524 81.1195 16.0534C80.7077 16.5828 80.1665 16.924 79.496 17.0769V17.1652C80.2607 17.3534 80.8665 17.724 81.3136 18.2769C81.7607 18.8299 81.9842 19.5534 81.9842 20.4475C81.9842 21.1181 81.8313 21.724 81.5254 22.2652C81.2195 22.7946 80.7607 23.2122 80.1489 23.5181C79.5371 23.824 78.8018 23.9769 77.943 23.9769C76.696 23.9769 75.6724 23.6534 74.8724 23.0063C74.0724 22.3475 73.6254 21.4181 73.5312 20.2181H75.0842C75.1665 20.924 75.4548 21.5005 75.9489 21.9475C76.443 22.3946 77.1018 22.6181 77.9254 22.6181C78.7489 22.6181 79.3724 22.4063 79.796 21.9828C80.2313 21.5475 80.4489 20.9887 80.4489 20.3063C80.4489 19.424 80.1548 18.7887 79.5665 18.4005C78.9783 18.0122 78.0901 17.8181 76.9018 17.8181H76.496V16.4769H76.9195C78.0018 16.4652 78.8195 16.2887 79.3724 15.9475C79.9254 15.5946 80.2018 15.0534 80.2018 14.324C80.2018 13.7005 79.996 13.2005 79.5842 12.824C79.1842 12.4475 78.6077 12.2593 77.8548 12.2593C77.1254 12.2593 76.5371 12.4475 76.0901 12.824C75.643 13.2005 75.3783 13.7063 75.296 14.3416H73.7254Z" fill="#BFBFBF"/>
<rect x="105" y="10" width="15" height="15" fill="white"/>
<path d="M107.648 20.6769V19.4593L113.843 10.8828H115.766V19.2828H117.531V20.6769H115.766V23.5181H114.178V20.6769H107.648ZM114.248 12.5593L109.501 19.2828H114.248V12.5593Z" fill="#BFBFBF"/>
<rect x="182" y="10" width="15" height="15" fill="white"/>
<path d="M182 12.5416V11.0769H185.318V23.8358H183.694V12.5416H182Z" fill="#BFBFBF"/>
<path d="M188.076 17.324C188.076 15.3005 188.406 13.724 189.064 12.5946C189.723 11.4534 190.876 10.8828 192.523 10.8828C194.158 10.8828 195.306 11.4534 195.964 12.5946C196.623 13.724 196.953 15.3005 196.953 17.324C196.953 19.3828 196.623 20.9828 195.964 22.124C195.306 23.2652 194.158 23.8358 192.523 23.8358C190.876 23.8358 189.723 23.2652 189.064 22.124C188.406 20.9828 188.076 19.3828 188.076 17.324ZM195.364 17.324C195.364 16.3005 195.294 15.4358 195.153 14.7299C195.023 14.0122 194.747 13.4358 194.323 13.0005C193.911 12.5652 193.311 12.3475 192.523 12.3475C191.723 12.3475 191.111 12.5652 190.688 13.0005C190.276 13.4358 190 14.0122 189.858 14.7299C189.729 15.4358 189.664 16.3005 189.664 17.324C189.664 18.3828 189.729 19.271 189.858 19.9887C190 20.7063 190.276 21.2828 190.688 21.7181C191.111 22.1534 191.723 22.371 192.523 22.371C193.311 22.371 193.911 22.1534 194.323 21.7181C194.747 21.2828 195.023 20.7063 195.153 19.9887C195.294 19.271 195.364 18.3828 195.364 17.324Z" fill="#BFBFBF"/>
<path d="M142 20C142 20.5523 141.552 21 141 21C140.448 21 140 20.5523 140 20C140 19.4477 140.448 19 141 19C141.552 19 142 19.4477 142 20Z" fill="#BFBFBF"/>
<path d="M152 20C152 20.5523 151.552 21 151 21C150.448 21 150 20.5523 150 20C150 19.4477 150.448 19 151 19C151.552 19 152 19.4477 152 20Z" fill="#BFBFBF"/>
<path d="M147 20C147 20.5523 146.552 21 146 21C145.448 21 145 20.5523 145 20C145 19.4477 145.448 19 146 19C146.552 19 147 19.4477 147 20Z" fill="#BFBFBF"/>
<path d="M157 20C157 20.5523 156.552 21 156 21C155.448 21 155 20.5523 155 20C155 19.4477 155.448 19 156 19C156.552 19 157 19.4477 157 20Z" fill="#BFBFBF"/>
<path d="M162 20C162 20.5523 161.552 21 161 21C160.448 21 160 20.5523 160 20C160 19.4477 160.448 19 161 19C161.552 19 162 19.4477 162 20Z" fill="#BFBFBF"/>
<defs>
<filter id="filter0_d_1_18130" x="18" y="0" width="49" height="49" filterUnits="userSpaceOnUse" color-interpolation-filters="sRGB">
<feFlood flood-opacity="0" result="BackgroundImageFix"/>
<feColorMatrix in="SourceAlpha" type="matrix" values="0 0 0 0 0 0 0 0 0 0 0 0 0 0 0 0 0 0 127 0" result="hardAlpha"/>
<feOffset dy="7"/>
<feGaussianBlur stdDeviation="6"/>
<feComposite in2="hardAlpha" operator="out"/>
<feColorMatrix type="matrix" values="0 0 0 0 0 0 0 0 0 0 0 0 0 0 0 0 0 0 0.12 0"/>
<feBlend mode="normal" in2="BackgroundImageFix" result="effect1_dropShadow_1_18130"/>
<feBlend mode="normal" in="SourceGraphic" in2="effect1_dropShadow_1_18130" result="shape"/>
</filter>
</defs>
</svg>
