<svg width="58" height="58" viewBox="0 0 58 58" fill="none" xmlns="http://www.w3.org/2000/svg">
<path d="M57 6H1C0.448 6 0 6.447 0 7V51C0 51.553 0.448 52 1 52H57C57.552 52 58 51.553 58 51V7C58 6.447 57.552 6 57 6ZM56 50H2V8H56V50Z" fill="#6D6D6D"/>
<path d="M15.9987 28.138C19.0697 28.138 21.5677 25.64 21.5677 22.57C21.5677 19.498 19.0697 17 15.9987 17C12.9277 17 10.4297 19.498 10.4297 22.569C10.4297 25.64 12.9277 28.138 15.9987 28.138ZM15.9987 19C17.9667 19 19.5677 20.602 19.5677 22.569C19.5677 24.536 17.9667 26.138 15.9987 26.138C14.0307 26.138 12.4297 24.537 12.4297 22.57C12.4297 20.603 14.0307 19 15.9987 19Z" fill="#6D6D6D"/>
<path d="M7.00053 46C7.23453 46 7.47053 45.918 7.66053 45.751L23.9735 31.389L34.2755 41.69C34.6665 42.081 35.2985 42.081 35.6895 41.69C36.0805 41.299 36.0805 40.667 35.6895 40.276L30.8825 35.469L40.0635 25.415L51.3245 35.738C51.7315 36.111 52.3645 36.083 52.7375 35.676C53.1105 35.269 53.0835 34.636 52.6755 34.263L40.6755 23.263C40.4795 23.084 40.2185 22.995 39.9555 23.001C39.6905 23.013 39.4405 23.13 39.2615 23.326L29.4675 34.053L24.7245 29.31C24.3505 28.937 23.7525 28.918 23.3565 29.266L6.33953 44.249C5.92453 44.614 5.88453 45.246 6.24953 45.661C6.44753 45.886 6.72353 46 7.00053 46Z" fill="#6D6D6D"/>
</svg>
