<svg width="50" height="50" viewBox="0 0 50 50" fill="none" xmlns="http://www.w3.org/2000/svg">
<g clip-path="url(#clip0_7487_9551)">
<path d="M25.5633 12.3058C25.4594 12.2458 25.3415 12.2142 25.2215 12.2142C25.1015 12.2142 24.9836 12.2458 24.8797 12.3058L14.4553 18.3243C14.3514 18.3843 14.2651 18.4706 14.2051 18.5745C14.1451 18.6784 14.1135 18.7963 14.1135 18.9163V30.9534C14.1135 31.0734 14.1451 31.1913 14.2051 31.2952C14.2651 31.3991 14.3514 31.4854 14.4553 31.5454L24.8797 37.5641C24.9836 37.6241 25.1015 37.6557 25.2215 37.6557C25.3415 37.6557 25.4594 37.6241 25.5633 37.5641L35.9878 31.5454C36.0917 31.4854 36.178 31.3991 36.238 31.2952C36.298 31.1913 36.3296 31.0734 36.3296 30.9534V18.9163C36.3296 18.7963 36.298 18.6784 36.238 18.5745C36.178 18.4706 36.0917 18.3843 35.9878 18.3243L25.5633 12.3058ZM25.2215 13.6871L34.2787 18.9163L25.2215 24.1455L16.1643 18.9163L25.2215 13.6871ZM15.4807 20.1004L24.5379 25.3295V35.7885L15.4807 30.5593V20.1004ZM25.9051 35.788V25.329L34.9624 20.0998V30.5588L25.9051 35.788ZM2.40537 27.7069C2.41599 27.7961 2.40892 27.8866 2.38457 27.973C2.36021 28.0595 2.31906 28.1403 2.26345 28.2109C2.20785 28.2814 2.13888 28.3403 2.0605 28.3842C1.98212 28.4281 1.89585 28.4561 1.80664 28.4666C1.77968 28.4698 1.75255 28.4715 1.72539 28.4715C1.55815 28.4713 1.3968 28.4097 1.27187 28.2986C1.14694 28.1874 1.0671 28.0343 1.04746 27.8682C0.935129 26.9162 0.878848 25.9584 0.878906 24.9998C0.879886 20.7516 2.00253 16.579 4.13334 12.9038C6.26414 9.22864 9.32756 6.18124 13.0138 4.06972C16.7001 1.95821 20.8786 0.857439 25.1267 0.878721C29.3749 0.900003 33.5421 2.04258 37.207 4.19092C40.1772 5.93998 42.7406 8.30175 44.7266 11.119L44.6716 3.24346C44.6709 3.15369 44.688 3.06467 44.7217 2.98149C44.7555 2.89831 44.8053 2.82259 44.8684 2.75866C44.9956 2.62954 45.169 2.55628 45.3503 2.55499C45.5316 2.55369 45.706 2.62447 45.8351 2.75175C45.9642 2.87904 46.0375 3.0524 46.0388 3.2337L46.1104 13.4932C46.111 13.5833 46.0938 13.6727 46.0597 13.7562C46.0256 13.8397 45.9754 13.9157 45.9118 13.9796C45.8483 14.0436 45.7727 14.0944 45.6895 14.1291C45.6062 14.1637 45.5169 14.1816 45.4268 14.1815C45.4202 14.1815 45.4136 14.1815 45.4072 14.1815L35.8766 13.9066C35.7864 13.9046 35.6976 13.8848 35.6152 13.8484C35.5328 13.8119 35.4583 13.7595 35.3962 13.6942C35.3341 13.6288 35.2856 13.5519 35.2534 13.4677C35.2211 13.3835 35.2058 13.2938 35.2084 13.2037C35.211 13.1136 35.2314 13.0249 35.2684 12.9427C35.3053 12.8605 35.3582 12.7864 35.424 12.7247C35.4897 12.6631 35.567 12.615 35.6513 12.5833C35.7357 12.5516 35.8255 12.5369 35.9156 12.54L44.1969 12.7789C42.1345 9.55663 39.2962 6.90369 35.9422 5.06338C32.5881 3.22307 28.8257 2.2543 25 2.2459C12.4534 2.2459 2.24609 12.4532 2.24609 24.9998C2.24614 25.9045 2.29932 26.8085 2.40537 27.7069ZM49.1211 24.9998C49.1196 29.1426 48.0516 33.2153 46.0198 36.8256C43.9879 40.436 41.0608 43.4624 37.5202 45.6134C33.9795 47.7644 29.9447 48.9677 25.8043 49.1072C21.6638 49.2467 17.5572 48.3179 13.8798 46.4101C11.0818 44.9479 8.5951 42.9552 6.5583 40.5432L6.25664 47.5682C6.24909 47.7441 6.17391 47.9104 6.04677 48.0323C5.91964 48.1542 5.75035 48.2223 5.57422 48.2225C5.56445 48.2225 5.55469 48.2225 5.54434 48.2218C5.3632 48.214 5.19258 48.1346 5.07001 48.001C4.94743 47.8674 4.88294 47.6906 4.89072 47.5095L5.27158 38.6336C5.2787 38.4568 5.35427 38.2897 5.48232 38.1676C5.61038 38.0455 5.78088 37.978 5.95781 37.9793L15.7715 38.0272C15.8613 38.0274 15.9501 38.0453 16.033 38.0798C16.1158 38.1144 16.1911 38.1649 16.2544 38.2285C16.3177 38.2921 16.3679 38.3676 16.402 38.4506C16.4362 38.5337 16.4537 38.6226 16.4535 38.7124C16.4533 38.8021 16.4354 38.891 16.4008 38.9738C16.3663 39.0567 16.3157 39.1319 16.2521 39.1953C16.1885 39.2586 16.113 39.3088 16.03 39.3429C15.947 39.3771 15.858 39.3946 15.7683 39.3943H15.7649L7.34551 39.3536C9.48338 41.9728 12.1759 44.0849 15.2288 45.5375C18.2818 46.9901 21.6191 47.747 25 47.7537C37.5466 47.7537 47.7539 37.5464 47.7539 24.9998C47.7539 24.8185 47.8259 24.6446 47.9541 24.5164C48.0823 24.3882 48.2562 24.3162 48.4375 24.3162C48.6188 24.3162 48.7927 24.3882 48.9209 24.5164C49.0491 24.6446 49.1211 24.8185 49.1211 24.9998Z" fill="black"/>
</g>
<defs>
<clipPath id="clip0_7487_9551">
<rect width="50" height="50" fill="white"/>
</clipPath>
</defs>
</svg>
