<svg width="50" height="50" viewBox="0 0 50 50" fill="none" xmlns="http://www.w3.org/2000/svg">
<path d="M39.5807 18.7493C39.5807 21.7702 38.6849 24.541 37.1432 26.8535C34.8932 30.1868 31.3307 32.541 27.1849 33.1452C26.4766 33.2702 25.7474 33.3327 24.9974 33.3327C24.2474 33.3327 23.5182 33.2702 22.8099 33.1452C18.6641 32.541 15.1016 30.1868 12.8516 26.8535C11.3099 24.541 10.4141 21.7702 10.4141 18.7493C10.4141 10.6868 16.9349 4.16602 24.9974 4.16602C33.0599 4.16602 39.5807 10.6868 39.5807 18.7493Z" stroke="black" stroke-linecap="round" stroke-linejoin="round"/>
<path d="M44.2721 38.4787L40.8346 39.2912C40.0637 39.4787 39.4596 40.062 39.2929 40.8328L38.5637 43.8953C38.1679 45.562 36.0429 46.0621 34.9387 44.7496L25.0012 33.3328L15.0637 44.7703C13.9596 46.0828 11.8346 45.5828 11.4387 43.9162L10.7096 40.8537C10.5221 40.0828 9.91791 39.4787 9.16791 39.312L5.73039 38.4996C4.14706 38.1246 3.58456 36.1453 4.73039 34.9995L12.8554 26.8745C15.1054 30.2078 18.6679 32.5621 22.8137 33.1663C23.5221 33.2913 24.2512 33.3538 25.0012 33.3538C25.7512 33.3538 26.4804 33.2913 27.1887 33.1663C31.3346 32.5621 34.8971 30.2078 37.1471 26.8745L45.2721 34.9995C46.4179 36.1245 45.8554 38.1037 44.2721 38.4787Z" stroke="black" stroke-linecap="round" stroke-linejoin="round"/>
<path d="M26.2071 12.458L27.4363 14.9163C27.603 15.2497 28.0405 15.583 28.4363 15.6455L30.6655 16.0205C32.0821 16.2497 32.4155 17.2913 31.3946 18.3122L29.6655 20.0413C29.3738 20.333 29.2071 20.8955 29.3113 21.3122L29.8113 23.458C30.2071 25.1455 29.3113 25.8122 27.8113 24.9163L25.728 23.6872C25.353 23.458 24.728 23.458 24.353 23.6872L22.2696 24.9163C20.7696 25.7913 19.8738 25.1455 20.2696 23.458L20.7696 21.3122C20.853 20.9163 20.7071 20.333 20.4155 20.0413L18.6863 18.3122C17.6655 17.2913 17.9988 16.2705 19.4155 16.0205L21.6446 15.6455C22.0196 15.583 22.4571 15.2497 22.6238 14.9163L23.853 12.458C24.4571 11.1247 25.5405 11.1247 26.2071 12.458Z" stroke="black" stroke-linecap="round" stroke-linejoin="round"/>
</svg>
