<svg width="60" height="60" viewBox="0 0 60 60" fill="none" xmlns="http://www.w3.org/2000/svg">
<g clip-path="url(#clip0_1_17622)">
<path d="M26.444 36.9028C26.1158 36.9035 25.8031 36.7594 25.5901 36.5094L19.6597 29.5647C19.2569 29.093 19.3127 28.3844 19.7844 27.9816C20.2562 27.5794 20.9647 27.6351 21.3676 28.1063L26.5856 34.2171L39.5459 23.6732C40.027 23.2816 40.7343 23.3543 41.1253 23.8355C41.5168 24.3166 41.4442 25.0239 40.963 25.4148L27.1513 36.651C26.9521 36.8139 26.7022 36.9028 26.444 36.9028Z" fill="black" stroke="white" stroke-width="0.5"/>
<path d="M26.0733 58.5803L29.1168 59.9066C29.4012 60.0306 29.7251 60.0312 30.0102 59.9078L33.4396 58.4268C45.4808 53.3697 53.3145 41.5841 53.3157 28.5243V13.1395C53.3157 12.7247 53.0871 12.3432 52.7212 12.1483L30.1706 0.13221C29.836 -0.0463404 29.4351 -0.0438346 29.103 0.138475L7.17639 12.1546C6.81678 12.352 6.59375 12.7291 6.59375 13.1395V28.8356C6.60691 41.7382 14.2514 53.4111 26.0733 58.5803ZM8.8391 13.8042L29.65 2.39824L51.0704 13.8123V28.5243C51.0679 40.6839 43.7724 51.6556 32.5606 56.3612L32.5525 56.365L29.5666 57.6543L26.9717 56.5222C15.9673 51.7108 8.85101 40.8461 8.83848 28.8356L8.8391 13.8042Z" fill="black" stroke="white" stroke-width="0.5"/>
</g>
<defs>
<clipPath id="clip0_1_17622">
<rect width="60" height="60" fill="white"/>
</clipPath>
</defs>
</svg>
