<svg width="60" height="60" viewBox="0 0 60 60" fill="none" xmlns="http://www.w3.org/2000/svg">
<path d="M55.462 37.211C54.9623 36.3619 52.9128 33.8403 47.5224 37.0339L38.0891 42.6236C37.658 42.879 37.2201 43.0654 36.7654 43.1845C36.9239 42.9039 37.0497 42.592 37.1396 42.251C37.6288 40.3934 36.5444 38.4544 34.6708 37.8364C34.6327 37.8239 34.594 37.814 34.5546 37.8068C31.8476 37.3101 29.174 36.3267 27.0257 35.5366C26.2784 35.2617 25.5723 35.0022 24.9716 34.8039C22.5373 34.0005 20.3418 34.9922 18.5149 36.0683L11.5411 40.176L10.9046 39.032C10.2863 37.9207 8.89458 37.5281 7.80189 38.1571L5.15505 39.681C4.62713 39.985 4.24681 40.4813 4.08411 41.0785C3.92142 41.6758 3.99633 42.3005 4.29508 42.8375L12.0764 56.825C12.4948 57.5771 13.2672 58 14.0617 58C14.4413 58 14.8259 57.9034 15.1792 57.7L17.826 56.1761C18.9186 55.547 19.3044 54.131 18.686 53.0196L17.9085 51.622L19.4464 50.7186L31.5083 54.0066C32.1793 54.1896 32.8469 54.2805 33.5036 54.2805C34.8316 54.2805 36.1144 53.9086 37.2872 53.1741L54.4064 42.4502C55.9894 41.4584 56.4926 38.9613 55.462 37.211ZM16.9515 54.6038L14.3047 56.1278C14.0683 56.2641 13.7555 56.1755 13.6218 55.9351L5.84046 41.9475C5.77531 41.8305 5.75933 41.6932 5.7954 41.5608C5.83136 41.4285 5.91459 41.3191 6.02979 41.2528L8.67662 39.7289C8.7522 39.6853 8.83565 39.6648 8.91844 39.6648C9.09468 39.6648 9.26847 39.7579 9.35958 39.9214L17.1409 53.9089C17.2746 54.1495 17.1879 54.4676 16.9515 54.6038ZM53.4754 40.9117L36.3563 51.6356C35.011 52.4781 33.5346 52.6888 31.968 52.2614L19.5508 48.8766C19.3234 48.8147 19.0811 48.8471 18.8772 48.9669L17.034 50.0495L12.4158 41.7481L19.4048 37.6315C20.9679 36.7107 22.6578 35.9392 24.4239 36.522C24.9966 36.7109 25.6572 36.9539 26.4222 37.2352C28.6164 38.0423 31.3437 39.0453 34.1749 39.5724C35.1331 39.915 35.6688 40.856 35.4245 41.7834C35.1034 43.0031 34.1016 43.1556 33.3032 43.063C31.9162 42.7727 30.5973 42.3899 29.2019 41.9845C28.539 41.7918 27.8537 41.5928 27.1489 41.4006C26.6754 41.2718 26.1886 41.5576 26.0615 42.0393C25.9345 42.5212 26.2158 43.0164 26.6893 43.1455C27.38 43.3337 28.0583 43.5309 28.7142 43.7214C30.1548 44.1401 31.5156 44.5354 32.9819 44.8403C32.9877 44.8415 33.0111 44.8459 33.0172 44.847L34.1903 45.041C35.9572 45.3285 37.5245 45.0483 38.9827 44.1845L48.4161 38.5948C51.1046 37.0019 53.1691 36.8316 53.9388 38.139C54.4675 39.0374 54.2337 40.4367 53.4754 40.9117ZM9.41951 42.3856C9.49498 42.9109 9.13751 43.3991 8.62113 43.4759C8.10475 43.5527 7.62488 43.1891 7.54941 42.6637C7.47395 42.1383 7.8313 41.6502 8.34779 41.5734C8.86417 41.4966 9.34405 41.8603 9.41951 42.3856ZM20.2711 22.5544L22.5412 23.4433C22.8708 24.6763 23.3525 25.8585 23.9777 26.969L22.9898 29.2318C22.8408 29.5732 22.9137 29.9728 23.1734 30.237L26.29 33.4077C26.5498 33.6718 26.9423 33.7461 27.2782 33.5945L29.5034 32.5891C30.595 33.2252 31.7567 33.7152 32.9679 34.0504L33.8419 36.3603C33.9737 36.709 34.3031 36.939 34.6704 36.939H39.0779C39.4453 36.939 39.7746 36.7089 39.9065 36.3603L40.7802 34.051C41.9922 33.7157 43.1543 33.2257 44.2459 32.5893L46.4702 33.5944C46.806 33.7461 47.1986 33.6718 47.4584 33.4077L50.575 30.2369C50.8347 29.9727 50.9076 29.5732 50.7585 29.2316L49.7703 26.968C50.3956 25.8575 50.8773 24.6756 51.2066 23.4435L53.4772 22.5544C53.8199 22.4203 54.046 22.0852 54.046 21.7115V17.2275C54.046 16.8538 53.8199 16.5188 53.4772 16.3846L51.2073 15.4957C50.8777 14.2628 50.396 13.0806 49.7706 11.97L50.7585 9.70723C50.9076 9.3657 50.8347 8.96614 50.5749 8.70195L47.4581 5.53134C47.1986 5.26715 46.8058 5.19275 46.4701 5.3446L44.245 6.34999C43.1534 5.7139 41.9917 5.22391 40.7805 4.8887L39.9065 2.57885C39.7746 2.23009 39.4453 2 39.0779 2H34.6704C34.3031 2 33.9738 2.23009 33.8419 2.57873L32.9678 4.88859C31.7566 5.22379 30.5949 5.71379 29.5033 6.34987L27.2782 5.34449C26.9423 5.19263 26.5498 5.26703 26.29 5.53122L23.1734 8.70184C22.9137 8.96603 22.8408 9.36559 22.9898 9.70712L23.9779 11.9706C23.3525 13.081 22.8709 14.263 22.5414 15.4955L20.2711 16.3846C19.9284 16.5187 19.7022 16.8538 19.7022 17.2275V21.7115C19.7022 22.0852 19.9284 22.4203 20.2711 22.5544ZM21.4779 17.8477L23.6073 17.0138C23.8806 16.9069 24.0843 16.6696 24.152 16.3799C24.4724 15.0103 25.0039 13.7063 25.7315 12.5041C25.885 12.2505 25.9057 11.9361 25.7869 11.6639L24.8601 9.5407L27.1145 7.2471L29.2017 8.19017C29.4691 8.31109 29.7783 8.29009 30.0275 8.13383C31.2094 7.39354 32.491 6.85296 33.8371 6.52713C34.1218 6.45815 34.3549 6.25086 34.46 5.9729L35.2799 3.80643H38.4682L39.288 5.9729C39.3931 6.25086 39.6263 6.45815 39.9109 6.52713C41.257 6.85296 42.5387 7.39354 43.7205 8.13383C43.97 8.29009 44.2789 8.31109 44.5463 8.19017L46.6336 7.2471L48.8881 9.5407L47.9613 11.6633C47.8426 11.9356 47.8632 12.2499 48.0168 12.5036C48.7446 13.7058 49.2761 15.01 49.5964 16.3801C49.6642 16.6698 49.8679 16.907 50.1412 17.0139L52.2702 17.8476V21.0912L50.1406 21.9251C49.8674 22.032 49.6636 22.2692 49.5959 22.5589C49.2756 23.9281 48.7442 25.2321 48.0165 26.4345C47.863 26.6882 47.8424 27.0024 47.9611 27.2746L48.8882 29.3981L46.6338 31.6917L44.5473 30.7489C44.2799 30.628 43.9709 30.649 43.7214 30.8054C42.5398 31.5457 41.2578 32.0864 39.9109 32.4123C39.6262 32.4812 39.393 32.6886 39.2879 32.9665L38.4683 35.1325H35.28L34.4602 32.966C34.3551 32.688 34.122 32.4807 33.8373 32.4117C32.4913 32.0859 31.2095 31.5452 30.0278 30.805C29.7783 30.6488 29.4693 30.6279 29.202 30.7486L27.1146 31.6918L24.8602 29.3982L25.7868 27.2756C25.9056 27.0034 25.8849 26.6891 25.7313 26.4354C25.0038 25.2335 24.4723 23.9292 24.1518 22.5588C24.0841 22.2691 23.8802 22.0319 23.6071 21.925L21.478 21.0913V17.8477H21.4779ZM36.8742 28.1928C41.6024 28.1928 45.4491 24.2796 45.4491 19.4695C45.4491 14.6594 41.6025 10.7462 36.8742 10.7462C32.146 10.7462 28.2994 14.6594 28.2994 19.4695C28.2994 24.2796 32.146 28.1928 36.8742 28.1928ZM32.4886 24.7492C32.9145 22.6555 34.7279 21.1269 36.8742 21.1269C39.0208 21.1269 40.8341 22.6555 41.26 24.7492C40.0751 25.7695 38.5446 26.3864 36.8742 26.3864C35.2039 26.3864 33.6734 25.7694 32.4886 24.7492ZM36.8744 19.3205C35.8673 19.3205 35.0481 18.487 35.0481 17.4626C35.0481 16.4381 35.8673 15.6046 36.8744 15.6046C37.8813 15.6046 38.7005 16.4381 38.7005 17.4626C38.7005 18.487 37.8813 19.3205 36.8744 19.3205ZM36.8742 12.5526C40.6233 12.5526 43.6734 15.6555 43.6734 19.4695C43.6734 20.8262 43.286 22.0919 42.6199 23.1609C42.0145 21.7279 40.9122 20.5798 39.5401 19.9243C40.1215 19.2733 40.4762 18.4092 40.4762 17.4626C40.4762 15.4421 38.8603 13.7982 36.8744 13.7982C34.8883 13.7982 33.2724 15.4421 33.2724 17.4626C33.2724 18.4092 33.6272 19.2733 34.2085 19.9243C32.8364 20.5798 31.7339 21.7279 31.1286 23.1609C30.4625 22.0919 30.075 20.8262 30.075 19.4695C30.075 15.6555 33.1251 12.5526 36.8742 12.5526Z" fill="black" stroke="white" stroke-width="0.5"/>
</svg>
