<svg width="100" height="100" viewBox="0 0 100 100" fill="none" xmlns="http://www.w3.org/2000/svg">
<path d="M85 16H12V89H85V16Z" fill="#F6F0F0"/>
<path d="M89 12H16V85H89V12Z" stroke="black" stroke-linecap="round" stroke-linejoin="round"/>
<path d="M80.4681 64.9771H72.5391V67.6201H80.4681V64.9771Z" stroke="black" stroke-linejoin="bevel"/>
<path d="M76.9414 65.8581V41.1899" stroke="black" stroke-linejoin="bevel"/>
<path d="M81.3473 41.1899H71.6562L74.2089 32.3799H78.7947L81.3473 41.1899Z" stroke="black" stroke-linejoin="bevel"/>
<path d="M54.835 69.221H33.8192C29.8589 69.2176 26.0618 67.6428 23.2614 64.8425C20.461 62.0421 18.8863 58.245 18.8828 54.2847V53.834C18.8828 53.4044 18.9674 52.979 19.1318 52.582C19.2963 52.1851 19.5372 51.8245 19.841 51.5207C20.1448 51.2169 20.5055 50.9759 20.9024 50.8115C21.2993 50.6471 21.7247 50.5625 22.1544 50.5625C22.584 50.5625 23.0094 50.6471 23.4063 50.8115C23.8032 50.9759 24.1639 51.2169 24.4677 51.5207C24.7715 51.8245 25.0124 52.1851 25.1769 52.582C25.3413 52.979 25.4259 53.4044 25.4259 53.834V54.2847C25.4282 56.5102 26.3131 58.644 27.8866 60.2179C29.4601 61.7918 31.5937 62.6773 33.8192 62.6802H54.835C57.0606 62.6773 59.1941 61.7918 60.7676 60.2179C62.3411 58.644 63.2261 56.5102 63.2284 54.2847V53.834C63.2171 53.3974 63.2934 52.963 63.4527 52.5564C63.612 52.1498 63.8511 51.7792 64.1559 51.4665C64.4607 51.1537 64.8251 50.9051 65.2275 50.7354C65.6298 50.5657 66.0621 50.4783 66.4988 50.4783C66.9356 50.4783 67.3678 50.5657 67.7702 50.7354C68.1726 50.9051 68.5369 51.1537 68.8417 51.4665C69.1465 51.7792 69.3856 52.1498 69.5449 52.5564C69.7043 52.963 69.7805 53.3974 69.7693 53.834V54.2847C69.7658 58.2446 68.1914 62.0414 65.3915 64.8417C62.5916 67.642 58.795 69.217 54.835 69.221Z" stroke="black" stroke-linecap="round" stroke-linejoin="round"/>
<path d="M21.918 50.5626C21.918 49.3077 22.4165 48.1041 23.3039 47.2167C24.1913 46.3293 25.3948 45.8308 26.6498 45.8308H61.9997C62.621 45.8308 63.2362 45.9532 63.8102 46.1911C64.3841 46.4289 64.9056 46.7774 65.3448 47.2168C65.7841 47.6563 66.1324 48.1779 66.37 48.752C66.6075 49.3261 66.7296 49.9413 66.7294 50.5626" stroke="black" stroke-linecap="round" stroke-linejoin="round"/>
<path d="M44.3203 45.8308V62.6803" stroke="black" stroke-linecap="round" stroke-linejoin="round"/>
<path d="M27.9817 68.4131L26.6406 76.6201H29.156L32.2802 69.2212" stroke="black" stroke-linecap="round" stroke-linejoin="round"/>
<path d="M60.6618 68.4131L62.0029 76.6201H59.4875L56.3633 69.2212" stroke="black" stroke-linecap="round" stroke-linejoin="round"/>
</svg>
