<svg width="60" height="60" viewBox="0 0 60 60" fill="none" xmlns="http://www.w3.org/2000/svg">
<path fill-rule="evenodd" clip-rule="evenodd" d="M7.10573 40.8248H6.86269C5.05813 40.8248 3.32748 40.1079 2.05146 38.8319C0.775436 37.5559 0.0585938 35.8252 0.0585938 34.0207V28.7339C0.0585938 26.9293 0.775436 25.1987 2.05146 23.9227C3.32748 22.6466 5.05813 21.9298 6.86269 21.9298H9.23988V21.8713C9.23988 10.4057 18.5346 1.11108 30.0001 1.11108C41.4657 1.11108 50.7603 10.4057 50.7603 21.8713V21.9298H53.1375C54.9421 21.9298 56.6727 22.6466 57.9488 23.9227C59.2248 25.1987 59.9416 26.9293 59.9416 28.7339V34.0207C59.9416 35.8252 59.2248 37.5559 57.9488 38.8319C56.6727 40.1079 54.9421 40.8248 53.1375 40.8248H49.8414C49.5268 40.8248 49.225 40.6997 49.0026 40.4773C48.7801 40.2548 48.6551 39.9531 48.6551 39.6385V21.8713C48.6551 11.5685 40.303 3.21635 30.0001 3.21635C19.6973 3.21635 11.3451 11.5685 11.3451 21.8713V39.6385C11.3451 39.9531 11.2202 40.2548 10.9978 40.4773C10.7752 40.6997 10.4736 40.8248 10.1589 40.8248H9.21111C9.26503 47.4843 14.6796 52.8655 21.351 52.8655H23.3877C23.5882 51.9401 24.0509 51.0832 24.7309 50.4032C25.663 49.4711 26.9274 48.9473 28.2457 48.9473H31.7545C34.4998 48.9473 36.7253 51.1728 36.7253 53.9181C36.7253 56.6634 34.4998 58.8889 31.7545 58.8889H28.2457C25.8618 58.8889 23.8697 57.2106 23.3867 54.9707H21.351C13.5164 54.9707 7.15894 48.6462 7.10573 40.8248ZM34.62 53.9181C34.62 52.3355 33.3371 51.0526 31.7545 51.0526H28.2457C27.4857 51.0526 26.757 51.3545 26.2195 51.8919C25.6821 52.4293 25.3802 53.1581 25.3802 53.9181C25.3802 55.5007 26.6632 56.7836 28.2457 56.7836H31.7545C33.3371 56.7836 34.62 55.5007 34.62 53.9181ZM9.23988 24.0351H6.86269C5.61649 24.0351 4.42128 24.5301 3.54011 25.4113C2.65894 26.2925 2.16386 27.4877 2.16386 28.7339V34.0207C2.16386 35.2669 2.65894 36.4621 3.54011 37.3433C4.42128 38.2244 5.61649 38.7195 6.86269 38.7195H9.23988V24.0351ZM50.7603 24.0351V38.7195H53.1375C54.3837 38.7195 55.5789 38.2244 56.4601 37.3433C57.3414 36.4621 57.8364 35.2669 57.8364 34.0207V28.7339C57.8364 27.4877 57.3414 26.2925 56.4601 25.4113C55.5789 24.5301 54.3837 24.0351 53.1375 24.0351H50.7603Z" fill="black"/>
</svg>
