<svg width="100" height="100" viewBox="0 0 100 100" fill="none" xmlns="http://www.w3.org/2000/svg">
<path d="M47.6642 90.0002C69.4428 90.0002 87.0978 72.3451 87.0978 50.5665C87.0978 28.7879 69.4428 11.1328 47.6642 11.1328C25.8855 11.1328 8.23047 28.7879 8.23047 50.5665C8.23047 72.3451 25.8855 90.0002 47.6642 90.0002Z" fill="#F6F0F0"/>
<path d="M54.0116 35.6996C58.4276 35.6996 62.0075 32.1197 62.0075 27.7037C62.0075 23.2877 58.4276 19.7078 54.0116 19.7078C49.5955 19.7078 46.0156 23.2877 46.0156 27.7037C46.0156 32.1197 49.5955 35.6996 54.0116 35.6996Z" stroke="black" stroke-linejoin="bevel"/>
<path d="M53.5 26.7088L60.2705 22.7351" stroke="black" stroke-linejoin="bevel"/>
<path d="M49.9102 34.4014L56.6867 30.4277" stroke="black" stroke-linejoin="bevel"/>
<path d="M48.1523 32.933L51.5376 30.9492" stroke="black" stroke-linejoin="bevel"/>
<path d="M52.6446 88.2436C74.4232 88.2436 92.0783 70.5885 92.0783 48.8099C92.0783 27.0313 74.4232 9.37622 52.6446 9.37622C30.866 9.37622 13.2109 27.0313 13.2109 48.8099C13.2109 70.5885 30.866 88.2436 52.6446 88.2436Z" stroke="black" stroke-linecap="round" stroke-linejoin="round"/>
<path d="M74.2865 46.7302H31.2482C29.5535 46.7302 28.1797 48.104 28.1797 49.7987C28.1797 51.4934 29.5535 52.8673 31.2482 52.8673H74.2865C75.9812 52.8673 77.355 51.4934 77.355 49.7987C77.355 48.104 75.9812 46.7302 74.2865 46.7302Z" stroke="black" stroke-linecap="round" stroke-linejoin="round"/>
<path d="M34.2999 52.8674L29.3761 77.1577C29.3374 77.3322 29.3664 77.5149 29.4573 77.6689C29.5481 77.8228 29.694 77.9365 29.8655 77.987C30.037 78.0375 30.2212 78.021 30.381 77.9408C30.5408 77.8606 30.6641 77.7227 30.7262 77.5551L40.2423 53.2332" stroke="black" stroke-linecap="round" stroke-linejoin="round"/>
<path d="M72.4111 52.8673L77.3375 77.1576C77.3715 77.3308 77.3396 77.5104 77.248 77.6612C77.1564 77.8121 77.0117 77.9233 76.8424 77.973C76.6731 78.0228 76.4913 78.0075 76.3326 77.9302C76.174 77.8528 76.05 77.719 75.9849 77.555L66.4688 53.2331" stroke="black" stroke-linecap="round" stroke-linejoin="round"/>
<path d="M37.9219 59.1595H68.7887" stroke="black" stroke-linecap="round" stroke-linejoin="round"/>
<path d="M36.7852 62.0674H69.9284" stroke="black" stroke-linecap="round" stroke-linejoin="round"/>
</svg>
